<?xml version="1.0" encoding="UTF-8"?>
<svg width="24px" height="24px" viewBox="0 0 24 24" version="1.1" xmlns="http://www.w3.org/2000/svg" xmlns:xlink="http://www.w3.org/1999/xlink">
    <!-- Generator: sketchtool 53.2 (72643) - https://sketchapp.com -->
    <title>81FBC1A3-F590-4440-A2B8-42B0CC29AB5D</title>
    <desc>Created with sketchtool.</desc>
    <defs>
        <path d="M18.107194,12.7800076 C18.1400832,12.5240076 18.1647032,12.2639848 18.1647032,12 C18.1647032,11.7360152 18.1400832,11.4759924 18.107194,11.2199924 L19.8461277,9.89604571 C20.0023673,9.77603048 20.0475979,9.56001524 19.9447954,9.38398476 L18.3003323,6.61199848 C18.1975925,6.44000305 17.9838436,6.368 17.7987867,6.44000305 L15.7514457,7.24400152 C15.3280199,6.928 14.8634355,6.65999848 14.3618273,6.45600305 L14.0535453,4.3359939 C14.016584,4.14799848 13.8479404,4 13.6423981,4 L10.3534718,4 C10.1478669,4 9.97934857,4.14799848 9.9464593,4.3359939 L9.63817727,6.45600305 C9.13656902,6.65999848 8.67198468,6.92400152 8.24856517,7.24400152 L6.20121164,6.44000305 C6.01621109,6.37199848 5.80243088,6.44000305 5.6996535,6.61199848 L4.05519032,9.38398476 C3.95241293,9.55599238 3.99763097,9.77194667 4.15385811,9.89604571 L5.8887699,11.2199924 C5.85588063,11.4759924 5.83121055,11.7360152 5.83121055,12 C5.83121055,12.2639848 5.85588063,12.5240076 5.8887699,12.7800076 L4.15385811,14.1039543 C3.99763097,14.2239695 3.95241293,14.4399848 4.05519032,14.6160152 L5.6996535,17.3880076 C5.80243088,17.5600152 6.01621109,17.632 6.20121164,17.5600152 L8.24856517,16.7559924 C8.67198468,17.0719695 9.13656902,17.3400381 9.63817727,17.5439848 L9.9464593,19.6639695 C9.97934857,19.8520076 10.1478669,20 10.3534718,20 L13.6423981,20 C13.8479404,20 14.016584,19.8520076 14.0494733,19.6639695 L14.3577553,17.5439848 C14.8593635,17.3400381 15.3238852,17.0760533 15.747311,16.7559924 L17.7947147,17.5600152 C17.9796463,17.6279771 18.1934578,17.5600152 18.2961976,17.3880076 L19.9407234,14.6160152 C20.0434632,14.4440076 19.9982953,14.2280533 19.8420557,14.1039543 L18.107194,12.7800076 Z M11.9979976,14.8000305 C10.4069716,14.8000305 9.12015571,13.5480076 9.12015571,12 C9.12015571,10.4519924 10.4069716,9.19996952 11.9979976,9.19996952 C13.5889609,9.19996952 14.8757768,10.4519924 14.8757768,12 C14.8757768,13.5480076 13.5889609,14.8000305 11.9979976,14.8000305 L11.9979976,14.8000305 Z" id="path-1"></path>
    </defs>
    <g id="Asset-Artboard-Page" stroke="none" stroke-width="1" fill="none" fill-rule="evenodd">
        <g id="Icon-Style/Icons/In-call-top-bar/Settings/ic_settings/ic_settings_gray">
            <mask id="mask-2" fill="white">
                <use xlink:href="#path-1"></use>
            </mask>
            <use id="settings" fill="#808080" xlink:href="#path-1"></use>
            <g id="Icon-color" mask="url(#mask-2)" fill="#808080">
                <rect id="color" x="0" y="0" width="24" height="24"></rect>
            </g>
        </g>
    </g>
</svg>