<?xml version="1.0" encoding="UTF-8"?>
<svg width="8px" height="23px" viewBox="0 0 8 23" version="1.1" xmlns="http://www.w3.org/2000/svg" xmlns:xlink="http://www.w3.org/1999/xlink">
    <!-- Generator: Sketch 53.2 (72643) - https://sketchapp.com -->
    <title>ic/about</title>
    <desc>Created with Sketch.</desc>
    <g id="Version-12" stroke="none" stroke-width="1" fill="none" fill-rule="evenodd">
        <g id="A03" transform="translate(-416.000000, -545.000000)" fill="#B4C3D0" fill-rule="nonzero">
            <g id="B02">
                <g id="screen">
                    <g id="settings-copy" transform="translate(375.000000, 215.000000)">
                        <g id="tabs" transform="translate(0.000000, 2.000000)">
                            <g id="about" transform="translate(0.000000, 312.000000)">
                                <path d="M44.6372333,20.196025 C43.6925344,20.196025 42.9277036,19.3997877 42.9277036,18.4180125 C42.9277036,17.4362373 43.6925344,16.64 44.6372333,16.64 C45.5811502,16.64 46.3467629,17.4362373 46.3467629,18.4180125 C46.3467629,19.3997877 45.5811502,20.196025 44.6372333,20.196025 Z M47.3545135,35.8133371 C48.0628421,35.8133371 48.6367585,36.4103117 48.6367585,37.1466685 C48.6367585,37.8829237 48.0628421,38.48 47.3545135,38.48 L42.6450955,38.48 C41.9371579,38.48 41.3632415,37.8829237 41.3632415,37.1466685 C41.3632415,36.4103117 41.9371579,35.8133371 42.6450955,35.8133371 L43.718146,35.8133371 L43.718146,24.4363546 L42.6450955,24.4363546 C41.9371579,24.4363546 41.3632415,23.83938 41.3632415,23.1030231 C41.3632415,22.3666663 41.9371579,21.76959 42.6450955,21.76959 L45.000391,21.76959 C45.7083287,21.76959 46.282245,22.3666663 46.282245,23.1030231 L46.282245,35.8133371 L47.3545135,35.8133371 Z" id="ic/about"></path>
                            </g>
                        </g>
                    </g>
                </g>
            </g>
        </g>
    </g>
</svg>