<?xml version="1.0" encoding="UTF-8"?>
<svg width="18px" height="22px" viewBox="0 0 18 22" version="1.1" xmlns="http://www.w3.org/2000/svg" xmlns:xlink="http://www.w3.org/1999/xlink">
    <!-- Generator: Sketch 53.2 (72643) - https://sketchapp.com -->
    <title>ic/account</title>
    <desc>Created with Sketch.</desc>
    <g id="Version-12" stroke="none" stroke-width="1" fill="none" fill-rule="evenodd">
        <g id="A03" transform="translate(-411.000000, -390.000000)" fill="#B4C3D0">
            <g id="B02">
                <g id="screen">
                    <g id="settings-copy" transform="translate(375.000000, 215.000000)">
                        <g id="tabs" transform="translate(0.000000, 2.000000)">
                            <g id="account" transform="translate(0.000000, 156.000000)">
                                <path d="M53.0666667,36.5126064 C53.0648554,37.1230322 53.0648554,37.7352856 53.063044,38.3457113 C53.063044,38.4352648 53.0485536,38.5248183 53.0213839,38.6070613 C52.9724786,38.7550987 52.8819131,38.8775493 52.7714232,38.9433437 C52.7279518,38.970758 52.6808578,38.9872066 52.6337637,38.9963448 C52.6192732,38.9981724 52.6047828,39 52.5921036,39 L52.5667453,39 L37.4296321,39 C37.4151416,39 37.4006512,39 37.3861607,38.9981724 C37.335444,38.9926895 37.2847274,38.9780685 37.2376333,38.9506542 C37.1235208,38.8866874 37.0275214,38.7624091 36.9768048,38.6107165 C36.9496351,38.5339564 36.936956,38.4517134 36.9333333,38.3694704 L36.9333333,38.3365732 L36.9333333,36.1872897 L36.9333333,32.888432 C37.6071405,30.6093873 41.157307,30.2 42.5465813,30.2 L47.3628532,30.2 C48.7521275,30.2 52.40735,31.09919 53.0340631,32.9743302 L53.0666667,36.5126064 L53.0666667,36.5126064 Z M44.9990149,17 C47.8360903,17 50.1333333,19.2972867 50.1333333,22.1333333 C50.1333333,24.96938 47.8360903,27.2666667 44.9990149,27.2666667 C42.1639097,27.2666667 39.8666667,24.96938 39.8666667,22.1333333 C39.8666667,19.2972867 42.1639097,17 44.9990149,17 L44.9990149,17 Z" id="ic/account"></path>
                            </g>
                        </g>
                    </g>
                </g>
            </g>
        </g>
    </g>
</svg>