<?xml version="1.0" encoding="UTF-8"?>
<svg width="128px" height="146px" viewBox="0 0 128 146" version="1.1" xmlns="http://www.w3.org/2000/svg" xmlns:xlink="http://www.w3.org/1999/xlink">
    <title>ic_music@1x</title>
    <g id="Audio" stroke="none" stroke-width="1" fill="none" fill-rule="evenodd" opacity="0.383210682">
        <g id="C01" transform="translate(-836.000000, -387.000000)" fill="#7F7F7F" fill-rule="nonzero">
            <g id="A01a">
                <path d="M874.627025,412.572958 L874.627025,427.290332 L874.627025,442.670596 L874.627025,485.959137 C870.771317,483.596451 866.252718,482.209855 861.399633,482.209855 C847.375557,482.209855 836,493.582372 836,507.597326 C836,521.627484 847.372516,533 861.399633,533 C875.417628,533 886.787104,521.630524 886.790145,507.603407 L886.790145,507.603407 L886.790145,439.173699 L951.406715,420.597576 L951.406715,464.044237 C947.551006,461.681551 943.032407,460.294956 938.179323,460.294956 C924.149165,460.294956 912.779689,471.664431 912.779689,485.679385 C912.779689,499.706502 924.149165,511.082059 938.179323,511.082059 C951.38847,511.082059 962.244054,500.971467 963.448203,488.063357 L963.569834,488.063357 L963.569834,417.100679 L963.569834,406.196443 L963.569834,387 L874.627025,412.572958 Z" id="ic_music"></path>
            </g>
        </g>
    </g>
</svg>