<?xml version="1.0" encoding="UTF-8"?>
<svg width="53px" height="53px" viewBox="0 0 53 53" version="1.1" xmlns="http://www.w3.org/2000/svg" xmlns:xlink="http://www.w3.org/1999/xlink">
    <title>icon_speaker@1x</title>
    <g id="Video" stroke="none" stroke-width="1" fill="none" fill-rule="evenodd">
        <g id="A01" transform="translate(-798.000000, -659.000000)">
            <g id="Group" transform="translate(802.000000, 663.000000)">
                <circle id="Oval" stroke="#FFFFFF" stroke-width="4" fill-opacity="0.3" fill="#0E111D" cx="22.5" cy="22.5" r="24.5"></circle>
                <path d="M25.4,10 C31.0125405,11.2630254 35,16.2475263 35,22.000425 C35,27.7533238 31.0125405,32.7378247 25.4,34.0008501 L25.4,34.0008501 L25.4,31.1753057 C29.4664838,29.9746768 32.2574859,26.2405237 32.2574859,22.0005 C32.2574859,17.7604764 29.4664838,14.0263233 25.4,12.8256943 L25.4,12.8256943 Z M22.99975,11.1993749 L22.99975,32.8016251 L16.3330555,26.0509219 L11,26.0509219 L11,17.9500781 L16.3330555,17.9500781 L22.99975,11.1993749 Z M25.4,15.999875 C27.6281134,17.167226 29.0174956,19.4814157 29.000375,21.9967496 C29.0157238,24.513519 27.627256,26.8290782 25.4,28.0011251 L25.4,28.0011251 Z" id="Combined-Shape" fill="#FFFFFF"></path>
            </g>
        </g>
    </g>
</svg>