<?xml version="1.0" encoding="UTF-8"?>
<svg width="53px" height="53px" viewBox="0 0 53 53" version="1.1" xmlns="http://www.w3.org/2000/svg" xmlns:xlink="http://www.w3.org/1999/xlink">
    <title>icon_speaker_muted@1x</title>
    <g id="Video" stroke="none" stroke-width="1" fill="none" fill-rule="evenodd">
        <g id="A01-Copy" transform="translate(-798.000000, -659.000000)">
            <g id="Group" transform="translate(802.000000, 663.000000)">
                <circle id="Oval" stroke="#FFFFFF" stroke-width="4" fill-opacity="0.3" fill="#0E111D" cx="22.5" cy="22.5" r="24.5"></circle>
                <path d="M12.6866,10 L18.47195,15.78535 L23,20.3134 L25.4,22.71325 L28.08755,25.4008 L30.37085,27.6841 L32.327,29.64025 L35,32.3134 L33.3134,34 L30.665,31.3522 C29.1498207,32.6472402 27.3431989,33.5555437 25.4,33.99925 L25.4,33.99925 L25.4,31.17385 C26.6091003,30.8048935 27.7329583,30.1996529 28.70645,29.3932 L28.70645,29.3932 L26.5412,27.22795 C26.1892162,27.5249901 25.8066692,27.7837927 25.4,28 L25.4,28 L25.4,26.0866 L23,23.6866 L23,32.8 L16.3337,26.05 L11.00075,26.05 L11.00075,17.95 L16.3337,17.95 L16.79585,17.48245 L11,11.6866 L12.6866,10 Z M25,10 C28.8636367,10.8482411 32.1096353,13.4068462 33.7903313,16.9288344 C35.4710274,20.4508225 35.3969098,24.5390629 33.589617,28 L33.589617,28 L31.4222502,25.8703949 C31.8919195,24.7301656 32.136446,23.5125256 32.1427786,22.2824631 C32.1380122,17.9444633 29.2328248,14.1251088 25,12.8920867 L25,12.8920867 Z M25,16 C27.4752895,17.1878389 29.0188088,19.5425752 28.9998269,22.1019887 C28.9979411,22.4023528 28.9751178,22.7023 28.9314965,23 L28.9314965,23 L25,19.3991016 Z M23,11 L23,17 L20,14.0195976 L23,11 Z" id="Combined-Shape" fill="#FFFFFF"></path>
            </g>
        </g>
    </g>
</svg>