<?xml version="1.0" encoding="UTF-8"?>
<svg width="53px" height="53px" viewBox="0 0 53 53" version="1.1" xmlns="http://www.w3.org/2000/svg" xmlns:xlink="http://www.w3.org/1999/xlink">
    <title>icon/pause@1x</title>
    <g id="Video" stroke="none" stroke-width="1" fill="none" fill-rule="evenodd">
        <g id="A01-Copy" transform="translate(-873.000000, -659.000000)">
            <g id="Group" transform="translate(877.000000, 663.000000)">
                <circle id="Oval" stroke="#FFFFFF" stroke-width="4" fill-opacity="0.3" fill="#0E111D" cx="22.5" cy="22.5" r="24.5"></circle>
                <path d="M16.7647059,11.4705882 C18.2266361,11.4705882 19.4117647,12.6557168 19.4117647,14.1176471 L19.4117647,30 C19.4117647,31.4619302 18.2266361,32.6470588 16.7647059,32.6470588 C15.3027757,32.6470588 14.1176471,31.4619302 14.1176471,30 L14.1176471,14.1176471 C14.1176471,12.6557168 15.3027757,11.4705882 16.7647059,11.4705882 Z M29.1176471,11.4705882 C30.5795773,11.4705882 31.7647059,12.6557168 31.7647059,14.1176471 L31.7647059,30 C31.7647059,31.4619302 30.5795773,32.6470588 29.1176471,32.6470588 C27.6557168,32.6470588 26.4705882,31.4619302 26.4705882,30 L26.4705882,14.1176471 C26.4705882,12.6557168 27.6557168,11.4705882 29.1176471,11.4705882 Z" id="Combined-Shape" fill="#FFFFFF"></path>
            </g>
        </g>
    </g>
</svg>