<?xml version="1.0" encoding="UTF-8"?>
<svg width="12px" height="14px" viewBox="0 0 12 14" version="1.1" xmlns="http://www.w3.org/2000/svg" xmlns:xlink="http://www.w3.org/1999/xlink">
    <title>9C70DB2B-182F-43A1-A0CF-7BE6126F7291</title>
    <g id="Page-1" stroke="none" stroke-width="1" fill="none" fill-rule="evenodd">
        <g id="A04" transform="translate(-1281.000000, -16.000000)" fill="#83C36D" fill-rule="nonzero">
            <g id="In-call-top-bar-1440x900-left-panel" transform="translate(373.000000, 7.000000)">
                <g id="performance_icons-/-4-/--Secure" transform="translate(854.000000, 9.000000)">
                    <path d="M65.8369276,1.95937228 C65.8127996,1.77886566 65.6881187,1.63038538 65.519574,1.58158332 L60.1177119,0.0167452075 C60.0407014,-0.00558173583 59.9593572,-0.00558173583 59.8822881,0.0167452075 L54.480426,1.58158332 C54.3118813,1.63038538 54.1872004,1.77880465 54.1630724,1.95937228 C54.1317412,2.1940492 53.4169783,7.73893947 55.2502967,10.497354 C57.0814484,13.2524744 59.7827894,13.9585182 59.8968703,13.9872505 C59.9307784,13.9957908 59.9653306,14 60,14 C60.0346694,14 60.0692216,13.9957298 60.1031297,13.9872505 C60.2172692,13.9585182 62.9186102,13.2524744 64.7497033,10.497354 C66.5830217,7.73900047 65.8682588,2.1941102 65.8369276,1.95937228 Z M63.48351,5.19653505 L59.7988942,9.03463421 C59.7131578,9.12394199 59.6007167,9.16865688 59.488334,9.16865688 C59.3759514,9.16865688 59.2635102,9.12400299 59.1777738,9.03463421 L56.8996099,6.66157295 C56.8172116,6.57580333 56.7709467,6.45941041 56.7709467,6.33807628 C56.7709467,6.21674216 56.8172701,6.10034924 56.8996099,6.01457962 L57.3519514,5.54339571 C57.5234828,5.36478016 57.8015991,5.36471916 57.9730719,5.54339571 L59.488334,7.1217764 L62.4100481,4.07829681 C62.4923878,3.99246618 62.6041262,3.94427415 62.7206083,3.94427415 C62.8370903,3.94427415 62.9488288,3.99246618 63.0311685,4.07829681 L63.48351,4.54948072 C63.6550414,4.72815726 63.6550414,5.0178585 63.48351,5.19653505 Z" id="ic_secure"></path>
                </g>
            </g>
        </g>
    </g>
</svg>