<?xml version="1.0" encoding="UTF-8"?>
<svg width="12px" height="14px" viewBox="0 0 12 14" version="1.1" xmlns="http://www.w3.org/2000/svg" xmlns:xlink="http://www.w3.org/1999/xlink">
    <title>6EC35501-72AA-464C-BA6F-348ED99B8960</title>
    <g id="Page-1" stroke="none" stroke-width="1" fill="none" fill-rule="evenodd">
        <g id="A03" transform="translate(-1281.000000, -16.000000)" fill="#CC0000">
            <g id="In-call-top-bar-1440x900-left-panel" transform="translate(373.000000, 7.000000)">
                <g id="performance_icons-/-4-/--Secure" transform="translate(854.000000, 9.000000)">
                    <path d="M60.0395757,0.00186057861 L60.1177119,0.0167452075 L65.519574,1.58158332 C65.6881187,1.63038538 65.8127996,1.77886566 65.8369276,1.95937228 C65.8682588,2.1941102 66.5830217,7.73900047 64.7497033,10.497354 C62.9186102,13.2524744 60.2172692,13.9585182 60.1031297,13.9872505 C60.0692216,13.9957298 60.0346694,14 60,14 C59.9653306,14 59.9307784,13.9957908 59.8968703,13.9872505 C59.7827894,13.9585182 57.0814484,13.2524744 55.2502967,10.497354 C53.4169783,7.73893947 54.1317412,2.1940492 54.1630724,1.95937228 C54.1872004,1.77880465 54.3118813,1.63038538 54.480426,1.58158332 L54.480426,1.58158332 L59.8822881,0.0167452075 C59.9593572,-0.00558173583 60.0407014,-0.00558173583 60.1177119,0.0167452075 Z M57.4013192,4.15368852 L57.1536885,4.40093493 C56.9487705,4.60591702 56.9487705,4.93814036 57.1536885,5.14273821 L59.008645,6.99769467 L57.1540728,8.8522669 C56.9490907,9.05724898 56.9490907,9.38947233 57.1540728,9.59407018 L57.4013192,9.84131659 C57.6062372,10.0462346 57.9384606,10.0462346 58.1430584,9.84131659 L59.9976947,7.98668033 L61.8522669,9.84131659 C62.057249,10.0462346 62.3894723,10.0462346 62.5940702,9.84131659 L62.8413166,9.59407018 C63.0462346,9.38908811 63.0462346,9.05686475 62.8413166,8.8522669 L60.9866803,6.99769467 L62.8413166,5.14305839 C63.0462346,4.93814036 63.0462346,4.60591702 62.8413166,4.40131916 L62.5940702,4.15407275 C62.3890881,3.94909067 62.0568648,3.94909067 61.8522669,4.15407275 L59.9976947,6.00864498 L58.1430584,4.15368852 C57.9381404,3.94877049 57.605917,3.94877049 57.4013192,4.15368852 Z" id="ic_secure"></path>
                </g>
            </g>
        </g>
    </g>
</svg>