<?xml version="1.0" encoding="utf-8"?>
<!-- Generator: Adobe Illustrator 21.0.2, SVG Export Plug-In . SVG Version: 6.00 Build 0)  -->
<svg version="1.1" id="Layer_1" xmlns="http://www.w3.org/2000/svg" xmlns:xlink="http://www.w3.org/1999/xlink" x="0px" y="0px"
	 viewBox="0 0 22 14" style="enable-background:new 0 0 22 14;" xml:space="preserve">
<style type="text/css">
	.st0{fill:#FFFFFF;}
</style>
<path id="recording" class="st0" d="M11,3C8.8,3,7,4.8,7,7s1.8,4,4,4s4-1.8,4-4S13.2,3,11,3L11,3z M11,0C7.2,0,4,3.2,4,7s3.2,7,7,7
	s7-3.2,7-7S14.8,0,11,0L11,0z M5.4,7c0-3.1,2.5-5.6,5.6-5.6s5.6,2.5,5.6,5.6s-2.5,5.6-5.6,5.6S5.4,10.1,5.4,7z"/>
</svg>
