<?xml version="1.0" encoding="utf-8"?>
<!-- Generator: Adobe Illustrator 19.2.1, SVG Export Plug-In . SVG Version: 6.00 Build 0)  -->
<svg version="1.1" id="Layer_1" xmlns="http://www.w3.org/2000/svg" xmlns:xlink="http://www.w3.org/1999/xlink" x="0px" y="0px"
	 viewBox="0 0 160 160" style="enable-background:new 0 0 160 160;" xml:space="preserve">
<style type="text/css">
	.st0{fill:#FF1100;}
</style>
<path class="st0" d="M111.7,7.5c-25.2,0-45.6,20.4-45.6,45.6c0,4.1,0.6,8.1,1.6,11.9L2.6,130.7v10.2l11.3,11.6l22-0.5l10.8-10.9
	l0.2-11l11-0.1l-0.2-10.6l11.3-0.3v-10.9l22.3-0.4l10.2-10.2c3.2,0.7,6.6,1.1,10.2,1.1c25.2,0,45.6-20.4,45.6-45.6
	C157.4,27.9,136.9,7.5,111.7,7.5z M14.1,141.4l0.2-11.2l54.7-55l0.3,11L14.1,141.4z M123.4,54.2c-6.7,0-12.1-5.4-12.1-12.1
	c-0.1-6.7,5.4-12.1,12.1-12.1s12.1,5.4,12.1,12.1S130.1,54.2,123.4,54.2z"/>
</svg>
