<?xml version="1.0" encoding="utf-8"?>
<svg width="48px" height="48px" viewBox="0 0 48 48" version="1.1" xmlns:xlink="http://www.w3.org/1999/xlink" xmlns="http://www.w3.org/2000/svg">
  <defs>
    <filter id="filter_1">
      <feColorMatrix in="SourceGraphic" type="matrix" values="0 0 0 0 1 0 0 0 0 1 0 0 0 0 1 0 0 0 1 0" />
    </filter>
  </defs>
  <g id="352089_rotation_screen_icon" filter="url(#filter_1)">
    <path d="M0 0L48 0L48 48L0 48L0 0Z" id="Path" fill="none" fill-rule="evenodd" stroke="none" />
    <path d="M32.87 5.03C39.4 8.13 44.09 14.48 44.8 22L47.8 22C46.78 9.68 36.48 0 23.9 0C23.45 0 23.02 0.04 22.57 0.07L30.2 7.7L32.87 5.03ZM20.36 3.49C19.19 2.32 17.29 2.32 16.12 3.49L3.39 16.22C2.22 17.39 2.22 19.29 3.39 20.46L27.43 44.5C28.6 45.67 30.5 45.67 31.67 44.5L44.4 31.77C45.57 30.6 45.57 28.7 44.4 27.53L20.36 3.49ZM29.56 42.38L5.51 18.34L18.24 5.61L42.28 29.65L29.56 42.38L29.56 42.38ZM14.93 42.97C8.4 39.87 3.71 33.52 3 26L0 26C1.02 38.32 11.32 48 23.9 48C24.35 48 24.78 47.96 25.23 47.93L17.6 40.3L14.93 42.97Z" transform="translate(0.1 0)" id="Shape" fill="#000000" stroke="none" />
  </g>
</svg>