<?xml version="1.0" encoding="UTF-8" standalone="no"?>
<svg width="20px" height="20px" viewBox="0 0 20 20" version="1.1" xmlns="http://www.w3.org/2000/svg" xmlns:xlink="http://www.w3.org/1999/xlink">
    <!-- Generator: Sketch 45.2 (43514) - http://www.bohemiancoding.com/sketch -->
    <title>spinner circle</title>
    <desc>Created with Sketch.</desc>
    <defs></defs>
    <g id="Symbols" stroke="none" stroke-width="1" fill="none" fill-rule="evenodd">
        <g id="input-field-with-spinner-final" transform="translate(-125.000000, -10.000000)" fill="#FFFFFF">
            <g id="spinner-2" transform="translate(125.000000, 10.000000)">
                <g id="spinner-of-dots-1">
                    <path d="M4.40442013,14.1939606 C3.90450766,14.1939606 3.47969365,14.368884 3.12980306,14.7187309 C2.78004376,15.068884 2.60503282,15.4936105 2.60503282,15.993523 C2.60503282,16.4934792 2.77991247,16.9182057 3.12980306,17.2683589 C3.47982495,17.6182057 3.90463895,17.7931291 4.40442013,17.7931291 C4.89592998,17.7931291 5.31859956,17.6182057 5.67269147,17.2683589 C6.02665208,16.9186433 6.20363239,16.4934792 6.20363239,15.993523 C6.20363239,15.4936105 6.02669584,15.0691904 5.67269147,14.7187309 C5.3185558,14.3691904 4.89592998,14.1939606 4.40442013,14.1939606 Z" id="Shape" fill-rule="nonzero"></path>
                    <path d="M4.00459519,10.3957112 C4.00459519,9.84595186 3.80892779,9.37544858 3.41737418,8.98358862 C3.02586433,8.59207877 2.55514223,8.39636761 2.00538293,8.39636761 C1.45557987,8.39636761 0.984945295,8.59212254 0.593391685,8.98358862 C0.201925602,9.37514223 0.00621444201,9.84577681 0.00621444201,10.3957112 C0.00621444201,10.9453829 0.201881838,11.4157987 0.593391685,11.8074398 C0.984945295,12.199081 1.45557987,12.3948359 2.00538293,12.3948359 C2.55514223,12.3948359 3.02586433,12.199081 3.41737418,11.8074398 C3.80892779,11.4160613 4.00459519,10.9453829 4.00459519,10.3957112 Z" id="Shape" fill-rule="nonzero"></path>
                    <path d="M15.5997374,5.79781182 C15.8743982,5.79781182 16.1101094,5.69978118 16.3056018,5.50411379 C16.5013567,5.30827133 16.5994311,5.07286652 16.5994311,4.79803063 C16.5994311,4.52306346 16.5013567,4.2878337 16.3056018,4.09212254 C16.1099781,3.89628009 15.8743982,3.79842451 15.5997374,3.79842451 C15.3247702,3.79842451 15.0893217,3.89645514 14.8935667,4.09212254 C14.6979431,4.28787746 14.6000438,4.52306346 14.6000438,4.79803063 C14.6000438,5.07299781 14.6979431,5.30827133 14.8935667,5.50411379 C15.0893217,5.69995624 15.3247702,5.79781182 15.5997374,5.79781182 Z" id="Shape" fill-rule="nonzero"></path>
                    <path d="M4.40455142,2.5990372 C3.79636761,2.5990372 3.27785558,2.81356674 2.84884026,3.24249453 C2.41978118,3.67142232 2.20538293,4.18997812 2.20538293,4.79803063 C2.20538293,5.40630197 2.41978118,5.92463895 2.84884026,6.35374179 C3.27798687,6.78280088 3.79649891,6.99728665 4.40455142,6.99728665 C5.01260394,6.99728665 5.53115974,6.78266958 5.96008753,6.35374179 C6.38901532,5.92463895 6.60354486,5.40617068 6.60354486,4.79803063 C6.60354486,4.18997812 6.38901532,3.67142232 5.96008753,3.24249453 C5.53115974,2.81356674 5.01260394,2.5990372 4.40455142,2.5990372 Z" id="Shape" fill-rule="nonzero"></path>
                    <path d="M18.8483151,9.54595186 C18.6151422,9.31269147 18.3319475,9.19619256 17.9988621,9.19619256 C17.6654705,9.19619256 17.3822757,9.31269147 17.1491028,9.54595186 C16.9160613,9.77921225 16.7995624,10.0624945 16.7995624,10.3958862 C16.7995624,10.7289278 16.9160613,11.0126039 17.1491028,11.2453392 C17.382407,11.4786871 17.6654705,11.595186 17.9988621,11.595186 C18.3319475,11.595186 18.6153173,11.4786871 18.8483151,11.2453392 C19.081663,11.0123414 19.1980306,10.7289278 19.1980306,10.3958862 C19.1980306,10.0626696 19.0818381,9.77934354 18.8483151,9.54595186 Z" id="Shape" fill-rule="nonzero"></path>
                    <path d="M15.5997374,14.5940044 C15.2163239,14.5940044 14.8873085,14.7313348 14.6123414,15.006302 C14.3376805,15.2809628 14.2001751,15.6101532 14.2001751,15.9935667 C14.2001751,16.376674 14.3376805,16.7058643 14.6123414,16.9808753 C14.8873085,17.2557987 15.2163676,17.3929978 15.5997374,17.3929978 C15.9828446,17.3929978 16.31186,17.2555361 16.5868271,16.9808753 C16.8617943,16.7059081 16.9991685,16.376849 16.9991685,15.9935667 C16.9991685,15.6101532 16.8617943,15.2813129 16.5868271,15.006302 C16.3119037,14.731291 15.9828446,14.5940044 15.5997374,14.5940044 Z" id="Shape" fill-rule="nonzero"></path>
                    <path d="M10.0020569,16.7928665 C9.56056893,16.7928665 9.18358862,16.9493654 8.87102845,17.2617943 C8.55877462,17.5742232 8.40253829,17.9509847 8.40253829,18.3925164 C8.40253829,18.8340481 8.55859956,19.2108534 8.87102845,19.5232385 C9.18358862,19.8356674 9.56039387,19.992035 10.0020569,19.992035 C10.4435886,19.992035 10.8203939,19.8356674 11.1328228,19.5232385 C11.4452516,19.2108534 11.6014442,18.8340481 11.6014442,18.3925164 C11.6014442,17.9509847 11.4452516,17.5742232 11.1328228,17.2617943 C10.8203939,16.9493654 10.4435886,16.7928665 10.0020569,16.7928665 Z" id="Shape" fill-rule="nonzero"></path>
                    <path d="M10.0020569,0 C9.33575492,0 8.76905908,0.233129103 8.30253829,0.699606127 C7.8361488,1.16612691 7.60293217,1.73269147 7.60293217,2.3990372 C7.60293217,3.0654267 7.83606127,3.63172867 8.30253829,4.09829322 C8.76905908,4.56468271 9.33562363,4.79794311 10.0020569,4.79794311 C10.6686652,4.79794311 11.2349672,4.564814 11.7013129,4.09829322 C12.1676586,3.63194748 12.4008753,3.0654267 12.4008753,2.3990372 C12.4008753,1.73273523 12.1676586,1.16630197 11.7013129,0.699606127 C11.2349672,0.233260394 10.6686652,0 10.0020569,0 Z" id="Shape" fill-rule="nonzero"></path>
                </g>
            </g>
        </g>
    </g>
</svg>