<?xml version="1.0" standalone="no"?>
<!DOCTYPE svg PUBLIC "-//W3C//DTD SVG 1.1//EN" "http://www.w3.org/Graphics/SVG/1.1/DTD/svg11.dtd">
<svg width="100%" height="100%" viewBox="0 0 1000 1000" version="1.1" xmlns="http://www.w3.org/2000/svg" xmlns:xlink="http://www.w3.org/1999/xlink" xml:space="preserve" style="fill-rule:evenodd;clip-rule:evenodd;stroke-linejoin:round;stroke-miterlimit:1.41421;">
    <g transform="matrix(0.937842,0,0,0.937842,7.88918,2.6728)">
        <path d="M803.3,513L803.3,684.2C803.3,715.2 778.4,740.1 747.4,740.1L250.5,740.1C219.5,740.1 194.6,715.2 194.6,684.2L194.6,203.6C194.6,172.6 219.5,147.7 250.5,147.7L538.1,147.7C484.8,177.2 445.1,213.2 414.6,249.3L296.2,249.3L296.2,638.5L701.7,638.5L701.7,609L750,563.3L803.3,513ZM848.1,833.3L888.4,941.1C891.3,948.7 885.6,956.9 877.5,956.9L138.6,956.9C130.6,956.9 124.9,949 127.6,941.4L165.2,833.6C166.8,828.9 171.3,825.8 176.2,825.8L837.1,825.8C842,825.7 846.4,828.8 848.1,833.3ZM956.8,263.6L842.9,370.3L723,483.6L722.5,353.5C537.6,352.5 399.4,461.2 399.4,461.2C399.4,461.2 421.2,220.9 723,161.4L723,43L956.8,263.6Z" style="fill:rgb(51,194,255);fill-rule:nonzero;"/>
    </g>
</svg>
