<?xml version="1.0" encoding="UTF-8" standalone="no"?>
<!DOCTYPE svg PUBLIC "-//W3C//DTD SVG 1.1//EN" "http://www.w3.org/Graphics/SVG/1.1/DTD/svg11.dtd">
<svg width="100%" height="100%" viewBox="0 0 306 306" version="1.1" xmlns="http://www.w3.org/2000/svg" xmlns:xlink="http://www.w3.org/1999/xlink" xml:space="preserve" style="fill-rule:evenodd;clip-rule:evenodd;">
    <g transform="matrix(1.2244,0,0,1.2244,-10.7175,-61.2681)">
        <g id="Stand" transform="matrix(0.70544,0,0,0.70544,-24.4024,84.5527)">
            <path d="M238.5,271L161.5,271C163.7,271 165.5,269.2 165.5,266.9L165.5,244L234.5,244L234.5,266.9C234.5,269.2 236.3,271 238.5,271Z" style="fill:url(#_Radial1);"/>
        </g>
        <g id="Base" transform="matrix(0.70544,0,0,0.70544,-24.4024,84.5527)">
            <path d="M244,281L156,281C153.3,281 151,278.8 151,276C151,273.3 153.2,271 156,271L244,271C246.7,271 249,273.2 249,276C249,278.8 246.8,281 244,281Z" style="fill:url(#_Radial2);"/>
        </g>
        <g id="Frame" transform="matrix(0.70544,0,0,0.70544,-24.4024,84.5527)">
            <rect x="47" y="38" width="306" height="206" style="fill:url(#_Radial3);stroke:rgb(229,229,229);stroke-width:0.25px;"/>
        </g>
        <g id="Screen_2_" transform="matrix(0.70544,0,0,0.70544,-24.4024,84.5527)">
            <rect x="57.5" y="52" width="285" height="178.4" style="fill:url(#_Radial4);stroke:rgb(229,229,229);stroke-width:1px;"/>
        </g>
    </g>
    <g transform="matrix(1.10546,0,0,1.10546,-29.1451,-7.88912)">
        <rect x="116.518" y="31.162" width="181.654" height="121.838" style="fill-opacity:0.501961;"/>
    </g>
    <g transform="matrix(1.10546,0,0,1.10546,-23.6177,-13.4164)">
        <rect x="116.518" y="31.162" width="181.654" height="121.838" style="fill:rgb(90,79,79);"/>
    </g>
    <g transform="matrix(1.10466,0,0,1.13067,-9.45985,-14.6358)">
        <rect x="116.466" y="48.373" width="164.995" height="99.245" style="fill:white;"/>
    </g>
    <g transform="matrix(1.10546,0,0,1.10546,-11.7642,-17.9434)">
        <circle cx="112.278" cy="56.656" r="4.188" style="fill:rgb(255,242,0);"/>
    </g>
    <g transform="matrix(1.10546,0,0,1.10546,-11.7642,4.16589)">
        <circle cx="112.278" cy="56.656" r="4.188" style="fill:rgb(108,255,0);"/>
    </g>
    <g transform="matrix(1.10546,0,0,1.10546,-11.7642,26.2751)">
        <circle cx="112.278" cy="56.656" r="4.188" style="fill:rgb(255,127,127);"/>
    </g>
    <g transform="matrix(1.10546,0,0,1.10546,-11.7642,48.3844)">
        <circle cx="112.278" cy="56.656" r="4.188" style="fill:rgb(0,234,255);"/>
    </g>
    <g transform="matrix(1.10546,0,0,1.10546,13.575,-17.988)">
        <path d="M228.379,62.059C228.379,61.411 227.853,60.884 227.204,60.884L128.759,60.884C128.111,60.884 127.585,61.411 127.585,62.059L127.585,64.408C127.585,65.056 128.111,65.582 128.759,65.582L227.204,65.582C227.853,65.582 228.379,65.056 228.379,64.408L228.379,62.059Z" style="fill:rgb(138,138,138);"/>
    </g>
    <g transform="matrix(1.10546,0,0,1.10546,13.575,-6.93336)">
        <path d="M228.379,62.059C228.379,61.411 227.853,60.884 227.204,60.884L128.759,60.884C128.111,60.884 127.585,61.411 127.585,62.059L127.585,64.408C127.585,65.056 128.111,65.582 128.759,65.582L227.204,65.582C227.853,65.582 228.379,65.056 228.379,64.408L228.379,62.059Z" style="fill:rgb(188,188,188);"/>
    </g>
    <g transform="matrix(0.502241,0,0,1.10546,120.937,-39.1641)">
        <path d="M228.379,62.059C228.379,61.411 227.221,60.884 225.794,60.884L130.17,60.884C128.743,60.884 127.585,61.411 127.585,62.059L127.585,64.408C127.585,65.056 128.743,65.582 130.17,65.582L225.794,65.582C227.221,65.582 228.379,65.056 228.379,64.408L228.379,62.059Z" style="fill:rgb(188,188,188);"/>
    </g>
    <g transform="matrix(0.502241,0,0,1.10546,55.1174,-39.1641)">
        <path d="M228.379,62.059C228.379,61.411 227.221,60.884 225.794,60.884L130.17,60.884C128.743,60.884 127.585,61.411 127.585,62.059L127.585,64.408C127.585,65.056 128.743,65.582 130.17,65.582L225.794,65.582C227.221,65.582 228.379,65.056 228.379,64.408L228.379,62.059Z" style="fill:rgb(94,94,94);"/>
    </g>
    <g transform="matrix(0.502241,0,0,1.10546,186.758,-39.1641)">
        <path d="M228.379,62.059C228.379,61.411 227.221,60.884 225.794,60.884L130.17,60.884C128.743,60.884 127.585,61.411 127.585,62.059L127.585,64.408C127.585,65.056 128.743,65.582 130.17,65.582L225.794,65.582C227.221,65.582 228.379,65.056 228.379,64.408L228.379,62.059Z" style="fill:rgb(94,94,94);"/>
    </g>
    <g transform="matrix(1.10546,0,0,1.10546,13.575,4.12127)">
        <path d="M228.379,62.059C228.379,61.411 227.853,60.884 227.204,60.884L128.759,60.884C128.111,60.884 127.585,61.411 127.585,62.059L127.585,64.408C127.585,65.056 128.111,65.582 128.759,65.582L227.204,65.582C227.853,65.582 228.379,65.056 228.379,64.408L228.379,62.059Z" style="fill:rgb(138,138,138);"/>
    </g>
    <g transform="matrix(0.761862,0,0,1.10546,92.046,15.1759)">
        <path d="M228.379,62.059C228.379,61.411 227.615,60.884 226.675,60.884L129.289,60.884C128.348,60.884 127.585,61.411 127.585,62.059L127.585,64.408C127.585,65.056 128.348,65.582 129.289,65.582L226.675,65.582C227.615,65.582 228.379,65.056 228.379,64.408L228.379,62.059Z" style="fill:rgb(188,188,188);"/>
    </g>
    <g transform="matrix(1.10546,0,0,1.10546,-11.0546,-13.4164)">
        <path d="M177.11,92.923C177.11,89.516 174.343,86.749 170.936,86.749L156.039,86.749C152.631,86.749 149.865,89.516 149.865,92.923L149.865,105.272C149.865,108.68 152.631,111.447 156.039,111.447L170.936,111.447C174.343,111.447 177.11,108.68 177.11,105.272L177.11,92.923Z" style="fill:rgb(190,190,190);"/>
    </g>
    <g transform="matrix(0.923545,0,0,1.10546,102.827,19.7474)">
        <path d="M177.11,92.439C177.11,89.299 174.058,86.749 170.299,86.749L156.676,86.749C152.917,86.749 149.865,89.299 149.865,92.439L149.865,105.756C149.865,108.897 152.917,111.447 156.676,111.447L170.299,111.447C174.058,111.447 177.11,108.897 177.11,105.756L177.11,92.439Z" style="fill:rgb(192,192,192);"/>
    </g>
    <g transform="matrix(0.761862,0,0,1.10546,92.046,26.2305)">
        <path d="M228.379,62.059C228.379,61.411 227.615,60.884 226.675,60.884L129.289,60.884C128.348,60.884 127.585,61.411 127.585,62.059L127.585,64.408C127.585,65.056 128.348,65.582 129.289,65.582L226.675,65.582C227.615,65.582 228.379,65.056 228.379,64.408L228.379,62.059Z" style="fill:rgb(138,138,138);"/>
    </g>
    <g transform="matrix(0.761862,0,0,1.10546,92.046,37.2851)">
        <path d="M228.379,62.059C228.379,61.411 227.615,60.884 226.675,60.884L129.289,60.884C128.348,60.884 127.585,61.411 127.585,62.059L127.585,64.408C127.585,65.056 128.348,65.582 129.289,65.582L226.675,65.582C227.615,65.582 228.379,65.056 228.379,64.408L228.379,62.059Z" style="fill:rgb(188,188,188);"/>
    </g>
    <g transform="matrix(0.803873,0,0,1.10546,52.0532,48.3398)">
        <path d="M228.379,62.059C228.379,61.411 227.655,60.884 226.764,60.884L129.2,60.884C128.308,60.884 127.585,61.411 127.585,62.059L127.585,64.408C127.585,65.056 128.308,65.582 129.2,65.582L226.764,65.582C227.655,65.582 228.379,65.056 228.379,64.408L228.379,62.059Z" style="fill:rgb(138,138,138);"/>
    </g>
    <g transform="matrix(0.803873,0,0,1.10546,52.0532,59.3944)">
        <path d="M228.379,62.059C228.379,61.411 227.655,60.884 226.764,60.884L129.2,60.884C128.308,60.884 127.585,61.411 127.585,62.059L127.585,64.408C127.585,65.056 128.308,65.582 129.2,65.582L226.764,65.582C227.655,65.582 228.379,65.056 228.379,64.408L228.379,62.059Z" style="fill:rgb(188,188,188);"/>
    </g>
    <g transform="matrix(0.803873,0,0,1.10546,52.0532,70.449)">
        <path d="M228.379,62.059C228.379,61.411 227.655,60.884 226.764,60.884L129.2,60.884C128.308,60.884 127.585,61.411 127.585,62.059L127.585,64.408C127.585,65.056 128.308,65.582 129.2,65.582L226.764,65.582C227.655,65.582 228.379,65.056 228.379,64.408L228.379,62.059Z" style="fill:rgb(138,138,138);"/>
    </g>
    <defs>
        <radialGradient id="_Radial1" cx="0" cy="0" r="1" gradientUnits="userSpaceOnUse" gradientTransform="matrix(33.8924,0,0,33.8924,208.667,254.167)"><stop offset="0%" style="stop-color:rgb(237,237,237);stop-opacity:1"/><stop offset="100%" style="stop-color:rgb(172,172,172);stop-opacity:1"/></radialGradient>
        <radialGradient id="_Radial2" cx="0" cy="0" r="1" gradientUnits="userSpaceOnUse" gradientTransform="matrix(34.8258,0,0,34.8258,200,276.033)"><stop offset="0%" style="stop-color:rgb(237,237,237);stop-opacity:1"/><stop offset="100%" style="stop-color:rgb(172,172,172);stop-opacity:1"/></radialGradient>
        <radialGradient id="_Radial3" cx="0" cy="0" r="1" gradientUnits="userSpaceOnUse" gradientTransform="matrix(296.03,0,0,296.03,374,23)"><stop offset="0%" style="stop-color:rgb(237,237,237);stop-opacity:1"/><stop offset="100%" style="stop-color:rgb(172,172,172);stop-opacity:1"/></radialGradient>
        <radialGradient id="_Radial4" cx="0" cy="0" r="1" gradientUnits="userSpaceOnUse" gradientTransform="matrix(264.199,0,0,218.164,201.577,70.8036)"><stop offset="0%" style="stop-color:rgb(10,82,134);stop-opacity:1"/><stop offset="100%" style="stop-color:rgb(0,3,5);stop-opacity:1"/></radialGradient>
    </defs>
</svg>
