<?xml version="1.0" encoding="utf-8"?>
<!-- Generator: Adobe Illustrator 18.1.1, SVG Export Plug-In . SVG Version: 6.00 Build 0)  -->
<svg version="1.1" id="Layer_1" xmlns="http://www.w3.org/2000/svg" xmlns:xlink="http://www.w3.org/1999/xlink" x="0px" y="0px"
	 viewBox="102 -102 300 300" enable-background="new 102 -102 300 300" xml:space="preserve">
<g display="none">
	<g id="Layer19" display="inline">
		<g>
			<path d="M260.6,96.4c-26,26-65.9,28.9-88.3,6.5c-22.4-22.4-19.5-62.3,6.5-88.3l90.5-90.5c18.9-18.9,47.9-21.1,64.2-4.7
				c16.3,16.3,14.2,45.3-4.7,64.2l-73.3,73.3c-10.7,10.4-29.7,16.3-42.1,3.9c-10.2-10.2-6.9-29.3,4.9-41.1L283-44.9
				c7.9-7,19.2,2.7,11.1,11.1l-64.6,64.6c-6.5,7.6-7.1,14.3-3,18.4c4.1,4.1,10.8,3.5,17.9-3.5l73.3-73.3
				c11.8-11.8,14.7-31.3,4.5-41.5c-10.2-10.2-29.9-7.5-41.7,4.3l-90.5,90.5c-18.9,18.9-22.4,50-6.1,66.3c16.3,16.3,46.6,12,65.6-6.9
				l81.9-81.9c7.5-7.1,18.2,3.5,11.1,11.1L260.6,96.4z"/>
		</g>
		<g>
			<path d="M260.6,96.4c-26,26-65.9,28.9-88.3,6.5c-22.4-22.4-19.5-62.3,6.5-88.3l90.5-90.5c18.9-18.9,47.9-21.1,64.2-4.7
				c16.3,16.3,14.2,45.3-4.7,64.2l-73.3,73.3c-10.7,10.4-29.7,16.3-42.1,3.9c-10.2-10.2-6.9-29.3,4.9-41.1L283-44.9
				c7.9-7,19.2,2.7,11.1,11.1l-64.6,64.6c-6.5,7.6-7.1,14.3-3,18.4c4.1,4.1,10.8,3.5,17.9-3.5l73.3-73.3
				c11.8-11.8,14.7-31.3,4.5-41.5c-10.2-10.2-29.9-7.5-41.7,4.3l-90.5,90.5c-18.9,18.9-22.4,50-6.1,66.3c16.3,16.3,46.6,12,65.6-6.9
				l81.9-81.9c7.5-7.1,18.2,3.5,11.1,11.1L260.6,96.4z"/>
		</g>
		<g>
			<path d="M355-73.9h28.2v262.5H120.8V-73.9h125.9c-6.8,6.7-13.5,13.5-20.2,20.2h-85.5v222.1h222.1V-53.7h-4c0-1.8-0.1-3.6-0.3-5.4
				C358.2-64.2,356.9-69.2,355-73.9z M344.5-53.7h-16.1c-0.1-2.3-0.4-4.6-1.1-6.8c-0.7-2.2-1.7-4.2-3-6.1c-0.9-1.3-2.1-2.5-3.3-3.6
				c-0.8-0.7-1.7-1.3-2.6-1.8c-0.7-0.4-1.3-0.8-2.1-1.1c-0.7-0.3-1.3-0.6-2-0.8h24.5c1.2,1.9,2.2,4,3,6.1
				C343.5-63.3,344.4-58.5,344.5-53.7z M269.3-53.7h-22.2c6.8-6.7,13.5-13.5,20.3-20.2H296c-0.2,0.1-0.4,0.1-0.6,0.2
				c-1.4,0.4-2.7,0.9-4,1.5c-1.6,0.7-3.2,1.6-4.7,2.5c-1.5,0.9-2.9,2-4.2,3.1c-0.6,0.5-1.2,1-1.7,1.6
				C276.9-61.2,273.1-57.4,269.3-53.7z"/>
		</g>
	</g>
</g>
<polygon fill="none" stroke="#000000" stroke-width="15" stroke-miterlimit="10" points="339.4,178 133,178 133,-33.9 296.3,-33.9 
	318.6,-11.6 339.4,9.2 "/>
<path fill="none" stroke="#000000" stroke-width="15" stroke-miterlimit="10" d="M179.8-33.9v-21.9c0-17.3,14-31.2,31.2-31.2h0
	c17.3,0,31.2,14,31.2,31.2v21.9"/>
<path fill="none" stroke="#000000" stroke-width="15" stroke-miterlimit="10" d="M242.3-33.9V40c0,21.6-17.5,39.1-39.1,39.1h0
	C181.5,79.1,164,61.6,164,40V-1.5"/>
<polygon points="296.3,-33.7 339.4,9 296.3,9.2 "/>
</svg>
