<?xml version="1.0" standalone="no"?>
<!DOCTYPE svg PUBLIC "-//W3C//DTD SVG 1.1//EN" "http://www.w3.org/Graphics/SVG/1.1/DTD/svg11.dtd">
<svg width="100%" height="100%" viewBox="0 0 20 20" version="1.1" xmlns="http://www.w3.org/2000/svg" xmlns:xlink="http://www.w3.org/1999/xlink" xml:space="preserve" style="fill-rule:evenodd;clip-rule:evenodd;stroke-linejoin:round;stroke-miterlimit:1.41421;">
    <g id="Layer1">
        <path id="Layer18" d="M11.0242,17.9388C8.24545,20.4207 3.987,20.7018 1.5907,18.5615C-0.805598,16.4212 -0.490885,12.6178 2.28786,10.136L11.958,1.49903C13.9788,-0.305949 17.0759,-0.510375 18.8187,1.04618C20.5614,2.60274 20.3326,5.36887 18.3116,7.17383L10.4834,14.1656C9.34415,15.1555 7.30668,15.721 5.98532,14.5408C4.89609,13.5679 5.24934,11.747 6.51237,10.6189L13.4196,4.44965C14.2643,3.77955 15.4662,4.70552 14.611,5.51367L7.70375,11.6829C7.01282,12.4106 6.94787,13.0468 7.38353,13.4359C7.8192,13.8251 8.53932,13.774 9.29212,13.1016L17.1203,6.10982C18.3834,4.9817 18.6915,3.12387 17.6023,2.15102C16.5131,1.17818 14.4124,1.43494 13.1493,2.56306L3.47917,11.2C1.45826,13.0049 1.08496,15.9738 2.82771,17.5303C4.57047,19.0869 7.81192,18.6798 9.83288,16.8748L18.582,9.06041C19.3869,8.3794 20.5268,9.39748 19.7733,10.1244L11.0242,17.9388Z" style="fill:rgb(94,94,94);fill-rule:nonzero;"/>
    </g>
</svg>
