<?xml version="1.0" encoding="UTF-8" standalone="no"?>
<svg width="6px" height="10px" viewBox="0 0 6 10" version="1.1" xmlns="http://www.w3.org/2000/svg" xmlns:xlink="http://www.w3.org/1999/xlink">
    <!-- Generator: Sketch 40.1 (33804) - http://www.bohemiancoding.com/sketch -->
    <title>menu icon</title>
    <desc>Created with Sketch.</desc>
    <defs></defs>
    <g id="Page-1" stroke="none" stroke-width="1" fill="none" fill-rule="evenodd" fill-opacity="0.5">
        <g id="05.-Login-Screen-Portal" transform="translate(-506.000000, -44.000000)" fill="#FFFFFF">
            <g id="Group" transform="translate(506.000000, 39.000000)">
                <path d="M-1.833,7.74138614 L-1.779,7.80441897 L2.301,12.5018656 C2.439,12.6609484 2.646,12.76 2.877,12.76 C3.108,12.76 3.315,12.6579468 3.453,12.5018656 L7.53,7.81342366 L7.599,7.73538301 C7.65,7.66034393 7.68,7.57029703 7.68,7.474247 C7.68,7.213111 7.458,7 7.182,7 L7.182,7 L-1.422,7 L-1.422,7 C-1.698,7 -1.92,7.213111 -1.92,7.474247 C-1.92,7.57329859 -1.887,7.66634706 -1.833,7.74138614 L-1.833,7.74138614 Z" id="menu-icon" transform="translate(2.880000, 9.880000) rotate(-270.000000) translate(-2.880000, -9.880000) "></path>
            </g>
        </g>
    </g>
</svg>