<?xml version="1.0" encoding="utf-8"?>
<!-- Generator: Adobe Illustrator 19.2.1, SVG Export Plug-In . SVG Version: 6.00 Build 0)  -->
<svg version="1.1" id="Layer_1" xmlns="http://www.w3.org/2000/svg" xmlns:xlink="http://www.w3.org/1999/xlink" x="0px" y="0px"
	 viewBox="0 0 21 22.8" style="enable-background:new 0 0 21 22.8;" xml:space="preserve">
<style type="text/css">
	.st0{fill:#717171;}
</style>
<path class="st0" d="M20.8,5V2.6c0-0.6-0.5-1.2-1.1-1.2h-1.3v2.6c0,0.1,0,0.2,0,0.2c0,0.1,0,0.1,0,0.2c0,0.1,0,0.1-0.1,0.2
	c-0.1,0.2-0.2,0.4-0.3,0.5c0,0-0.1,0.1-0.1,0.1l0,0c-0.1,0.1-0.2,0.2-0.2,0.2c-0.1,0.1-0.2,0.1-0.2,0.1c-0.1,0-0.1,0.1-0.2,0.1
	c-0.1,0-0.1,0-0.2,0.1c-0.1,0-0.1,0-0.2,0c-0.1,0-0.2,0-0.2,0h-1.6c-0.1,0-0.2,0-0.2,0c-0.1,0-0.1,0-0.2,0c-0.1,0-0.1,0-0.2-0.1
	c-0.1,0-0.1-0.1-0.2-0.1c-0.1,0-0.2-0.1-0.2-0.2c-0.1-0.1-0.2-0.1-0.2-0.2c0,0-0.1-0.1-0.2-0.2c-0.1-0.2-0.2-0.3-0.3-0.5
	c0-0.1,0-0.1-0.1-0.2c0-0.1,0-0.1,0-0.2c0-0.1,0-0.2,0-0.2V1.4H7.7c0,0.9,0,1.7,0,2.6c0,0.1,0,0.2,0,0.2s0,0.1,0,0.2
	c0,0.1,0,0.1-0.1,0.2c0,0.1-0.1,0.2-0.1,0.2c0,0.1-0.1,0.2-0.2,0.2c0,0.1-0.1,0.2-0.2,0.2l0,0C7.1,5.5,7.1,5.5,7,5.6
	C6.9,5.7,6.7,5.8,6.5,5.8c-0.1,0-0.1,0-0.2,0.1c-0.1,0-0.1,0-0.2,0C6.1,6,6,6,5.9,6H4.4c-0.1,0-0.2,0-0.2,0c-0.1,0-0.1,0-0.2,0
	c-0.1,0-0.1,0-0.2-0.1C3.6,5.8,3.4,5.7,3.3,5.6C3.2,5.5,3.1,5.5,3.1,5.4l0,0C3,5.3,3,5.2,2.9,5.2C2.8,5.1,2.8,5,2.8,4.9
	c0-0.1-0.1-0.1-0.1-0.2s0-0.1-0.1-0.2c0-0.1,0-0.1,0-0.2c0-0.1,0-0.2,0-0.2c0-0.9,0-1.7,0-2.6H1.3C0.7,1.4,0.2,2,0.2,2.6V5
	c0,0.4,0.2,0.8,0.5,1C0.4,6.4,0.2,6.9,0.2,7.5v13c0,1.2,0.8,2.1,1.9,2.1h16.9c1,0,1.9-0.9,1.9-2.1v-13c0-0.6-0.2-1.1-0.5-1.5v0
	C20.6,5.8,20.8,5.4,20.8,5z M6.2,20.1c-1.1,0-2.3,0-3.4,0c0,0-0.1,0-0.1,0c-0.2,0-0.4-0.2-0.4-0.4c0-0.1,0-0.1,0-0.2
	c0-0.8,0-1.7,0-2.5h4V20.1z M6.2,16h-4c0-1.3,0-2.7,0-4h4V16z M6.2,11h-4c0-0.8,0-1.6,0-2.4c0-0.1,0-0.1,0-0.2
	c0.1-0.2,0.2-0.3,0.3-0.4c0.1,0,0.1,0,0.2,0C3.9,8,5.1,8,6.2,7.9V11z M13.8,20.2c-2.2,0-4.4,0-6.6,0V17h6.6V20.2z M13.8,16H7.2v-4
	h6.6V16z M13.8,11H7.2v-3c2.2,0,4.4,0,6.6,0V11z M14.8,7.9C15.9,8,17,8,18.1,8c0.1,0,0.1,0,0.2,0c0.1,0.1,0.3,0.2,0.3,0.4
	c0,0.1,0,0.1,0,0.2c0,0.8,0,1.6,0,2.4h-3.9V7.9z M18.7,19.5c0,0.1,0,0.1,0,0.2c-0.1,0.2-0.2,0.4-0.4,0.4c0,0,0,0-0.1,0
	c-1.1,0-2.2,0-3.3,0V17h3.9C18.7,17.8,18.7,18.7,18.7,19.5z M18.7,16h-3.9v-4h3.9C18.7,13.3,18.7,14.7,18.7,16z M17,0.6V4
	c0,0.2-0.2,0.3-0.3,0.3h-1.6c-0.2,0-0.3-0.2-0.3-0.3V0.6c0-0.2,0.1-0.3,0.3-0.3h1.5C16.8,0.3,17,0.4,17,0.6z M6.2,0.6V4
	c0,0.2-0.1,0.3-0.3,0.3H4.4C4.2,4.4,4,4.2,4,4V0.6c0-0.2,0.2-0.4,0.3-0.4h1.5C6.1,0.3,6.2,0.4,6.2,0.6z"/>
</svg>
