<?xml version="1.0" standalone="no"?>
<!DOCTYPE svg PUBLIC "-//W3C//DTD SVG 1.1//EN" "http://www.w3.org/Graphics/SVG/1.1/DTD/svg11.dtd">
<svg width="100%" height="100%" viewBox="0 0 22 22" version="1.1" xmlns="http://www.w3.org/2000/svg" xmlns:xlink="http://www.w3.org/1999/xlink" xml:space="preserve" style="fill-rule:evenodd;clip-rule:evenodd;stroke-linejoin:round;stroke-miterlimit:1.41421;">
    <g id="Layer1">
        <path d="M18.5387,21.6141C15.4486,22.9207 10.0961,20.844 5.6582,16.377C1.22029,11.9098 -0.842801,6.52207 0.45533,3.41166C1.29576,1.39794 2.55688,0.371384 2.55688,0.371384C3.04882,-0.123795 3.84641,-0.123795 4.33835,0.371384L8.49514,4.55549C8.98701,5.05066 8.98701,5.85349 8.49514,6.34866L6.71362,8.14182C6.22901,8.62965 5.44776,8.63691 4.95433,8.16359L4.95597,8.16581C4.34569,10.7516 5.64057,11.7129 7.96618,14.0538C10.2918,16.3947 11.1705,17.6213 13.7393,17.007L13.7657,17.0269C13.3489,16.5287 13.3735,15.7837 13.8395,15.3146L15.6209,13.5214C16.1129,13.0263 16.9105,13.0263 17.4024,13.5214L21.5591,17.7055C22.0511,18.2007 22.0511,19.0035 21.5591,19.4987C21.5591,19.4987 20.5859,20.7485 18.5387,21.6141Z" style="fill:white;"/>
    </g>
</svg>
