<?xml version="1.0" encoding="utf-8"?>
<!-- Generator: Adobe Illustrator 19.1.0, SVG Export Plug-In . SVG Version: 6.00 Build 0)  -->
<svg version="1.1" id="Layer_1" xmlns="http://www.w3.org/2000/svg" xmlns:xlink="http://www.w3.org/1999/xlink" x="0px" y="0px"
	 viewBox="0 0 1000 1000" style="enable-background:new 0 0 1000 1000;" xml:space="preserve">
<style type="text/css">
	.st0{fill:#E84B40;}
</style>
<g transform="matrix(0.915659,0.915659,-0.853553,0.853553,25.3022,8.2311)">
	<rect x="12.8" y="-23.3" class="st0" width="1030" height="66.7"/>
</g>
<path class="st0" d="M698,237.9v261.3L353.8,155h261.3C660.8,155,698,192.2,698,237.9z M931.3,221.7l-200,166.7v144.2L953.8,755H998
	V221.7H931.3z M698,633.5L219.6,155L65.1,0.5L-2,67.7L85.3,155h-4.4C35.2,155-2,192.2-2,237.9v534.2c0,45.8,37.2,82.9,82.9,82.9
	h534.2c45.8,0,82.9-37.2,82.9-82.9v-4.4l232.9,232.9l67.1-67.1L698,633.5z"/>
</svg>
