<?xml version="1.0" encoding="UTF-8"?>
<svg width="20px" height="20px" viewBox="0 0 20 20" version="1.1" xmlns="http://www.w3.org/2000/svg" xmlns:xlink="http://www.w3.org/1999/xlink">
    <!-- Generator: Sketch 53.2 (72643) - https://sketchapp.com -->
    <title>ic_camera_disabled</title>
    <desc>Created with Sketch.</desc>
    <defs>
        <path d="M14,12.66 L4.432,3.09 L1.342,-4.97379915e-14 L0,1.344 L1.746,3.09 L1.658,3.09 C0.744,3.09 0,3.834 0,4.748 L0,15.432 C0,16.348 0.744,17.09 1.658,17.09 L12.342,17.09 C13.258,17.09 14,16.346 14,15.432 L14,15.344 L18.658,20.002 L20,18.66 L14,12.66 Z M18.666,4.424 L14.666,7.758 L14.666,10.642 L19.116,15.09 L20,15.09 L20,4.424 L18.666,4.424 Z M14,4.748 L14,9.974 L7.116,3.09 L12.342,3.09 C13.256,3.09 14,3.834 14,4.748 L14,4.748 Z" id="path-1"></path>
    </defs>
    <g id="Version-9" stroke="none" stroke-width="1" fill="none" fill-rule="evenodd">
        <g id="B01" transform="translate(-799.000000, -859.000000)">
            <g id="Screens/In-call/Default-incall">
                <g id="Group-2" transform="translate(786.000000, 846.000000)">
                    <g id="Icon" transform="translate(13.000000, 13.000000)">
                        <mask id="mask-2" fill="white">
                            <use xlink:href="#path-1"></use>
                        </mask>
                        <use id="ic_camera_disabled" fill="#464646" xlink:href="#path-1"></use>
                    </g>
                </g>
            </g>
        </g>
    </g>
</svg>