<?xml version="1.0" encoding="UTF-8"?>
<svg width="16px" height="16px" viewBox="0 0 16 16" version="1.1" xmlns="http://www.w3.org/2000/svg" xmlns:xlink="http://www.w3.org/1999/xlink">
    <!-- Generator: sketchtool 53.2 (72643) - https://sketchapp.com -->
    <title>D76AE12F-0786-465D-8DC3-E064ED4CD8FE</title>
    <desc>Created with sketchtool.</desc>
    <g id="Light" stroke="none" stroke-width="1" fill="none" fill-rule="evenodd">
        <g transform="translate(-1763.000000, -3204.000000)" fill="#FFFFFF" id="Forms">
            <g transform="translate(596.000000, 3009.000000)">
                <g id="3-Light/4-Forms/Checkbox/1-Regular/2-Checkbox-selected-white" transform="translate(1167.000000, 193.000000)">
                    <g id="Checkbox-selected">
                        <g id="Icons/16/Checkbox---on" transform="translate(0.000000, 2.000000)">
                            <path d="M14.2222222,0 L1.77777778,0 C0.8,0 0,0.8 0,1.77777778 L0,14.2222222 C0,15.2 0.8,16 1.77777778,16 L14.2222222,16 C15.2,16 16,15.2 16,14.2222222 L16,1.77777778 C16,0.8 15.2,0 14.2222222,0 L14.2222222,0 Z M2,8.67307692 L3.2,7.46153846 L6.28571429,10.5769231 L12.8,4 L14,5.21153846 L6.28571429,13 L2,8.67307692 Z" id="Shape"></path>
                        </g>
                    </g>
                </g>
            </g>
        </g>
    </g>
</svg>