<?xml version="1.0" encoding="UTF-8" standalone="no"?>
<!DOCTYPE svg PUBLIC "-//W3C//DTD SVG 1.1//EN" "http://www.w3.org/Graphics/SVG/1.1/DTD/svg11.dtd">
<svg width="100%" height="100%" viewBox="0 0 30 30" version="1.1" xmlns="http://www.w3.org/2000/svg" xmlns:xlink="http://www.w3.org/1999/xlink" xml:space="preserve" style="fill-rule:evenodd;clip-rule:evenodd;stroke-linejoin:round;stroke-miterlimit:1.41421;">
    <g transform="matrix(0.589666,-0.589666,0.867729,0.867729,0.717221,2.62415)">
        <rect x="0" y="0" width="2.225" height="30" style="fill:white;"/>
    </g>
    <path d="M4.353,4.26L5.669,5.576C5.644,5.951 5.657,6.373 5.708,6.844C5.885,8.479 6.489,10.31 6.928,11.545C7.805,14.013 9.391,15.854 10.969,16.234C11.411,16.341 11.743,16.41 12.025,16.453C12.025,16.453 12.597,16.51 12.752,16.512L12.764,16.512C12.914,16.51 13.487,16.453 13.487,16.453C13.769,16.41 14.102,16.341 14.543,16.234C14.951,16.136 15.359,15.94 15.755,15.662L16.811,16.718C16.213,17.161 15.579,17.472 14.932,17.628C14.511,17.73 14.033,17.84 13.551,17.902L13.551,24.28L13.567,24.572C13.554,24.628 13.592,24.996 14.048,25.56C14.796,26.486 16.337,27.534 18.215,27.433C19.843,27.347 21.253,26.441 21.875,25.635C22.1,25.342 22.152,25.15 22.164,25.071L22.164,24.994L22.165,24.788L22.165,24.718L22.186,22.093L23.852,23.759L23.843,24.917C23.849,25.001 23.848,25.085 23.842,25.166L23.809,25.399L23.772,25.543C23.679,25.869 23.5,26.204 23.239,26.543C22.392,27.641 20.489,28.876 18.31,28.991C18.197,28.997 18.082,29 17.969,29C15.577,29 13.639,27.651 12.706,26.496C12.337,26.04 11.991,25.577 11.872,25.143L11.872,17.89C11.47,17.833 11.057,17.743 10.581,17.628C8.474,17.121 6.51,14.963 5.457,11.997C4.97,10.627 4.305,8.594 4.147,6.762C4.062,5.784 4.131,4.948 4.353,4.26ZM23.064,16.421C23.491,16.421 23.838,16.744 23.838,17.141L23.838,17.283L25.008,17.283L25.008,20.352C25.008,20.863 24.589,21.285 24.054,21.336L20.877,18.16L20.877,17.283L22.176,17.283L22.176,17.141C22.176,16.744 22.523,16.421 22.95,16.421L23.064,16.421ZM17.08,14.363C17.678,13.592 18.2,12.629 18.585,11.545C19.024,10.31 19.628,8.479 19.804,6.844C19.979,5.235 19.709,4.183 19.002,3.718C18.553,3.423 18.339,3.153 17.458,3.15C17.211,3.766 16.582,4.18 15.856,4.18C14.913,4.18 14.146,3.467 14.146,2.59C14.146,1.713 14.913,1 15.856,1C16.437,1 16.967,1.269 17.282,1.712C18.705,1.673 19.274,2.132 19.897,2.543C22.452,4.225 21.212,8.744 20.056,11.997C19.582,13.331 18.923,14.503 18.15,15.433L17.08,14.363ZM5.409,2.691C5.475,2.639 5.544,2.59 5.615,2.543C6.238,2.132 6.808,1.675 8.23,1.712C8.545,1.269 9.076,1 9.656,1C10.599,1 11.367,1.713 11.367,2.59C11.367,3.467 10.599,4.18 9.656,4.18C8.931,4.18 8.302,3.766 8.055,3.15C7.173,3.153 6.959,3.423 6.511,3.718C6.496,3.728 6.481,3.738 6.466,3.749L5.409,2.691Z" style="fill:white;"/>
</svg>
