<?xml version="1.0" standalone="no"?>
<!DOCTYPE svg PUBLIC "-//W3C//DTD SVG 1.1//EN" "http://www.w3.org/Graphics/SVG/1.1/DTD/svg11.dtd">
<svg width="100%" height="100%" viewBox="0 0 20 20" version="1.1" xmlns="http://www.w3.org/2000/svg" xmlns:xlink="http://www.w3.org/1999/xlink" xml:space="preserve" style="fill-rule:evenodd;clip-rule:evenodd;stroke-linejoin:round;stroke-miterlimit:1.41421;">
    <g id="Layer1">
        <path id="Layer32" d="M17.634,10.975C17.6751,10.655 17.7059,10.33 17.7059,10C17.7059,9.67002 17.6751,9.34499 17.634,9.02499L19.8077,7.37006C20.003,7.22004 20.0595,6.95002 19.931,6.72998L17.8754,3.265C17.747,3.05 17.4798,2.96 17.2485,3.05L14.6893,4.055C14.16,3.66 13.5793,3.325 12.9523,3.07L12.5669,0.419992C12.5207,0.184998 12.3099,-1.62093e-14 12.053,-1.62093e-14L7.94184,-1.62093e-14C7.68483,-1.62093e-14 7.47419,0.184998 7.43307,0.419992L7.04772,3.07C6.42071,3.325 5.83998,3.655 5.31071,4.055L2.75151,3.05C2.52026,2.965 2.25304,3.05 2.12457,3.265L0.0689879,6.72998C-0.0594838,6.94499 -0.00296128,7.21493 0.192323,7.37006L2.36096,9.02499C2.31985,9.34499 2.28901,9.67002 2.28901,10C2.28901,10.33 2.31985,10.655 2.36096,10.975L0.192323,12.6299C-0.00296128,12.78 -0.0594838,13.05 0.0689879,13.27L2.12457,16.735C2.25304,16.95 2.52026,17.04 2.75151,16.95L5.31071,15.945C5.83998,16.34 6.42071,16.675 7.04772,16.93L7.43307,19.58C7.47419,19.815 7.68483,20 7.94184,20L12.053,20C12.3099,20 12.5207,19.815 12.5618,19.58L12.9472,16.93C13.5742,16.675 14.1549,16.3451 14.6841,15.945L17.2434,16.95C17.4746,17.035 17.7418,16.95 17.8702,16.735L19.9259,13.27C20.0543,13.055 19.9979,12.7851 19.8026,12.6299L17.634,10.975ZM9.9975,13.5C8.00871,13.5 6.40019,11.935 6.40019,10C6.40019,8.06499 8.00871,6.49996 9.9975,6.49996C11.9862,6.49996 13.5947,8.06499 13.5947,10C13.5947,11.935 11.9862,13.5 9.9975,13.5Z" style="fill:rgb(76,76,76);fill-rule:nonzero;"/>
    </g>
</svg>
