<?xml version="1.0" encoding="utf-8"?>
<!-- Generator: Adobe Illustrator 21.0.2, SVG Export Plug-In . SVG Version: 6.00 Build 0)  -->
<svg version="1.1" id="Layer_1" xmlns="http://www.w3.org/2000/svg" xmlns:xlink="http://www.w3.org/1999/xlink" x="0px" y="0px"
	 viewBox="0 0 17 17" style="enable-background:new 0 0 17 17;" xml:space="preserve">
<style type="text/css">
	.st0{fill:#FFFFFF;}
</style>
<path class="st0" d="M10.8,2.8l3.4,3.4l-3.6,3.6L7.2,6.4L10.8,2.8z M9.9,14.5c1.3-1.3,1.3-3.5,0-4.9L7.3,7.1C6,5.7,3.8,5.7,2.5,7.1
	l0,0L9.9,14.5L9.9,14.5z M6.3,11.5l-0.8-0.8l-4.9,4.9l-0.4,1.2l1.2-0.4L6.3,11.5z M16.8,5.9l-5.7-5.7l0,0c-0.3,0.3-0.5,0.7-0.5,1.2
	c0,0.4,0.2,0.8,0.5,1.2l3.4,3.4c0.3,0.3,0.7,0.5,1.2,0.5C16.1,6.4,16.5,6.2,16.8,5.9L16.8,5.9z"/>
</svg>
