<?xml version="1.0" encoding="utf-8"?>
<!-- Generator: Adobe Illustrator 21.0.2, SVG Export Plug-In . SVG Version: 6.00 Build 0)  -->
<svg version="1.1" id="Layer_1" xmlns="http://www.w3.org/2000/svg" xmlns:xlink="http://www.w3.org/1999/xlink" x="0px" y="0px"
	 viewBox="0 0 25 25" style="enable-background:new 0 0 25 25;" xml:space="preserve">
<style type="text/css">
	.st0{fill:#FFFFFF;}
</style>
<path class="st0" d="M12.5,2C6.7,2,2,6.7,2,12.5C2,18.3,6.7,23,12.5,23S23,18.3,23,12.5C23,6.7,18.3,2,12.5,2 M12.5,24.5
	c-6.6,0-12-5.4-12-12c0-6.6,5.4-12,12-12c6.6,0,12,5.4,12,12C24.5,19.1,19.1,24.5,12.5,24.5 M14.3,8.3l-1.7-1.8l-1.7,1.8L9.6,7.1
	l2.9-3.1l2.9,3.1L14.3,8.3z M12.4,14.7c-1.2,0-2.2-1-2.2-2.3s1-2.2,2.2-2.2c1.2,0,2.2,1,2.2,2.2S13.7,14.7,12.4,14.7L12.4,14.7z
	 M7.1,15.5L4,12.6l3.1-2.9l1.3,1.2l-1.8,1.7l1.8,1.7L7.1,15.5z M18.3,15.5L17,14.3l1.8-1.7L17,10.8l1.3-1.2l3.1,2.9L18.3,15.5z
	 M12.7,21.1L9.7,18l1.2-1.3l1.7,1.8l1.7-1.8l1.2,1.3L12.7,21.1z"/>
</svg>
