<?xml version="1.0" standalone="no"?>
<!DOCTYPE svg PUBLIC "-//W3C//DTD SVG 1.1//EN" "http://www.w3.org/Graphics/SVG/1.1/DTD/svg11.dtd">
<svg width="300px" height="300px" version="1.1" xmlns="http://www.w3.org/2000/svg" xmlns:xlink="http://www.w3.org/1999/xlink" xml:space="preserve" style="fill-rule:evenodd;clip-rule:evenodd;stroke-linejoin:round;stroke-miterlimit:1.41421;">
    <g>
        <g id="Layer10">
            <g>
                <path d="M100.781,282.373L100.781,230.928L62.5,230.928C38.3375,230.928 18.75,209.278 18.75,182.571L18.75,85.8571C18.75,59.1502 38.3375,37.5 62.5,37.5L237.5,37.5C261.662,37.5 281.25,59.1502 281.25,85.8571L281.25,182.571C281.25,209.278 261.662,230.928 237.5,230.928L182.268,230.928L100.781,282.373ZM223.828,111.328C237.42,111.328 248.438,122.346 248.438,135.938C248.438,149.529 237.42,160.547 223.828,160.547C210.237,160.547 199.219,149.529 199.219,135.938C199.219,122.346 210.237,111.328 223.828,111.328ZM76.1719,111.328C89.7633,111.328 100.781,122.346 100.781,135.938C100.781,149.529 89.7633,160.547 76.1719,160.547C62.5805,160.547 51.5625,149.529 51.5625,135.938C51.5625,122.346 62.5805,111.328 76.1719,111.328ZM150,111.328C163.591,111.328 174.609,122.346 174.609,135.938C174.609,149.529 163.591,160.547 150,160.547C136.409,160.547 125.391,149.529 125.391,135.938C125.391,122.346 136.409,111.328 150,111.328Z" style="fill:white;"/>
            </g>
        </g>
    </g>
</svg>
