<?xml version="1.0" encoding="utf-8"?>
<!-- Generator: Adobe Illustrator 19.2.1, SVG Export Plug-In . SVG Version: 6.00 Build 0)  -->
<svg version="1.1" id="Layer_1" xmlns="http://www.w3.org/2000/svg" xmlns:xlink="http://www.w3.org/1999/xlink" x="0px" y="0px"
	 viewBox="0 0 490 617" style="enable-background:new 0 0 490 617;" xml:space="preserve">
<style type="text/css">
	.st0{fill:#717171;}
</style>
<path class="st0" d="M44,542.3c0,36.8,29.8,66.7,66.7,66.7h266.7c36.8,0,66.7-29.8,66.7-66.7v-400H44V542.3z M336.4,538.8V201.1
	h33.3v337.7C358.6,538.8,347.5,538.8,336.4,538.8z M227.3,537.2V199.5h33.3v337.7C249.6,537.2,238.4,537.2,227.3,537.2z
	 M118.3,535.7V197.9h33.3v337.7C140.5,535.7,129.4,535.7,118.3,535.7z M477.3,42.3H360.7L327.3,9H160.7l-33.3,33.3H10.7V109h466.7
	V42.3z"/>
</svg>
