<?xml version="1.0" encoding="utf-8"?>
<!-- Generator: Adobe Illustrator 19.2.0, SVG Export Plug-In . SVG Version: 6.00 Build 0)  -->
<svg version="1.1" id="Layer_1" xmlns="http://www.w3.org/2000/svg" xmlns:xlink="http://www.w3.org/1999/xlink" x="0px" y="0px"
	 viewBox="0 0 48 48" style="enable-background:new 0 0 48 48;" xml:space="preserve">
<style type="text/css">
	.st0{fill:#FFFDFD;}
</style>
<path class="st0" d="M9,15.9c0-2,1.7-3.7,3.7-3.7s3.7,1.6,3.7,3.7v7.4c0,2-1.6,3.7-3.7,3.7S9,25.3,9,23.3V15.9z M13.9,31.6v4h-2.5
	v-4C7.4,31,4,27.5,4,23.3h2.1c0,3.7,3.1,6.3,6.5,6.3s6.5-2.6,6.5-6.3h2.1C21.3,27.5,17.9,31,13.9,31.6z M34.1,41.4l-4.9-4.9h-3.9
	v-5.9h3.9l4.9-4.9V41.4z M36.1,42.2v-2c2.8-0.8,4.9-3.5,4.9-6.6s-2.1-5.7-4.9-6.6v-2c3.9,0.9,6.9,4.4,6.9,8.6S40,41.3,36.1,42.2z
	 M36.1,37.5v-7.9c1.5,0.7,2.5,2.2,2.5,4C38.5,35.3,37.5,36.8,36.1,37.5z M41.9,17.5l-4.1-4.1V17c0,0.6-0.5,1-1,1H24.7
	c-0.6,0-1-0.5-1-1V6.8c0-0.6,0.5-1,1-1h12.2c0.6,0,1,0.5,1,1v3.5L42,6.2L41.9,17.5L41.9,17.5z"/>
</svg>
