<?xml version="1.0" encoding="utf-8"?>
<!-- Generator: Adobe Illustrator 20.1.0, SVG Export Plug-In . SVG Version: 6.00 Build 0)  -->
<svg version="1.1" id="Layer_1" xmlns="http://www.w3.org/2000/svg" xmlns:xlink="http://www.w3.org/1999/xlink" x="0px" y="0px"
	 viewBox="0 0 1000 1000" style="enable-background:new 0 0 1000 1000;" xml:space="preserve">
<style type="text/css">
	.st0{fill:#FFFFFF;}
</style>
<path class="st0" d="M688.4,248.8H311.6c-34.6,0-62.8,28.2-62.8,62.8v376.8c0,34.6,28.2,62.8,62.8,62.8h376.8
	c34.6,0,62.8-28.2,62.8-62.8V311.6C751.2,277,723,248.8,688.4,248.8z M311.6,688.4l94.2-125.6l63.8,85.1l93.3-116.5l125.6,157H311.6
	L311.6,688.4z M820,100h-80H260h-80c-44,0-80,36-80,80v80v480v80c0,44,36,80,80,80h80h480h80c44,0,80-36,80-80v-80V260v-80
	C900,136,864,100,820,100z M820,740v80h-80H260h-80v-80V260v-80h80h480h80v80V740z"/>
</svg>
