<?xml version="1.0" standalone="no"?>
<!DOCTYPE svg PUBLIC "-//W3C//DTD SVG 1.1//EN" "http://www.w3.org/Graphics/SVG/1.1/DTD/svg11.dtd">
<svg width="100%" height="100%" viewBox="0 0 20 20" version="1.1" xmlns="http://www.w3.org/2000/svg" xmlns:xlink="http://www.w3.org/1999/xlink" xml:space="preserve" style="fill-rule:evenodd;clip-rule:evenodd;stroke-linejoin:round;stroke-miterlimit:1.41421;">
    <g id="Layer19">
        <g>
            <path d="M15,11.394C14.4227,13.8131 12.403,15.5991 10.0001,15.5991C7.59717,15.5991 5.57745,13.8131 5.00012,11.394C6.30968,12.4377 8.06754,12.6364 10.0001,12.6364C11.9326,12.6364 13.6905,12.4377 15,11.394ZM7.45988,5.6136C8.28426,5.6136 8.95256,6.50955 8.95256,7.61476C8.95256,8.71997 8.28426,9.61592 7.45988,9.61592C6.6355,9.61592 5.96721,8.71997 5.96721,7.61476C5.96721,6.50955 6.6355,5.6136 7.45988,5.6136ZM12.5403,5.6136C13.3647,5.6136 14.033,6.50955 14.033,7.61476C14.033,8.71997 13.3647,9.61592 12.5403,9.61592C11.7159,9.61592 11.0476,8.71997 11.0476,7.61476C11.0476,6.50955 11.7159,5.6136 12.5403,5.6136Z" style="fill:rgb(103,103,103);"/>
            <path d="M10.0001,20C9.53195,19.997 9.06541,19.9679 8.60158,19.903C7.6646,19.7719 6.74712,19.5065 5.88475,19.1166C3.86902,18.2053 2.18357,16.6189 1.14999,14.6599C0.71159,13.829 0.391727,12.9361 0.203325,12.0153C-0.0175637,10.9358 -0.0584293,9.81943 0.0805038,8.72636C0.210249,7.70558 0.499054,6.70633 0.934245,5.77424C1.4271,4.71864 2.10591,3.7521 2.92907,2.92892C3.81022,2.04777 4.85486,1.33309 5.99585,0.833942C7.21595,0.300183 8.53988,0.017651 9.87084,0.000808825C10.9615,-0.0129923 12.0531,0.149858 13.0909,0.486794C14.0523,0.798929 14.9648,1.25889 15.7889,1.84494C17.5293,3.08258 18.8527,4.87484 19.5132,6.90919C19.8501,7.94674 20.013,9.03845 19.9992,10.1292C19.9849,11.2565 19.7808,12.3798 19.3932,13.4383C18.9636,14.6118 18.3111,15.7005 17.4824,16.6345C16.6031,17.6254 15.5282,18.4392 14.3355,19.0139C13.4854,19.4235 12.5775,19.7109 11.6469,19.8651C11.1871,19.9412 10.7238,19.982 10.2582,19.9967C10.1287,19.9992 10.1292,19.9992 10.0001,20ZM10.0001,17.9166C10.3719,17.9143 10.7426,17.8912 11.111,17.8396C11.8522,17.7359 12.578,17.5261 13.2603,17.2176C14.8279,16.5089 16.1447,15.2841 16.9669,13.7706C17.3207,13.1192 17.5819,12.4178 17.7397,11.6931C17.9324,10.8076 17.9714,9.88854 17.8571,8.98958C17.7586,8.21484 17.5443,7.45574 17.2227,6.74432C16.8424,5.90324 16.3136,5.13117 15.6692,4.47124C14.9796,3.76501 14.1591,3.18877 13.2603,2.78236C12.301,2.34866 11.2575,2.1126 10.2056,2.08597C9.30697,2.06321 8.40561,2.19101 7.55021,2.46872C6.75895,2.72562 6.00972,3.10919 5.33729,3.59962C4.02334,4.55795 3.0168,5.91878 2.49469,7.4617C2.22953,8.2453 2.0905,9.06996 2.08004,9.89718C2.0687,10.7931 2.20749,11.6896 2.49469,12.5383C2.81205,13.4761 3.30825,14.3509 3.94703,15.1063C4.62467,15.9078 5.46049,16.5728 6.39398,17.0509C7.0565,17.3903 7.76675,17.6347 8.49758,17.7748C8.85878,17.844 9.22352,17.8853 9.59053,17.9063C9.72708,17.9123 9.86341,17.9158 10.0001,17.9166Z" style="fill:rgb(101,101,101);fill-rule:nonzero;"/>
        </g>
    </g>
</svg>
