<?xml version="1.0" standalone="no"?>
<!DOCTYPE svg PUBLIC "-//W3C//DTD SVG 1.1//EN" "http://www.w3.org/Graphics/SVG/1.1/DTD/svg11.dtd">
<svg width="100%" height="100%" viewBox="0 0 300 300" version="1.1" xmlns="http://www.w3.org/2000/svg" xmlns:xlink="http://www.w3.org/1999/xlink" xml:space="preserve" style="fill-rule:evenodd;clip-rule:evenodd;stroke-linejoin:round;stroke-miterlimit:1.41421;">
    <g transform="matrix(1,0,0,1,349,-351)">
        <g transform="matrix(0.944693,0,0,1.14373,25.0048,-72.0652)">
            <path d="M-213.6,369.9L-213.6,632.2L-113,603.7L-113,399.1L-213.6,369.9ZM-180.603,514.1C-185.803,514.1 -188.654,509.7 -190.154,503.5L-197.7,503.5L-197.7,495.4L-189.762,495.4C-188.562,488.8 -186.006,483.9 -180.506,483.9C-174.106,483.9 -169.614,490.6 -169.614,499C-169.614,507.2 -174.303,514.1 -180.603,514.1Z" style="fill:black;fill-rule:nonzero;"/>
        </g>
        <g transform="matrix(1.19297,0,0,1.19297,-338.234,322.157)">
            <path d="M126.134,150.105L84.05,192.024L72.535,180.546L93.705,158.627L1.757,158.627L1.757,141.473L93.977,141.473L72.451,119.948L84.05,107.803L126.243,149.832L126.161,149.914L126.243,149.996L126.207,150.032L126.243,150.05L126.134,150.105Z" style="fill:black;"/>
        </g>
        <g transform="matrix(1.19297,0,0,1.19297,-363.287,321.995)">
            <path d="M82.3,174.565L82.3,243.8L140.243,243.8L140.243,262.8L64,262.8L64,174.565L82.3,174.565ZM64,158.471L64,141.643L82.3,141.643L82.3,158.471L64,158.471ZM82.3,125.549L64,125.549L64,36.2L140.243,36.2L140.243,54.5L82.3,54.5L82.3,125.549Z" style="fill:black;"/>
        </g>
    </g>
</svg>
