<?xml version="1.0" encoding="utf-8"?>
<!-- Generator: Adobe Illustrator 21.0.2, SVG Export Plug-In . SVG Version: 6.00 Build 0)  -->
<svg version="1.1" id="Layer_1" xmlns="http://www.w3.org/2000/svg" xmlns:xlink="http://www.w3.org/1999/xlink" x="0px" y="0px"
	 viewBox="0 0 29 28" style="enable-background:new 0 0 29 28;" xml:space="preserve">
<style type="text/css">
	.st0{fill:#FFFFFF;}
</style>
<path id="Shape" class="st0" d="M14.5,8.9c-2.8,0-5.1,2.3-5.1,5.1s2.3,5.1,5.1,5.1s5.1-2.3,5.1-5.1S17.3,8.9,14.5,8.9L14.5,8.9z
	 M25.8,12.7C25.2,7.4,21,3.2,15.8,2.7V0h-2.5v2.7C7.9,3.2,3.7,7.4,3.2,12.7H0.5v2.5h2.7c0.6,5.3,4.8,9.5,10.1,10.1V28h2.5v-2.7
	c5.3-0.6,9.5-4.8,10.1-10.1h2.7v-2.5H25.8L25.8,12.7z M14.5,22.9c-5,0-8.9-3.9-8.9-8.9s3.9-8.9,8.9-8.9S23.4,9,23.4,14
	S19.5,22.9,14.5,22.9L14.5,22.9z"/>
</svg>
