<?xml version="1.0" encoding="utf-8"?>
<!-- Generator: Adobe Illustrator 21.0.2, SVG Export Plug-In . SVG Version: 6.00 Build 0)  -->
<svg version="1.1" id="Layer_1" xmlns="http://www.w3.org/2000/svg" xmlns:xlink="http://www.w3.org/1999/xlink" x="0px" y="0px"
	 viewBox="0 0 23 23" style="enable-background:new 0 0 23 23;" xml:space="preserve">
<style type="text/css">
	.st0{opacity:0.15;fill:#B4C3D0;}
	.st1{fill:#B4C3D0;}
</style>
<g id="background">
	<path class="st0" d="M4,22.5c-1.9,0-3.5-1.6-3.5-3.5V4c0-1.9,1.6-3.5,3.5-3.5h15c1.9,0,3.5,1.6,3.5,3.5v15c0,1.9-1.6,3.5-3.5,3.5H4
		z"/>
	<path class="st1" d="M19,1c1.7,0,3,1.3,3,3v15c0,1.7-1.3,3-3,3H4c-1.7,0-3-1.3-3-3V4c0-1.7,1.3-3,3-3H19 M19,0H4C1.8,0,0,1.8,0,4
		v15c0,2.2,1.8,4,4,4h15c2.2,0,4-1.8,4-4V4C23,1.8,21.2,0,19,0L19,0z"/>
</g>
<path id="fecc-icon-grey" transform="translate(3.000000, 3.000000)" class="st1" d="M8.5,1.1c-4.1,0-7.4,3.3-7.4,7.4
	c0,4.1,3.3,7.4,7.4,7.4s7.4-3.3,7.4-7.4C15.9,4.4,12.6,1.1,8.5,1.1 M8.5,17C3.8,17,0,13.2,0,8.5C0,3.8,3.8,0,8.5,0
	C13.2,0,17,3.8,17,8.5C17,13.2,13.2,17,8.5,17 M9.6,5.4L8.4,4.1L7.2,5.4L6.3,4.5l2.1-2.2l2.1,2.2L9.6,5.4z M8.3,9.9
	c-0.9,0-1.6-0.7-1.6-1.6s0.7-1.6,1.6-1.6c0.9,0,1.6,0.7,1.6,1.6S9.2,9.9,8.3,9.9L8.3,9.9z M4.5,10.5L2.3,8.4l2.2-2.1l0.9,0.9
	L4.1,8.4l1.3,1.2L4.5,10.5z M12.4,10.5l-0.9-0.9l1.3-1.2l-1.3-1.2l0.9-0.9l2.2,2.1L12.4,10.5z M8.5,14.5l-2.1-2.2l0.9-0.9l1.2,1.3
	l1.2-1.3l0.9,0.9L8.5,14.5z"/>
</svg>
