<?xml version="1.0" encoding="utf-8"?>
<!-- Generator: Adobe Illustrator 21.0.2, SVG Export Plug-In . SVG Version: 6.00 Build 0)  -->
<svg version="1.1" id="Layer_1" xmlns="http://www.w3.org/2000/svg" xmlns:xlink="http://www.w3.org/1999/xlink" x="0px" y="0px"
	 viewBox="0 0 36 20" style="enable-background:new 0 0 36 20;" xml:space="preserve">
<style type="text/css">
	.st0{fill:#FFFFFF;}
</style>
<path class="st0" d="M35.4,12.4c-0.1,0.1-0.4,0.1-0.5,0l-4.5-4.5l-4.5,4.5c-0.1,0.1-0.4,0.1-0.5,0s-0.1-0.4,0-0.5L30,7.1
	C30.1,7,30.2,7,30.3,7c0.1,0,0.2,0,0.3,0.1l4.8,4.8C35.6,12,35.6,12.2,35.4,12.4z M10.1,1.6c4.6,0,8.4,3.8,8.4,8.4
	c0,4.6-3.8,8.4-8.4,8.4S1.7,14.6,1.7,10C1.7,5.4,5.4,1.6,10.1,1.6 M10.1,19.6c5.3,0,9.6-4.3,9.6-9.6c0-5.3-4.3-9.6-9.6-9.6
	c-5.3,0-9.6,4.3-9.6,9.6C0.5,15.3,4.8,19.6,10.1,19.6 M12.4,5.6l-2.3-2.5L7.8,5.6l1,1l1.4-1.5l1.4,1.5L12.4,5.6z M10,11.7
	c1,0,1.8-0.8,1.8-1.8S11,8.1,10,8.1c-1,0-1.8,0.8-1.8,1.8S9,11.7,10,11.7L10,11.7z M6.8,11.4L5.3,10l1.5-1.4l-1-1L3.2,10l2.5,2.3
	L6.8,11.4z M17.2,10l-2.5-2.3l-1,1l1.5,1.4l-1.5,1.4l1,1L17.2,10z M12.5,14.4l-1-1l-1.4,1.5l-1.4-1.5l-1,1l2.3,2.5L12.5,14.4z"/>
</svg>
