<?xml version="1.0" encoding="UTF-8"?>
<svg width="20px" height="16px" viewBox="0 0 20 16" version="1.1" xmlns="http://www.w3.org/2000/svg" xmlns:xlink="http://www.w3.org/1999/xlink">
    <!-- Generator: Sketch 53.2 (72643) - https://sketchapp.com -->
    <title>icon_flip_camera</title>
    <desc>Created with Sketch.</desc>
    <g id="Symbols" stroke="none" stroke-width="1" fill="none" fill-rule="evenodd">
        <g id="New-panel" transform="translate(-280.000000, -23.000000)">
            <g id="icon_flip_camera">
                <g transform="translate(270.000000, 12.000000)">
                    <rect id="Rectangle" fill="#464646" opacity="0" x="0" y="0" width="40" height="40"></rect>
                    <path d="M28.4114583,14.375 L25.1966146,14.375 C23.5244792,12.5 22.9977083,11.875 22.3567708,11.875 L17.7473958,11.875 C17.1060417,11.875 16.5928646,12.5 14.9077604,14.375 L14.21875,14.375 L14.21875,13.5416667 L12.4479167,13.5416667 L12.4479167,14.375 L11.7447917,14.375 C10.8257813,14.375 10,15.0633854 10,15.973125 L10,25.1407292 C10,26.0504688 10.8257813,26.875 11.7447917,26.875 L28.4114583,26.875 C29.3304688,26.875 30,26.0504688 30,25.1406771 L30,15.973125 C30,15.0633854 29.3304688,14.375 28.4114583,14.375 L28.4114583,14.375 Z M22.9727083,23.2698958 C22.1442708,23.9809375 21.0885417,24.375 20,24.375 C17.6308854,24.375 15.7026563,22.5 15.4580729,20.3125 L13.9227083,20.3125 L15.8776042,17.7083333 L17.9020833,20.3125 L16.3078125,20.3125 C16.5476042,22.03125 18.10625,23.5398438 20,23.5398438 C20.8780729,23.5398438 21.7031771,23.2103125 22.3861979,22.6358854 L22.4920313,22.5501042 L23.0961458,23.1575 L22.9727083,23.2698958 L22.9727083,23.2698958 Z M24.1194792,22.0429688 L22.09625,19.375 L23.6922917,19.375 C23.4518229,17.5520833 21.8929167,16.0522396 20.0000521,16.0522396 C19.1345313,16.0522396 18.2871354,16.3716667 17.6139063,16.9379167 L17.5080208,17.0267708 L16.9039063,16.4220833 L17.0273958,16.3152083 C17.8557813,15.6042708 18.9115104,15.2107292 20.0000521,15.2107292 C21.1632292,15.2107292 22.2681771,15.6306771 23.1113021,16.4002604 C23.9205729,17.13875 24.4253125,18.3333333 24.5420313,19.375 L26.0791146,19.375 L24.1194792,22.0429688 L24.1194792,22.0429688 Z" id="flip-camera" fill="#464646"></path>
                </g>
            </g>
        </g>
    </g>
</svg>