<?xml version="1.0" encoding="UTF-8"?>
<svg width="24px" height="24px" viewBox="0 0 24 24" version="1.1" xmlns="http://www.w3.org/2000/svg" xmlns:xlink="http://www.w3.org/1999/xlink">
    <!-- Generator: sketchtool 53.2 (72643) - https://sketchapp.com -->
    <title>7E3D0A2A-2AE4-4E4E-A2C0-F608840EA817</title>
    <desc>Created with sketchtool.</desc>
    <defs>
        <path d="M7.37814581,14.0445515 C7.90073221,14.2031139 8.46737892,14.2468022 8.98848613,14.3717973 C9.51365893,14.5072392 9.89515068,14.4569898 10.4615385,15.3565499 C10.2698947,15.3565499 8.75391851,15.7844849 8.75391851,15.7844849 C8.75391851,15.7844849 8.21839985,15.930806 7.82331204,16.1264103 C7.42367895,16.324265 7.16382331,16.5714286 7.056852,16.5714286 L0,16.5714286 C0,15.8393427 0.352261946,15.1612355 1.02968876,14.7260324 C1.61034032,14.3481816 2.25292805,14.2908293 2.94970992,14.1660036 C3.20906761,14.1187722 3.85552635,14.0108149 3.93294656,13.7544161 C4.01036677,13.4980174 4.00262475,13.2146293 4.00649576,12.9514832 C4.01036677,12.8637679 3.97552767,12.8570205 3.90584949,12.7895472 C3.76649311,12.6512268 3.64649179,12.4994118 3.58842663,12.3206074 C3.5032644,12.0540877 3.46842531,11.7740733 3.43745723,11.5008062 C3.08519528,11.5851479 3.03100114,10.9677667 2.96906497,10.7957096 C2.92648386,10.6742576 2.72519132,9.97928209 3.10067932,10.0771184 C2.98454901,9.8949404 2.94583891,9.66890467 2.91874184,9.46648461 C2.85680567,9.02116049 2.84132163,8.55896803 3.02713013,8.13388591 C3.41423117,7.26010601 4.45166195,6.82827655 5.48522173,6.85863956 C6.50329746,6.8856289 7.46717905,7.37818437 7.78073089,8.25533795 C7.93170029,8.6770464 7.90073221,9.14935986 7.823312,9.58118931 C7.79621493,9.74649902 7.75750483,9.92867708 7.66072957,10.0771184 C8.06331465,9.96916109 7.80395695,10.7585993 7.76137584,10.873304 C7.70331068,11.0386137 7.66072957,11.5817742 7.32395166,11.5008062 C7.28524156,11.8449203 7.26588651,12.253134 7.05685194,12.5567641 C7.0026578,12.6343585 6.75491313,12.8131629 6.75491313,12.8975046 C6.75491313,13.0257039 6.75878414,13.1539033 6.76652616,13.2821027 C6.7781392,13.4440387 6.7781392,13.6262168 6.84007536,13.7814055 C6.90588254,13.9399678 7.21943438,13.9973202 7.37814581,14.0445515 Z M21.1612618,16.3770779 C22.8967349,16.9160709 24,18.3607945 24,20 L22.2583287,20 L6.76923077,20 C6.76923077,18.7942115 7.33325955,17.6773291 8.41793027,16.9605239 C9.34764804,16.3381815 10.3765357,16.2437188 11.492197,16.0381235 C11.9074709,15.9603307 12.9425567,15.7825186 13.0665191,15.3602148 C13.1904815,14.937911 13.1780852,14.4711542 13.1842833,14.0377371 C13.1904815,13.8932647 13.1346984,13.8821515 13.0231323,13.7710189 C12.8,13.5431971 12.6078583,13.2931488 12.5148866,12.9986475 C12.3785279,12.5596738 12.3227449,12.0984736 12.2731599,11.6483866 C11.7091312,11.7873024 11.6223575,10.7704393 11.5231876,10.4870512 C11.4550083,10.2870125 11.1327061,9.14234697 11.7339236,9.30348921 C11.5479801,9.00343125 11.4859989,8.6311371 11.4426121,8.29773937 C11.3434422,7.56426434 11.3186497,6.80300617 11.6161594,6.10287092 C12.2359712,4.66370401 13.897067,3.9524555 15.5519646,4.00246516 C17.1820697,4.04691819 18.7254012,4.85818603 19.2274488,6.30290956 C19.4691754,6.99748818 19.4195905,7.77541624 19.2956281,8.48666475 C19.2522413,8.75893957 19.1902601,9.05899754 19.0353071,9.30348921 C19.6799115,9.12567708 19.2646375,10.4259283 19.1964582,10.6148537 C19.1034864,10.8871285 19.0353071,11.7817457 18.4960708,11.6483866 C18.4340897,12.2151628 18.4030991,12.8875149 18.0684007,13.3876115 C17.981627,13.515414 17.5849474,13.8099153 17.5849474,13.948831 C17.5849474,14.1599829 17.5911455,14.3711348 17.6035418,14.5822867 C17.6221361,14.8490049 17.6221361,15.1490629 17.721306,15.4046678 C17.826674,15.6658294 18.3287216,15.7602921 18.5828445,15.8380849 C19.4195905,16.0992465 20.3245158,16.1159163 21.1612618,16.3770779 Z" id="path-1"></path>
    </defs>
    <g id="Asset-Artboard-Page" stroke="none" stroke-width="1" fill="none" fill-rule="evenodd">
        <g id="Icon-Style/Icons/In-call-top-bar/ic_participant">
            <mask id="mask-2" fill="white">
                <use xlink:href="#path-1"></use>
            </mask>
            <use id="ic_participant" fill="#F2F2F2" xlink:href="#path-1"></use>
            <g id="Icon-color-Style/Сolors/Gray/neutral-6" mask="url(#mask-2)" fill="#E6E6E6">
                <rect id="color" x="0" y="0" width="24" height="24"></rect>
            </g>
        </g>
    </g>
</svg>