<?xml version="1.0" encoding="UTF-8"?>
<svg width="36px" height="37px" viewBox="0 0 36 37" version="1.1" xmlns="http://www.w3.org/2000/svg" xmlns:xlink="http://www.w3.org/1999/xlink">
    <!-- Generator: Sketch 53.2 (72643) - https://sketchapp.com -->
    <title>Microphone</title>
    <desc>Created with Sketch.</desc>
    <defs>
        <circle id="path-1" cx="18" cy="18" r="18"></circle>
        <circle id="path-3" cx="17.9318182" cy="17.9318182" r="18"></circle>
        <path d="M9,10.973688 C10.4185714,10.973688 11.5628571,9.91184547 11.5628571,8.605266 L11.5714286,3.868422 C11.5714286,2.55789516 10.4228571,1.5 9,1.5 C7.58142857,1.5 6.42857143,2.55789516 6.42857143,3.868422 L6.42857143,8.605266 C6.42857143,9.91184547 7.58142857,10.973688 9,10.973688 L9,10.973688 Z M13.5428571,8.605266 C13.5428571,10.973688 11.37,12.6315834 9,12.6315834 C6.63428571,12.6315834 4.45714286,10.973688 4.45714286,8.605266 L3,8.605266 C3,11.3013197 5.33142857,13.5276364 8.14285714,13.9105313 L8.14285714,16.500006 L9.85714286,16.500006 L9.85714286,13.9105313 C12.6685714,13.5276364 15,11.3013197 15,8.605266 L13.5428571,8.605266 L13.5428571,8.605266 Z" id="path-5"></path>
        <path d="M6,9.473688 C7.41857143,9.473688 8.56285714,8.41184547 8.56285714,7.105266 L8.57142857,2.368422 C8.57142857,1.05789516 7.42285714,0 6,0 C4.58142857,0 3.42857143,1.05789516 3.42857143,2.368422 L3.42857143,7.105266 C3.42857143,8.41184547 4.58142857,9.473688 6,9.473688 L6,9.473688 Z M10.5428571,7.105266 C10.5428571,9.473688 8.37,11.1315834 6,11.1315834 C3.63428571,11.1315834 1.45714286,9.473688 1.45714286,7.105266 L0,7.105266 C0,9.80131971 2.33142857,12.0276364 5.14285714,12.4105313 L5.14285714,15.000006 L6.85714286,15.000006 L6.85714286,12.4105313 C9.66857143,12.0276364 12,9.80131971 12,7.105266 L10.5428571,7.105266 L10.5428571,7.105266 Z" id="path-7"></path>
    </defs>
    <g id="Version-7" stroke="none" stroke-width="1" fill="none" fill-rule="evenodd">
        <g id="A02" transform="translate(-338.000000, -368.000000)">
            <g id="Group" transform="translate(338.000000, 324.864865)">
                <g id="Microphone" transform="translate(0.000000, 44.000000)">
                    <g id="Components/Forms/Buttons/In-call/Microphone">
                        <g id="BG-button" stroke-width="1" fill-rule="evenodd" transform="translate(0.068182, 0.068182)">
                            <mask id="mask-2" fill="white">
                                <use xlink:href="#path-1"></use>
                            </mask>
                            <g id="BG-buttom"></g>
                            <g id="Style/Сolors/Dark-gray/dark-1" opacity="0.1" mask="url(#mask-2)" fill="#000000">
                                <g transform="translate(-0.068182, -0.068182)" id="color">
                                    <polygon points="0 0 35.6170213 0 35.6170213 35.6170213 0 35.6170213"></polygon>
                                </g>
                            </g>
                            <mask id="mask-4" fill="white">
                                <use xlink:href="#path-3"></use>
                            </mask>
                            <circle stroke="#FFFFFF" stroke-width="0.75" cx="17.9318182" cy="17.9318182" r="17.625"></circle>
                        </g>
                        <g id="Style/Icons/In-call-toolbar/ic_mic/ic_mic" transform="translate(9.000000, 9.000000)">
                            <mask id="mask-6" fill="white">
                                <use xlink:href="#path-5"></use>
                            </mask>
                            <use id="ic_mic" fill="#FFFFFF" fill-rule="evenodd" xlink:href="#path-5"></use>
                            <g id="Style/Сolors/Gray/neutral-10" mask="url(#mask-6)" fill="#FFFFFF" fill-rule="evenodd">
                                <rect id="color" x="0" y="0" width="17.8085106" height="17.8085106"></rect>
                            </g>
                        </g>
                    </g>
                    <g id="Icon" transform="translate(12.000000, 10.500000)">
                        <mask id="mask-8" fill="white">
                            <use xlink:href="#path-7"></use>
                        </mask>
                        <use id="ic_mic" fill="#FFFFFF" xlink:href="#path-7"></use>
                    </g>
                </g>
            </g>
        </g>
    </g>
</svg>