<?xml version="1.0" encoding="UTF-8"?>
<svg width="36px" height="36px" viewBox="0 0 36 36" version="1.1" xmlns="http://www.w3.org/2000/svg" xmlns:xlink="http://www.w3.org/1999/xlink">
    <title>icon_microphone_inactive</title>
    <defs>
        <circle id="path-1" cx="18" cy="18" r="18"></circle>
    </defs>
    <g id="icon_microphone_inactive" stroke="none" stroke-width="1" fill="none" fill-rule="evenodd">
        <path d="M17.8085106,0 L18.1914894,0 C28.0268582,-1.80672795e-15 36,7.9731418 36,17.8085106 L36,18.1914894 C36,28.0268582 28.0268582,36 18.1914894,36 L17.8085106,36 C7.9731418,36 1.2044853e-15,28.0268582 0,18.1914894 L0,17.8085106 C-1.2044853e-15,7.9731418 7.9731418,1.80672795e-15 17.8085106,0 Z" id="color" fill="#1A1A1A"></path>
        <mask id="mask-2" fill="white">
            <use xlink:href="#path-1"></use>
        </mask>
        <circle stroke="#E84B40" stroke-width="0.75" cx="18" cy="18" r="17.625"></circle>
        <path d="M11.1244,10.0008656 L15.2573,14.1337656 L20.1957,19.0721656 L21.5813,20.4577656 L26,24.8764656 L24.8756,26.0008656 L21.3017,22.4268656 C20.5631501,22.8432463 19.7535129,23.1184382 18.9142,23.2383656 L18.9142,23.2383656 L18.9142,26.0003656 L17.0853,26.0003656 L17.0853,23.2384656 C14.0867,22.8298656 11.6,20.4554656 11.6,17.5798656 L11.6,17.5798656 L13.1546,17.5798656 C13.1546,20.1059656 15.4767,21.8742656 18,21.8742656 C18.7750002,21.8692818 19.5396913,21.6962002 20.2413,21.3669656 L20.2413,21.3669656 L18.8452,19.9708656 C18.571676,20.0573559 18.2868561,20.1028826 18,20.1059656 C16.5464109,20.1621056 15.3206617,19.0331578 15.2573,17.5798656 L15.2573,17.5798656 L15.2573,16.3825656 L10,11.1252656 L11.1244,10.0008656 Z M24.4,17.5798656 C24.389668,18.5229171 24.1177005,19.4445809 23.6144,20.2421656 L23.6144,20.2421656 L22.5086,19.1363656 C22.7273524,18.6464243 22.8420377,18.1164137 22.8454,17.5798656 L22.8454,17.5798656 Z M18,10.0013656 C19.4547964,9.94204463 20.6824669,11.0728068 20.7427,12.5275656 L20.7427,12.5275656 L20.734,17.3617656 L15.3325,11.9602656 C15.6703637,10.7750143 16.7679593,9.96898615 18,10.0013656 Z" id="Combined-Shape" fill="#E84B40"></path>
    </g>
</svg>