<?xml version="1.0" encoding="UTF-8"?>
<svg width="12px" height="13px" viewBox="0 0 12 13" version="1.1" xmlns="http://www.w3.org/2000/svg" xmlns:xlink="http://www.w3.org/1999/xlink">
    <title>icon_stop</title>
    <g id="UX-356-Friendly-Device-Selection-Desktop-Improvements-v5" stroke="none" stroke-width="1" fill="none" fill-rule="evenodd">
        <g id="A02" transform="translate(-398.000000, -345.000000)" fill="#FFFFFF">
            <g id="Group-7" transform="translate(398.000000, 327.864865)">
                <g id="Group-6" transform="translate(0.000000, 18.000000)">
                    <path d="M6,0 C2.68604571,0 0,2.68604571 0,6 C0,9.31392 2.68604571,12 6,12 C9.31392,12 12,9.31392 12,6 C12,2.68604571 9.31392,0 6,0 Z M4.28571429,3.28571429 L7.71428571,3.28571429 C8.26657046,3.28571429 8.71428571,3.73342954 8.71428571,4.28571429 L8.71428571,7.71428571 C8.71428571,8.26657046 8.26657046,8.71428571 7.71428571,8.71428571 L4.28571429,8.71428571 C3.73342954,8.71428571 3.28571429,8.26657046 3.28571429,7.71428571 L3.28571429,4.28571429 C3.28571429,3.73342954 3.73342954,3.28571429 4.28571429,3.28571429 Z" id="icon_stop"></path>
                </g>
            </g>
        </g>
    </g>
</svg>