<?xml version="1.0" encoding="UTF-8"?>
<svg width="12px" height="13px" viewBox="0 0 12 13" version="1.1" xmlns="http://www.w3.org/2000/svg" xmlns:xlink="http://www.w3.org/1999/xlink">
    <title>Shape</title>
    <g id="UX-356-Friendly-Device-Selection-Desktop-Improvements-v5" stroke="none" stroke-width="1" fill="none" fill-rule="evenodd">
        <g id="A01" transform="translate(-398.000000, -345.000000)" fill="#FFFFFF">
            <g id="Group-7" transform="translate(398.000000, 327.864865)">
                <g id="Group-6" transform="translate(0.000000, 18.000000)">
                    <path d="M6,0 C2.68604571,0 0,2.68604571 0,6 C0,9.31392 2.68604571,12 6,12 C9.31392,12 12,9.31392 12,6 C12,2.68604571 9.31392,0 6,0 Z M8.87101714,6.48171429 L5.29206857,8.94384 C5.19250286,9.01203429 5.07661714,9.04690286 4.96042286,9.04690286 C4.86689143,9.04690286 4.77404571,9.02468571 4.68853714,8.98001143 C4.49636571,8.87835429 4.37568,8.67908571 4.37568,8.46219429 L4.37568,3.53787429 C4.37568,3.32098286 4.49636571,3.12168 4.68853714,3.02002286 C4.88070857,2.91922286 5.11289143,2.93310857 5.29206857,3.05619429 L8.87101714,5.51828571 C9.02938286,5.62731429 9.12428571,5.80769143 9.12428571,6 C9.12428571,6.19230857 9.02941714,6.37268571 8.87101714,6.48171429 Z" id="Shape"></path>
                </g>
            </g>
        </g>
    </g>
</svg>