<?xml version="1.0" encoding="UTF-8"?>
<svg width="36px" height="36px" viewBox="0 0 36 36" version="1.1" xmlns="http://www.w3.org/2000/svg" xmlns:xlink="http://www.w3.org/1999/xlink">
    <title>icon_speaker_inactive</title>
    <defs>
        <circle id="path-1" cx="18" cy="18" r="18"></circle>
    </defs>
    <g id="icon_speaker_inactive" stroke="none" stroke-width="1" fill="none" fill-rule="evenodd">
        <path d="M17.8085106,0 L18.1914894,0 C28.0268582,-1.80672795e-15 36,7.9731418 36,17.8085106 L36,18.1914894 C36,28.0268582 28.0268582,36 18.1914894,36 L17.8085106,36 C7.9731418,36 1.2044853e-15,28.0268582 0,18.1914894 L0,17.8085106 C-1.2044853e-15,7.9731418 7.9731418,1.80672795e-15 17.8085106,0 Z" id="color" fill="#1A1A1A"></path>
        <mask id="mask-2" fill="white">
            <use xlink:href="#path-1"></use>
        </mask>
        <circle stroke="#E84B40" stroke-width="0.75" cx="18" cy="18" r="17.625"></circle>
        <path d="M11.1244,10 L14.9813,13.8569 L19.6,18.4755 L21.3917,20.2672 L22.9139,21.7894 L24.218,23.0935 L26,24.8756 L24.8756,26 L23.11,24.2348 C22.0998805,25.0981601 20.895466,25.7036958 19.6,25.9995 L19.6,25.9995 L19.6,24.1159 C20.4060669,23.869929 21.1553055,23.4664353 21.8043,22.9288 L21.8043,22.9288 L20.3608,21.4853 C20.1261442,21.6833268 19.8711128,21.8558618 19.6,22 L19.6,22 L19.6,20.7244 L18,19.1244 L18,25.2 L13.5558,20.7 L10.0005,20.7 L10.0005,15.3 L13.5558,15.3 L13.8639,14.9883 L10,11.1244 L11.1244,10 Z M19.6,10.0005 C22.0725229,10.5529547 24.1497901,12.21936 25.2253465,14.5132113 C26.300903,16.8070627 26.2534717,19.4697109 25.0969,21.7238 L25.0969,21.7238 L23.7099,20.3368 C24.0104635,19.594175 24.1669475,18.8011329 24.171,18 C24.1679498,15.1746848 22.3087837,12.6871604 19.6,11.8841 L19.6,11.8841 Z M19.6,14 C21.085238,14.7781702 22.0113896,16.3207916 22,17.9975 C21.9988684,18.1942728 21.9851739,18.3907725 21.959,18.5858 L21.959,18.5858 L19.6,16.2268 Z M18,10.8 L18,14.627 L16.099,12.726 L18,10.8 Z" id="Combined-Shape" fill="#E84B40"></path>
    </g>
</svg>