<?xml version="1.0" encoding="UTF-8"?>
<svg width="36px" height="37px" viewBox="0 0 36 37" version="1.1" xmlns="http://www.w3.org/2000/svg" xmlns:xlink="http://www.w3.org/1999/xlink">
    <!-- Generator: Sketch 53.2 (72643) - https://sketchapp.com -->
    <title>Components/Forms/Buttons/In-call/Speaker</title>
    <desc>Created with Sketch.</desc>
    <defs>
        <circle id="path-1" cx="18" cy="18" r="18"></circle>
        <circle id="path-3" cx="17.9318182" cy="17.9318182" r="18"></circle>
        <path d="M10.5,3.26596351 L10.5,1.5 C13.9328571,2.27822121 16.5,5.33551881 16.5,9 C16.5,12.6644812 13.9328571,15.7217788 10.5,16.5 L10.5,14.7340365 C12.9771429,13.9985747 14.7857143,11.7109464 14.7857143,9 C14.7857143,6.28905359 12.9771429,4.00142531 10.5,3.26596351 Z M10.5,5.25 C11.832,5.93435754 12.75,7.35428305 12.75,8.99767225 C12.75,10.6410615 11.832,12.060987 10.5,12.75 L10.5,5.25 Z M1.5,6.46875 L4.83333333,6.46875 L9,2.25 L9,15.75 L4.83333333,11.53125 L1.5,11.53125 L1.5,6.46875 Z" id="path-5"></path>
    </defs>
    <g id="Version-7" stroke="none" stroke-width="1" fill="none" fill-rule="evenodd">
        <g id="A01" transform="translate(-338.000000, -324.000000)">
            <g id="Group" transform="translate(338.000000, 324.864865)">
                <g id="Components/Forms/Buttons/In-call/Speaker">
                    <g id="BG-button" stroke-width="1" fill-rule="evenodd" transform="translate(0.068182, 0.068182)">
                        <mask id="mask-2" fill="white">
                            <use xlink:href="#path-1"></use>
                        </mask>
                        <g id="BG-buttom"></g>
                        <g id="Style/Сolors/Dark-gray/dark-1" opacity="0.1" mask="url(#mask-2)" fill="#000000">
                            <g transform="translate(-0.068182, -0.068182)" id="color">
                                <polygon points="0 0 35.6170213 0 35.6170213 35.6170213 0 35.6170213"></polygon>
                            </g>
                        </g>
                        <mask id="mask-4" fill="white">
                            <use xlink:href="#path-3"></use>
                        </mask>
                        <circle stroke="#FFFFFF" stroke-width="0.75" cx="17.9318182" cy="17.9318182" r="17.625"></circle>
                    </g>
                    <g id="Style/Icons/In-call-toolbar/ic_speacker" transform="translate(9.000000, 9.000000)">
                        <mask id="mask-6" fill="white">
                            <use xlink:href="#path-5"></use>
                        </mask>
                        <use id="ic_speacker" fill="#F8F9FA" fill-rule="evenodd" xlink:href="#path-5"></use>
                        <g id="Style/Сolors/Gray/neutral-10" mask="url(#mask-6)" fill="#FFFFFF" fill-rule="evenodd">
                            <rect id="color" x="0" y="0" width="17.8085106" height="17.8085106"></rect>
                        </g>
                    </g>
                </g>
            </g>
        </g>
    </g>
</svg>