<?xml version="1.0" encoding="UTF-8"?>
<svg width="36px" height="36px" viewBox="0 0 36 36" version="1.1" xmlns="http://www.w3.org/2000/svg" xmlns:xlink="http://www.w3.org/1999/xlink">
    <title>icon_camera_inactive</title>
    <defs>
        <circle id="path-1" cx="18" cy="18" r="18"></circle>
    </defs>
    <g id="icon_camera_inactive" stroke="none" stroke-width="1" fill="none" fill-rule="evenodd">
        <path d="M17.8085106,0 L18.1914894,0 C28.0268582,-1.80672795e-15 36,7.9731418 36,17.8085106 L36,18.1914894 C36,28.0268582 28.0268582,36 18.1914894,36 L17.8085106,36 C7.9731418,36 1.2044853e-15,28.0268582 0,18.1914894 L0,17.8085106 C-1.2044853e-15,7.9731418 7.9731418,1.80672795e-15 17.8085106,0 Z" id="color" fill="#1A1A1A"></path>
        <mask id="mask-2" fill="white">
            <use xlink:href="#path-1"></use>
        </mask>
        <circle stroke="#E84B40" stroke-width="0.75" cx="18" cy="18" r="17.625"></circle>
        <path d="M11.1244,10 L13.5247,12.4 L21.2,20.0754 L26,24.8756 L24.8756,26 L21.1912,22.3159 C21.1704224,23.0294917 20.5870908,23.5978195 19.8732,23.6 L19.8732,23.6 L11.3272,23.6 C10.5945201,23.5996688 10.0007103,23.00568 10.0006,22.273 L10.0006,22.273 L10.0006,13.727 C10.0027266,13.0131256 10.5710249,12.4297789 11.2846,12.409 L11.2846,12.409 L10,11.1244 L11.1244,10 Z M26,13.734 L26,22.266 L25.64,22.266 L21.733,18.36 L21.733,16.4 L24.933,13.734 L26,13.734 Z M19.8732,12.4 C20.6059351,12.400276 21.1998344,12.9942648 21.2,13.727 L21.2,13.727 L21.2,17.8266 L15.7732,12.4 Z" id="Combined-Shape" fill="#E84B40"></path>
    </g>
</svg>