<?xml version="1.0" encoding="UTF-8"?>
<svg width="36px" height="36px" viewBox="0 0 36 36" version="1.1" xmlns="http://www.w3.org/2000/svg" xmlns:xlink="http://www.w3.org/1999/xlink">
    <!-- Generator: Sketch 53.2 (72643) - https://sketchapp.com -->
    <title>icon_microphone_active</title>
    <desc>Created with Sketch.</desc>
    <defs>
        <circle id="path-1" cx="18" cy="18" r="18"></circle>
    </defs>
    <g id="icon_microphone_active" stroke="none" stroke-width="1" fill="none" fill-rule="evenodd">
        <path d="M17.8085106,0 L18.1914894,0 C28.0268582,-1.80672795e-15 36,7.9731418 36,17.8085106 L36,18.1914894 C36,28.0268582 28.0268582,36 18.1914894,36 L17.8085106,36 C7.9731418,36 1.2044853e-15,28.0268582 0,18.1914894 L0,17.8085106 C-1.2044853e-15,7.9731418 7.9731418,1.80672795e-15 17.8085106,0 Z" id="color" fill="#000000" opacity="0.1"></path>
        <mask id="mask-2" fill="white">
            <use xlink:href="#path-1"></use>
        </mask>
        <circle stroke="#FFFFFF" stroke-width="0.75" cx="18" cy="18" r="17.625"></circle>
        <path d="M22.8454,17.5801136 L24.4,17.5801136 C24.4,20.4557136 21.9128,22.8303136 18.9142,23.2386136 L18.9142,26.0006136 L17.0853,26.0006136 L17.0853,23.2387136 C14.0867,22.8301136 11.6,20.4557136 11.6,17.5801136 L13.1545,17.5801136 C13.1545,20.1062136 15.4767,21.8745136 18,21.8745136 C20.5278,21.8745136 22.8454,20.1062136 22.8454,17.5801136 Z M18,20.1062136 C16.5464109,20.1623536 15.3206617,19.0334058 15.2573,17.5801136 L15.2573,12.5278136 C15.3188851,11.0736816 16.5457175,9.94369143 18,10.0016136 C19.4547758,9.94234864 20.6824127,11.0730798 20.7427,12.5278136 L20.7335,17.5801136 C20.6745727,19.0317481 19.4517672,20.1617752 18,20.1062136 Z" id="Combined-Shape" fill="#FFFFFF" fill-rule="nonzero"></path>
    </g>
</svg>