<?xml version="1.0" encoding="UTF-8"?>
<svg width="36px" height="37px" viewBox="0 0 36 37" version="1.1" xmlns="http://www.w3.org/2000/svg" xmlns:xlink="http://www.w3.org/1999/xlink">
    <!-- Generator: Sketch 53.2 (72643) - https://sketchapp.com -->
    <title>Camera button</title>
    <desc>Created with Sketch.</desc>
    <defs>
        <circle id="path-1" cx="18" cy="18" r="18"></circle>
        <circle id="path-3" cx="17.9318182" cy="17.9318182" r="18"></circle>
        <path d="M11.9999685,4.99384167 L11.9999685,13.0061583 C11.9999685,13.6926833 11.4426202,14.25 10.7561722,14.25 L2.74379627,14.25 C2.05734833,14.25 1.5,13.6926833 1.5,13.0061583 L1.5,4.99384167 C1.5,4.30731667 2.05734833,3.75 2.74379627,3.75 L10.7561722,3.75 C11.4426202,3.75 11.9999685,4.30731667 11.9999685,4.99384167 Z M16.5,4.74998714 L16.5,12.7499643 L15.5000005,12.7499643 L12.500002,10.2499714 L12.500002,7.24998 L15.5000005,4.74998714 L16.5,4.74998714 Z" id="path-5"></path>
    </defs>
    <g id="Version-7" stroke="none" stroke-width="1" fill="none" fill-rule="evenodd">
        <g id="A01" transform="translate(-338.000000, -412.000000)">
            <g id="Group" transform="translate(338.000000, 324.864865)">
                <g id="Components/Forms/Buttons/In-call/Camera" transform="translate(0.000000, 88.000000)">
                    <g id="BG-button" stroke-width="1" fill-rule="evenodd" transform="translate(0.068182, 0.068182)">
                        <mask id="mask-2" fill="white">
                            <use xlink:href="#path-1"></use>
                        </mask>
                        <g id="BG-buttom"></g>
                        <g id="Style/Сolors/Dark-gray/dark-1" opacity="0.1" mask="url(#mask-2)" fill="#000000">
                            <g transform="translate(-0.068182, -0.068182)" id="color">
                                <polygon points="0 0 35.6170213 0 35.6170213 35.6170213 0 35.6170213"></polygon>
                            </g>
                        </g>
                        <mask id="mask-4" fill="white">
                            <use xlink:href="#path-3"></use>
                        </mask>
                        <circle stroke="#FFFFFF" stroke-width="0.75" cx="17.9318182" cy="17.9318182" r="17.625"></circle>
                    </g>
                    <g id="Style/Icons/In-call-toolbar/ic_camera/ic_camera" transform="translate(9.000000, 9.000000)">
                        <mask id="mask-6" fill="white">
                            <use xlink:href="#path-5"></use>
                        </mask>
                        <use id="ic_camera" fill="#FFFFFF" fill-rule="evenodd" xlink:href="#path-5"></use>
                        <g id="Style/Сolors/Gray/neutral-10" mask="url(#mask-6)" fill="#FFFFFF" fill-rule="evenodd">
                            <rect id="color" x="0" y="0" width="17.8085106" height="17.8085106"></rect>
                        </g>
                    </g>
                </g>
            </g>
        </g>
    </g>
</svg>