<?xml version="1.0" encoding="UTF-8"?>
<svg width="36px" height="36px" viewBox="0 0 36 36" version="1.1" xmlns="http://www.w3.org/2000/svg" xmlns:xlink="http://www.w3.org/1999/xlink">
    <!-- Generator: Sketch 53.2 (72643) - https://sketchapp.com -->
    <title>icon_speaker_active</title>
    <desc>Created with Sketch.</desc>
    <defs>
        <circle id="path-1" cx="18" cy="18" r="18"></circle>
    </defs>
    <g id="icon_speaker_active" stroke="none" stroke-width="1" fill="none" fill-rule="evenodd">
        <path d="M17.8085106,0 L18.1914894,0 C28.0268582,-1.80672795e-15 36,7.9731418 36,17.8085106 L36,18.1914894 C36,28.0268582 28.0268582,36 18.1914894,36 L17.8085106,36 C7.9731418,36 1.2044853e-15,28.0268582 0,18.1914894 L0,17.8085106 C-1.2044853e-15,7.9731418 7.9731418,1.80672795e-15 17.8085106,0 Z" id="color" fill="#000000" opacity="0.1"></path>
        <mask id="mask-2" fill="white">
            <use xlink:href="#path-1"></use>
        </mask>
        <circle stroke="#FFFFFF" stroke-width="0.75" cx="18" cy="18" r="17.625"></circle>
        <path d="M10.0008333,15.30005 L13.5558333,15.30005 L17.9998333,10.80005 L17.9998333,25.20005 L13.5558333,20.70005 L10.0008333,20.70005 L10.0008333,15.30005 Z M21.9998333,17.99755 C22.0100648,19.6752215 21.084516,21.2187668 19.5998333,22.00005 L19.5998333,14.00005 C21.0850875,14.778203 22.0112458,16.3208354 21.9998333,17.99755 Z M19.5998333,10.00055 C23.3411372,10.8424792 25.9991667,14.1651337 25.9991667,18 C25.9991667,21.8348663 23.3411372,25.1575208 19.5998333,25.99945 L19.5998333,24.11595 C22.3105401,23.3156141 24.1710144,20.826438 24.1710144,18.00005 C24.1710144,15.173662 22.3105401,12.6844859 19.5998333,11.88415 L19.5998333,10.00055 Z" id="Combined-Shape" fill="#FFFFFF" fill-rule="nonzero"></path>
    </g>
</svg>