<?xml version="1.0" encoding="UTF-8"?>
<svg width="48px" height="48px" viewBox="0 0 48 48" version="1.1" xmlns="http://www.w3.org/2000/svg" xmlns:xlink="http://www.w3.org/1999/xlink">
    <!-- Generator: Sketch 53.2 (72643) - https://sketchapp.com -->
    <title>Settings button</title>
    <desc>Created with Sketch.</desc>
    <defs>
        <circle id="path-1" cx="24" cy="24" r="24"></circle>
        <circle id="path-3" cx="23.9090909" cy="23.9090909" r="24"></circle>
        <path d="M21.1250596,14.9100089 C21.1634305,14.6113422 21.1921537,14.3079822 21.1921537,14 C21.1921537,13.6920178 21.1634305,13.3886578 21.1250596,13.0899911 L23.1538156,11.5453867 C23.3360952,11.4053689 23.3888642,11.1533511 23.268928,10.9479822 L21.3503876,7.71399822 C21.2305246,7.51333689 20.9811508,7.42933333 20.7652511,7.51333689 L18.3766866,8.45133511 C17.8826899,8.08266667 17.3406748,7.76999822 16.7554652,7.53200356 L16.3958028,5.05865956 C16.3526813,4.83933156 16.1559304,4.66666667 15.9161312,4.66666667 L12.0790504,4.66666667 C11.839178,4.66666667 11.6425733,4.83933156 11.6042025,5.05865956 L11.2445402,7.53200356 C10.6593305,7.76999822 10.1173155,8.07800178 9.62332603,8.45133511 L7.23474691,7.51333689 C7.01891294,7.43399822 6.76950269,7.51333689 6.64959575,7.71399822 L4.73105537,10.9479822 C4.61114842,11.1486578 4.6639028,11.4006044 4.84616779,11.5453867 L6.87023155,13.0899911 C6.83186074,13.3886578 6.80307898,13.6920178 6.80307898,14 C6.80307898,14.3079822 6.83186074,14.6113422 6.87023155,14.9100089 L4.84616779,16.4546133 C4.6639028,16.5946311 4.61114842,16.8466489 4.73105537,17.0520178 L6.64959575,20.2860089 C6.76950269,20.4866844 7.01891294,20.5706667 7.23474691,20.4866844 L9.62332603,19.5486578 C10.1173155,19.9172978 10.6593305,20.2300444 11.2445402,20.4679822 L11.6042025,22.9412978 C11.6425733,23.1606756 11.839178,23.3333333 12.0790504,23.3333333 L15.9161312,23.3333333 C16.1559304,23.3333333 16.3526813,23.1606756 16.3910521,22.9412978 L16.7507145,20.4679822 C17.3359241,20.2300444 17.8778661,19.9220622 18.3718628,19.5486578 L20.7605004,20.4866844 C20.976254,20.5659733 21.2257008,20.4866844 21.3455639,20.2860089 L23.2641774,17.0520178 C23.3840404,16.8513422 23.3313445,16.5993956 23.1490649,16.4546133 L21.1250596,14.9100089 Z M13.9976639,17.2667022 C12.1414669,17.2667022 10.6401817,15.8060089 10.6401817,14 C10.6401817,12.1939911 12.1414669,10.7332978 13.9976639,10.7332978 C15.8537877,10.7332978 17.355073,12.1939911 17.355073,14 C17.355073,15.8060089 15.8537877,17.2667022 13.9976639,17.2667022 L13.9976639,17.2667022 Z" id="path-5"></path>
    </defs>
    <g id="Version-7" stroke="none" stroke-width="1" fill="none" fill-rule="evenodd">
        <g id="A01" transform="translate(-828.000000, -24.000000)">
            <g id="Components/Forms/Buttons/In-call/Settings" transform="translate(828.000000, 24.000000)">
                <g id="BG-button" stroke-width="1" fill-rule="evenodd" transform="translate(0.090909, 0.090909)">
                    <mask id="mask-2" fill="white">
                        <use xlink:href="#path-1"></use>
                    </mask>
                    <g id="BG-buttom"></g>
                    <g id="Style/Сolors/Dark-gray/dark-1" opacity="0.1" mask="url(#mask-2)" fill="#000000">
                        <g transform="translate(-0.090909, -0.090909)" id="color">
                            <polygon points="0 0 48 0 48 48 0 48"></polygon>
                        </g>
                    </g>
                    <mask id="mask-4" fill="white">
                        <use xlink:href="#path-3"></use>
                    </mask>
                    <circle stroke="#FFFFFF" cx="23.9090909" cy="23.9090909" r="23.5"></circle>
                </g>
                <g id="Style/Icons/In-call-top-bar/Settings/ic_settings/ic_settings_white" transform="translate(10.000000, 10.000000)">
                    <mask id="mask-6" fill="white">
                        <use xlink:href="#path-5"></use>
                    </mask>
                    <use id="settings" fill="#FFFFFF" fill-rule="evenodd" xlink:href="#path-5"></use>
                    <g id="Style/Сolors/Gray/neutral-10" mask="url(#mask-6)" fill="#FFFFFF" fill-rule="evenodd">
                        <rect id="color" x="0" y="0" width="28" height="28"></rect>
                    </g>
                </g>
            </g>
        </g>
    </g>
</svg>