<?xml version="1.0" encoding="UTF-8"?>
<svg width="36px" height="36px" viewBox="0 0 36 36" version="1.1" xmlns="http://www.w3.org/2000/svg" xmlns:xlink="http://www.w3.org/1999/xlink">
    <!-- Generator: Sketch 53.2 (72643) - https://sketchapp.com -->
    <title>icon_camera_active</title>
    <desc>Created with Sketch.</desc>
    <defs>
        <circle id="path-1" cx="18" cy="18" r="18"></circle>
    </defs>
    <g id="icon_camera_active" stroke="none" stroke-width="1" fill="none" fill-rule="evenodd">
        <path d="M17.8085106,0 L18.1914894,0 C28.0268582,-1.80672795e-15 36,7.9731418 36,17.8085106 L36,18.1914894 C36,28.0268582 28.0268582,36 18.1914894,36 L17.8085106,36 C7.9731418,36 1.2044853e-15,28.0268582 0,18.1914894 L0,17.8085106 C-1.2044853e-15,7.9731418 7.9731418,1.80672795e-15 17.8085106,0 Z" id="color" fill="#000000" opacity="0.1"></path>
        <mask id="mask-2" fill="white">
            <use xlink:href="#path-1"></use>
        </mask>
        <circle stroke="#FFFFFF" stroke-width="0.75" cx="18" cy="18" r="17.625"></circle>
        <path d="M24.93325,13.734 L25.99925,13.734 L25.99925,22.266 L24.93325,22.266 L21.73325,19.6 L21.73325,16.4 L24.93325,13.734 Z M11.32745,12.4 L19.87335,12.4 C20.2253075,12.3999204 20.5628711,12.5397066 20.8117333,12.7885875 C21.0605954,13.0374684 21.2003562,13.3750425 21.20025,13.727 L21.20025,22.273 C21.2003296,22.6249494 21.0605604,22.9625081 20.811704,23.2113832 C20.5628476,23.4602584 20.2252994,23.6000531 19.87335,23.6 L11.32735,23.6 C10.9754445,23.6 10.637958,23.4601787 10.3891607,23.2113065 C10.1403635,22.9624342 10.0006439,22.6249055 10.00075,22.273 L10.00075,13.727 C10.0006705,13.3750853 10.1404122,13.0375569 10.3892254,12.7886875 C10.6380385,12.5398181 10.9755353,12.4 11.32745,12.4 Z" id="Combined-Shape" fill="#FFFFFF" fill-rule="nonzero"></path>
    </g>
</svg>