<?xml version="1.0" encoding="UTF-8"?>
<svg width="24px" height="24px" viewBox="0 0 24 24" version="1.1" xmlns="http://www.w3.org/2000/svg" xmlns:xlink="http://www.w3.org/1999/xlink">
    <!-- Generator: Sketch 41.1 (35376) - http://www.bohemiancoding.com/sketch -->
    <title>chat</title>
    <desc>Created with Sketch.</desc>
    <defs></defs>
    <g id="Symbols" stroke="none" stroke-width="1" fill="none" fill-rule="evenodd">
        <g id="in-call-toolbar---theater-mode-button" transform="translate(-852.000000, -20.000000)" fill="#FFFFFF">
            <g id="in-call-toolbar">
                <path d="M864.005763,43.1576923 C865.673871,43.1576923 867.261171,42.8288462 868.6984,42.2403846 C868.733032,42.2230769 868.761892,42.2115385 868.796524,42.2 C868.802296,42.2 868.808068,42.2 868.808068,42.1942308 C869.010088,42.1192308 869.229424,42.0788462 869.454532,42.0788462 C869.702728,42.0788462 869.93938,42.125 870.152944,42.2173077 L875.001425,44 L873.725813,38.9 C873.725813,38.5942308 873.812393,38.3057692 873.950921,38.0576923 L873.950921,38.0576923 C873.997097,37.9826923 874.043273,37.9076923 874.095221,37.8442308 C875.301569,36.0384615 875.999981,33.8923077 875.999981,31.5903846 C876.011525,25.1865385 870.637792,20 864.005763,20 C857.373733,20 852,25.1865385 852,31.5788462 C852,37.9769231 857.373733,43.1576923 864.005763,43.1576923 L864.005763,43.1576923 Z" id="chat"></path>
    </g>
        </g>
    </g>
</svg>
