<?xml version="1.0" standalone="no"?>
<!DOCTYPE svg PUBLIC "-//W3C//DTD SVG 1.1//EN" "http://www.w3.org/Graphics/SVG/1.1/DTD/svg11.dtd">
<svg width="100%" height="100%" viewBox="0 0 300 300" version="1.1" xmlns="http://www.w3.org/2000/svg" xmlns:xlink="http://www.w3.org/1999/xlink" xml:space="preserve" style="fill-rule:evenodd;clip-rule:evenodd;stroke-linejoin:round;stroke-miterlimit:1.41421;">
    <g id="Layer37">
        <path d="M231.667,262.88L231.667,290L173.721,253.417L134.444,253.417C117.263,253.417 103.333,238.021 103.333,219.03L103.333,184.111L131.679,166.215L135.002,166.215L231.667,262.88ZM236.346,253.417L149.144,166.215L165.588,166.215C167.118,166.21 168.645,166.14 170.168,165.99C173.07,165.705 175.945,165.149 178.745,164.332C179.423,164.135 180.096,163.921 180.764,163.693L268.731,251.66C265.638,252.8 262.329,253.417 258.889,253.417L236.346,253.417ZM277.664,246.451L190.38,159.167C192.893,157.627 195.266,155.86 197.467,153.9C200.071,151.582 202.434,148.996 204.52,146.203C207.672,141.981 210.185,137.29 211.984,132.338C213.431,128.354 214.415,124.203 214.923,119.995C215.089,118.624 215.204,117.247 215.269,115.868L258.889,115.868C276.071,115.868 290,131.264 290,150.255L290,219.03C290,230.226 285.159,240.172 277.664,246.451ZM120.184,151.397L103.333,162.035L68.333,184.132L68.333,147.549L41.111,147.549C23.929,147.549 10,132.153 10,113.162L10,44.387C10,43.358 10.041,42.34 10.121,41.334L120.184,151.397ZM164.623,147.552C153.242,147.587 141.861,147.557 130.479,147.55L12.871,29.942C16.194,22.017 22.167,15.727 29.532,12.461L164.623,147.552ZM176.552,145.339L41.213,10L165.556,10C182.737,10 196.667,25.396 196.667,44.387L196.667,113.162C196.667,114.393 196.608,115.608 196.494,116.806C196.486,116.888 196.478,116.97 196.469,117.053L196.464,117.11L196.455,117.189C196.443,117.303 196.431,117.416 196.418,117.53L196.417,117.541L196.413,117.569L196.391,117.756L196.37,117.927L196.365,117.971L196.362,117.991C196.347,118.114 196.33,118.237 196.313,118.36L196.308,118.398L196.301,118.45L196.285,118.561L196.251,118.795L196.247,118.824L196.244,118.842L196.205,119.097L196.19,119.187L196.181,119.249L196.172,119.302C196.153,119.415 196.134,119.528 196.115,119.641L196.11,119.671L196.095,119.754L196.07,119.898L196.05,120.005L196.035,120.092L196.025,120.141C196.006,120.246 195.986,120.35 195.965,120.454L195.955,120.511L195.935,120.608L195.917,120.696L195.892,120.817L195.87,120.928L195.851,121.014L195.806,121.226L195.798,121.263L195.781,121.343L195.76,121.435L195.748,121.49L195.715,121.631L195.687,121.756L195.657,121.882L195.625,122.017L195.612,122.072L195.589,122.167L195.569,122.246L195.561,122.28L195.512,122.473L195.486,122.576L195.456,122.693L195.426,122.805L195.406,122.882L195.379,122.982L195.362,123.044C195.336,123.142 195.309,123.241 195.281,123.339L195.268,123.387L195.24,123.485L195.211,123.588L195.179,123.697L195.152,123.79L195.139,123.832C195.109,123.936 195.078,124.039 195.047,124.142L195.032,124.191L195.008,124.266L194.978,124.366L194.93,124.518L194.908,124.589L194.9,124.613C194.865,124.722 194.83,124.831 194.794,124.94L194.779,124.985L194.76,125.042L194.728,125.139L194.658,125.344L194.646,125.379L194.643,125.388C194.603,125.502 194.564,125.615 194.523,125.729L194.509,125.771L194.493,125.815C194.451,125.93 194.41,126.045 194.367,126.16C194.324,126.276 194.281,126.392 194.237,126.507L194.222,126.547L194.196,126.614L194.147,126.74L194.099,126.861L194.072,126.931L194.055,126.975L194.033,127.029L193.936,127.269L193.918,127.313L193.904,127.349L193.798,127.603L193.781,127.645L193.761,127.693L193.723,127.781L193.677,127.889L193.637,127.981L193.599,128.07L193.572,128.13L193.553,128.173L193.483,128.331L193.433,128.444L193.381,128.558L193.299,128.739L193.289,128.76L193.263,128.816L193.208,128.934L193.168,129.02L193.138,129.083L193.089,129.186L193.051,129.265L193.034,129.3L192.985,129.401L192.912,129.553L192.798,129.78L192.76,129.857L192.758,129.861L192.73,129.917L192.658,130.058L192.619,130.133L192.597,130.177L192.545,130.278L192.495,130.372L192.476,130.409L192.435,130.486C192.318,130.707 192.199,130.926 192.078,131.144L192.032,131.227L192.013,131.261L191.966,131.346L191.908,131.446L191.88,131.497L191.837,131.572L191.765,131.696L191.733,131.752L191.725,131.766L191.654,131.886L191.561,132.043L191.48,132.178L191.407,132.299L191.389,132.328L191.353,132.388L191.293,132.485L191.245,132.563L191.198,132.639L191.142,132.729L191.105,132.787L191.081,132.826L190.989,132.97L190.927,133.068L190.914,133.087C190.853,133.182 190.792,133.277 190.73,133.371L190.708,133.404L190.653,133.485L190.573,133.606L190.526,133.676L190.486,133.736L190.447,133.793L190.399,133.863L190.308,133.996L190.26,134.066L190.242,134.091C190.175,134.189 190.106,134.286 190.038,134.382L190.031,134.392L189.999,134.437L189.864,134.625L189.825,134.678L189.798,134.715L189.756,134.773L189.681,134.875L189.627,134.947L189.562,135.035L189.479,135.145L189.418,135.227L189.377,135.28L189.323,135.352L189.209,135.498L189.151,135.575L189.126,135.606L189.08,135.666L188.908,135.882L188.879,135.92L188.872,135.928C186.609,138.757 183.933,141.17 180.946,143.053L180.919,143.07L180.83,143.126L180.714,143.198L180.627,143.251L180.546,143.301L180.458,143.354L180.385,143.398L180.354,143.417L180.169,143.527L180.101,143.566L180.053,143.595L180.018,143.615C179.928,143.667 179.837,143.72 179.746,143.771L179.719,143.787L179.683,143.807C179.586,143.862 179.489,143.916 179.391,143.97L179.382,143.975L179.36,143.986L179.213,144.067L179.131,144.11L179.043,144.158L178.948,144.208L178.862,144.254L178.787,144.292L178.702,144.337L178.595,144.391L178.508,144.436L178.442,144.469L178.359,144.511L178.237,144.571L178.152,144.613L178.096,144.64L178.013,144.681L177.874,144.747L177.794,144.786L177.747,144.807L177.665,144.847L177.508,144.919L177.433,144.954L177.395,144.971L177.315,145.007L177.138,145.086L177.07,145.117L177.04,145.129L176.963,145.164L176.766,145.248L176.705,145.274L176.681,145.284L176.609,145.315L176.552,145.339Z" style="fill:rgb(232,75,64);"/>
    </g>
    <g transform="matrix(0.915659,0.915659,-0.853553,0.853553,25.3022,8.2311)">
        <rect x="-8.989" y="0" width="308.989" height="20" style="fill:rgb(232,75,64);"/>
    </g>
</svg>
