<?xml version="1.0" encoding="utf-8"?>
<!-- Generator: Adobe Illustrator 21.1.0, SVG Export Plug-In . SVG Version: 6.00 Build 0)  -->
<svg version="1.1" id="Layer_1" xmlns="http://www.w3.org/2000/svg" xmlns:xlink="http://www.w3.org/1999/xlink" x="0px" y="0px"
	 viewBox="0 0 24 24" style="enable-background:new 0 0 24 24;" xml:space="preserve">
<style type="text/css">
	.st0{fill:#FFFFFF;}
</style>
<path id="Invite" class="st0" d="M14.7,19.7c0,0.6,0,1.1,0,1.7c0,0.1,0,0.2,0,0.2c0,0.1-0.1,0.2-0.2,0.3c0,0-0.1,0-0.1,0
	c0,0,0,0,0,0h0H0.5c0,0,0,0,0,0c0,0-0.1,0-0.1,0c-0.1-0.1-0.2-0.2-0.2-0.3c0-0.1,0-0.1,0-0.2v0v-2v-3C0.6,14.4,3.8,14,5.1,14h4.4
	c1.3,0,4.6,0.8,5.2,2.5L14.7,19.7L14.7,19.7z M7.3,2C9.9,2,12,4.1,12,6.7s-2.1,4.7-4.7,4.7c-2.6,0-4.7-2.1-4.7-4.7S4.8,2,7.3,2
	L7.3,2z M17.5,10h-2l0,0c-0.8,0-1.5,0.7-1.5,1.5s0.7,1.5,1.5,1.5h2v2c0,0.8,0.7,1.5,1.5,1.5s1.5-0.7,1.5-1.5v-2h2
	c0.8,0,1.5-0.7,1.5-1.5S23.3,10,22.5,10l0,0h-2V8c0-0.8-0.7-1.5-1.5-1.5S17.5,7.2,17.5,8l0,0V10z"/>
</svg>
