<?xml version="1.0" encoding="utf-8"?>
<!-- Generator: Adobe Illustrator 21.1.0, SVG Export Plug-In . SVG Version: 6.00 Build 0)  -->
<svg version="1.1" id="Layer_1" xmlns="http://www.w3.org/2000/svg" xmlns:xlink="http://www.w3.org/1999/xlink" x="0px" y="0px"
	 viewBox="0 0 24 24" style="enable-background:new 0 0 24 24;" xml:space="preserve">
<style type="text/css">
	.st0{fill:#B4C3D0;}
</style>
<path id="icon" class="st0" d="M8.9,15.4c-3.6,0-6.5-2.9-6.5-6.5s2.9-6.5,6.5-6.5s6.5,2.9,6.5,6.5S12.5,15.4,8.9,15.4L8.9,15.4z
	 M18,15.7l-1.5-0.1l-0.2-1.9c2.2-3.4,1.8-8.1-1.2-11.1C11.6-0.9,6-0.9,2.6,2.6c-3.5,3.5-3.5,9.1,0,12.6c3,3,7.7,3.4,11.1,1.2l2,0.1
	V18l5.2,6h1.5l1.5-1.5V21L18,15.7z"/>
</svg>
