<?xml version="1.0" encoding="utf-8"?>
<!-- Generator: Adobe Illustrator 20.0.0, SVG Export Plug-In . SVG Version: 6.00 Build 0)  -->
<svg version="1.1" id="Layer_1" xmlns="http://www.w3.org/2000/svg" xmlns:xlink="http://www.w3.org/1999/xlink" x="0px" y="0px"
	 viewBox="0 0 24 24" style="enable-background:new 0 0 24 24;" xml:space="preserve">
<style type="text/css">
	.st0{fill-rule:evenodd;clip-rule:evenodd;fill:#FFFFFF;}
</style>
<path class="st0" d="M12.9,13.2H0v-2.4h12.9V8l4.1,4l-4.1,4V13.2z M20.9,0H9.1C7.4,0,6,1.4,6,3.1v5.3h2.6V3.1c0-0.3,0.3-0.6,0.6-0.6
	h11.6c0.3,0,0.6,0.3,0.6,0.6v17.8c0,0.3-0.2,0.6-0.6,0.6H9.2c-0.3,0-0.6-0.3-0.6-0.6v-5.3H6v5.3C6,22.6,7.4,24,9.1,24h11.8
	c1.7,0,3.1-1.4,3.1-3.1V3.1C24,1.4,22.6,0,20.9,0z"/>
</svg>
