<?xml version="1.0" encoding="utf-8"?>
<!-- Generator: Adobe Illustrator 21.1.0, SVG Export Plug-In . SVG Version: 6.00 Build 0)  -->
<svg version="1.1" id="Layer_1" xmlns="http://www.w3.org/2000/svg" xmlns:xlink="http://www.w3.org/1999/xlink" x="0px" y="0px"
	 viewBox="0 0 24 24" style="enable-background:new 0 0 24 24;" xml:space="preserve">
<style type="text/css">
	.st0{fill:#B4C3D0;}
</style>
<path class="st0" d="M22.4,12.8L20,10.4c0,0,0.4,2.1-0.8,4l0.8,0.8l0,0c0.9,0.9,0.9,2.3,0,3.1l-1.6,1.6c-0.9,0.9-2.3,0.9-3.2,0
	l-5.6-5.6c-0.9-0.9-0.9-2.4,0-3.2l1.6-1.6L8.8,7.2L7.2,8.8c-0.6,0.6-1,1.2-1.3,2c-0.8,2-0.4,4.4,1.3,6.1l5.6,5.6
	c2.2,2.2,5.8,2.1,8,0l1.6-1.6C24.6,18.5,24.6,15,22.4,12.8z M18,13.3c0.8-2,0.4-4.4-1.2-6l-5.6-5.6c-2.2-2.2-5.8-2.2-8,0L1.7,3.2
	c-2.2,2.2-2.2,5.8,0,8L4,13.6c0,0-0.4-2.1,0.8-4L4.1,8.8C3.2,8,3.2,6.5,4.1,5.6L5.6,4c0.9-0.9,2.3-0.8,3.2,0l5.5,5.5l0,0
	c0.9,0.9,0.9,2.3,0,3.1l-1.6,1.6l0,0l2.4,2.4l0,0l1.6-1.6C17.4,14.6,17.8,14,18,13.3z"/>
</svg>
