<?xml version="1.0" encoding="utf-8"?>
<!-- Generator: Adobe Illustrator 21.0.2, SVG Export Plug-In . SVG Version: 6.00 Build 0)  -->
<svg version="1.1" id="Layer_1" xmlns="http://www.w3.org/2000/svg" xmlns:xlink="http://www.w3.org/1999/xlink" x="0px" y="0px"
	 viewBox="0 0 490 617" style="enable-background:new 0 0 490 617;" xml:space="preserve">
<style type="text/css">
	.st0{fill:#717171;}
</style>
<path class="st0" d="M444.7,259.1l-128,128c-35.4,35.4-92.6,35.4-128,0l-19-19l44-41.4l17.7,17.7c11.9,11.8,30.9,11.8,42.7,0
	L402,216.5c11.8-11.9,11.8-30.9,0-42.7l-21.4-21.4c-11.8-11.8-30.8-11.8-42.7,0L312,178.3c-24.7-13.8-54.2-15.7-80.1-5.2l63.3-63.3
	c35.4-35.4,92.6-35.4,128,0l21.4,21.4C480,166.5,480,223.7,444.7,259.1z M178,439.2l-25.9,25.9c-11.8,11.8-30.9,11.8-42.7,0
	L88,443.8c-11.8-11.8-11.8-30.8,0-42.7l128-127.9c11.8-11.8,30.8-11.8,42.7,0l17.7,17.7l44-41.4l-19-19c-35.4-35.4-92.6-35.4-128,0
	l-128.1,128c-35.4,35.4-35.4,92.6,0,128l21.4,21.4c35.4,35.4,92.6,35.4,128,0l63.3-63.3C232.2,455,202.7,453,178,439.2z"/>
</svg>
