<?xml version="1.0" encoding="utf-8"?>
<!-- Generator: Adobe Illustrator 19.2.1, SVG Export Plug-In . SVG Version: 6.00 Build 0)  -->
<svg version="1.1" id="Layer_1" xmlns="http://www.w3.org/2000/svg" xmlns:xlink="http://www.w3.org/1999/xlink" x="0px" y="0px"
	 viewBox="0 0 162.9 208.2" style="enable-background:new 0 0 162.9 208.2;" xml:space="preserve">
<style type="text/css">
	.st0{fill:#FF1100;}
</style>
<path id="Page-1" class="st0" d="M138.6,70.8H129v-19c0-26.3-21.3-47.6-47.6-47.6c-26.3,0-47.6,21.3-47.6,47.6v19h-9.5
	c-10.5,0-19,8.6-19,19V185c0,10.5,8.6,19,19,19h114.2c10.5,0,19-8.6,19-19V89.8C157.6,79.4,149,70.8,138.6,70.8L138.6,70.8z
	 M81.5,156.4c-10.5,0-19-8.6-19-19s8.6-19,19-19s19,8.6,19,19S91.9,156.4,81.5,156.4L81.5,156.4z M111,70.8H52v-19
	c0-16.3,13.2-29.5,29.5-29.5S111,35.5,111,51.8V70.8L111,70.8z"/>
</svg>
