<?xml version="1.0" encoding="UTF-8"?>
<svg width="24px" height="16px" viewBox="0 0 24 16" version="1.1" xmlns="http://www.w3.org/2000/svg" xmlns:xlink="http://www.w3.org/1999/xlink">
    <!-- Generator: Sketch 40.3 (33839) - http://www.bohemiancoding.com/sketch -->
    <title>Shape</title>
    <desc>Created with Sketch.</desc>
    <defs></defs>
    <g id="Page-1" stroke="none" stroke-width="1" fill="none" fill-rule="evenodd">
        <g id="02.-Contact-Details---Online" transform="translate(-507.000000, -462.000000)" fill="#4E83BF">
            <g id="contact-details" transform="translate(320.000000, -5.000000)">
                <g id="contact-options" transform="translate(90.000000, 257.000000)">
                    <g id="Group-2" transform="translate(1.000000, 188.000000)">
                        <path d="M96,22 L96,38 L120,38 L120,22 L96,22 L96,22 Z M108,31 L98,23 L118,23 L108,31 L108,31 Z M97,37 L97,24 L104.19375,29.3239832 L99.9375,34.0219729 L100.0625,34.143525 L104.99375,29.913511 L108,32.1379149 L111.00625,29.913511 L115.9375,34.143525 L116.0625,34.0219729 L111.80625,29.3179056 L119,24 L119,37 L97,37 L97,37 Z" id="Shape"></path>
                    </g>
                </g>
            </g>
        </g>
    </g>
</svg>