<?xml version="1.0" encoding="utf-8"?>
<!-- Generator: Adobe Illustrator 19.1.0, SVG Export Plug-In . SVG Version: 6.00 Build 0)  -->
<svg version="1.1" id="Layer_1" xmlns="http://www.w3.org/2000/svg" xmlns:xlink="http://www.w3.org/1999/xlink" x="0px" y="0px"
	 viewBox="100 -100 300 300" style="enable-background:new 100 -100 300 300;" xml:space="preserve">
<style type="text/css">
	.st0{fill:#FFFFFF;}
	.st1{fill:none;}
</style>
<path class="st0" d="M350.2,49.5v99.9H250v-24h55.5L250.1,70l19.7-20.1l56.4,56.4V49.5H350.2z M230.2,50.1l0.6-0.6h-1.2L230.2,50.1z
	 M249.9,30l0.1,0.1v-0.2L249.9,30z M250,70.1l0.1-0.1l-0.1-0.1V70.1z M269.4,49.5l0.4,0.4l0.4-0.4H269.4z M250-50.4h-99.6v99.9h24
	V-5.7l55.2,55.2h1.2L249.9,30l-56.4-56.4H250V-50.4z"/>
<line class="st1" x1="270.2" y1="49.5" x2="269.4" y2="49.5"/>
<line class="st1" x1="250" y1="30.1" x2="250" y2="29.9"/>
<line class="st1" x1="250" y1="70.1" x2="250" y2="69.9"/>
</svg>
