<?xml version="1.0" standalone="no"?>
<!DOCTYPE svg PUBLIC "-//W3C//DTD SVG 1.1//EN" "http://www.w3.org/Graphics/SVG/1.1/DTD/svg11.dtd">
<svg width="300px" height="300px" version="1.1" xmlns="http://www.w3.org/2000/svg" xmlns:xlink="http://www.w3.org/1999/xlink" xml:space="preserve" style="fill-rule:evenodd;clip-rule:evenodd;stroke-linejoin:round;stroke-miterlimit:1.41421;">
    <g>
        <g id="Layer22">
            <g>
                <path d="M187.5,210.938L187.5,243.75L56.25,243.75L56.25,150L112.5,150L112.5,117.188L243.75,117.188L243.75,210.938L187.5,210.938Z" style="fill:white;fill-opacity:0.745098;"/>
            </g>
            <g>
                <path d="M232.031,18.2706C232.031,15.9465 230.147,14.0625 227.823,14.0625L208.114,14.0625C205.79,14.0625 203.906,15.9465 203.906,18.2706L203.906,59.1489C203.906,61.4729 205.79,63.3569 208.114,63.3569L227.823,63.3569C230.147,63.3569 232.031,61.4729 232.031,59.1489L232.031,18.2706Z" style="fill:white;"/>
            </g>
            <g>
                <path d="M96.0938,18.1949C96.0938,15.8708 94.2097,13.9868 91.8857,13.9868L72.1768,13.9868C69.8528,13.9868 67.9688,15.8708 67.9688,18.1949L67.9688,59.0732C67.9688,61.3972 69.8528,63.2812 72.1768,63.2812L91.8857,63.2812C94.2097,63.2812 96.0938,61.3972 96.0938,59.0732L96.0938,18.1949Z" style="fill:white;"/>
            </g>
            <g>
                <path d="M232.031,18.2706C232.031,15.9465 230.147,14.0625 227.823,14.0625L208.114,14.0625C205.79,14.0625 203.906,15.9465 203.906,18.2706L203.906,59.1489C203.906,61.4729 205.79,63.3569 208.114,63.3569L227.823,63.3569C230.147,63.3569 232.031,61.4729 232.031,59.1489L232.031,18.2706Z" style="fill:white;"/>
            </g>
            <g>
                <path d="M96.0938,18.1949C96.0938,15.8708 94.2097,13.9868 91.8857,13.9868L72.1768,13.9868C69.8528,13.9868 67.9688,15.8708 67.9688,18.1949L67.9688,59.0732C67.9688,61.3972 69.8528,63.2812 72.1768,63.2812L91.8857,63.2812C94.2097,63.2812 96.0938,61.3972 96.0938,59.0732L96.0938,18.1949Z" style="fill:white;"/>
            </g>
            <path d="M250.829,28.125L267.187,28.125C274.954,28.125 281.25,34.421 281.25,42.1875L281.25,70.3125C281.25,78.079 274.954,84.375 267.187,84.375L32.8125,84.375C25.046,84.375 18.75,78.079 18.75,70.3125L18.75,42.1875C18.75,34.421 25.046,28.125 32.8125,28.125L49.1714,28.125C49.1379,38.4997 49.154,48.8755 49.2195,59.2508C49.2315,60.2006 49.2903,61.1488 49.4171,62.0905C49.5196,62.8513 49.655,63.6079 49.8332,64.3546C50.0355,65.2024 50.2836,66.0371 50.5773,66.8577C50.8927,67.7391 51.2679,68.5985 51.6886,69.4346C52.2695,70.5894 52.9556,71.6902 53.7222,72.7305C54.4168,73.6733 55.1883,74.564 56.0221,75.3861C56.6732,76.028 57.3587,76.6357 58.0817,77.1956C59.9881,78.672 62.1199,79.8594 64.3916,80.6725C65.2125,80.9663 66.0475,81.2145 66.8956,81.4168C67.6423,81.595 68.3989,81.7305 69.1596,81.8329C70.1401,81.965 71.1284,82.025 72.1174,82.0313C78.7662,82.0313 85.4152,82.0726 92.0639,82.0305C93.0135,82.0185 93.9616,81.9597 94.9031,81.8329C95.6637,81.7304 96.4203,81.595 97.1669,81.4168C98.0149,81.2145 98.8498,80.9663 99.6706,80.6726C101.942,79.8595 104.074,78.672 105.981,77.1954C106.704,76.6355 107.389,76.028 108.04,75.3861C108.953,74.4866 109.783,73.5054 110.533,72.467C111.224,71.5085 111.842,70.4917 112.373,69.4356C112.794,68.5994 113.17,67.7397 113.485,66.8581C113.779,66.0373 114.027,65.2024 114.229,64.3544C114.408,63.6075 114.543,62.8508 114.645,62.0899C114.772,61.1486 114.831,60.2008 114.843,59.2514C114.909,48.8761 114.925,38.5002 114.891,28.125L185.109,28.125C185.076,38.5249 185.092,48.9256 185.157,59.3259C185.169,60.2763 185.228,61.2253 185.355,62.1677C185.457,62.9278 185.593,63.6839 185.771,64.4301C185.973,65.2778 186.221,66.1125 186.515,66.933C187.328,69.205 188.515,71.3372 189.992,73.2439C190.552,73.967 191.16,74.6526 191.802,75.3038C192.701,76.2159 193.682,77.0462 194.72,77.7957C195.679,78.4877 196.696,79.1053 197.752,79.6367C198.588,80.0574 199.448,80.4327 200.329,80.7482C201.15,81.042 201.985,81.2902 202.833,81.4925C203.58,81.6707 204.336,81.8061 205.097,81.9086C206.077,82.0406 207.066,82.1007 208.055,82.1069C214.704,82.1069 221.353,82.1483 228.001,82.1062C228.951,82.0941 229.899,82.0354 230.841,81.9086C231.601,81.8061 232.358,81.6707 233.104,81.4925C233.952,81.2902 234.787,81.0421 235.608,80.7484C236.489,80.4329 237.349,80.0575 238.185,79.6367C239.242,79.1053 240.258,78.4877 241.217,77.7957C242.255,77.0462 243.236,76.2159 244.136,75.3038C244.778,74.6525 245.386,73.9667 245.946,73.2433C247.423,71.3367 248.61,69.2048 249.423,66.933C249.716,66.1125 249.965,65.2778 250.167,64.4301C250.345,63.6831 250.481,62.9262 250.583,62.1652C250.71,61.2244 250.768,60.2771 250.78,59.3284C250.847,48.9275 250.863,38.526 250.829,28.125Z" style="fill:white;"/>
            <path d="M262.5,107.538C262.5,102.512 258.426,98.4375 253.399,98.4375L46.6006,98.4375C41.5745,98.4375 37.5,102.512 37.5,107.538L37.5,253.399C37.5,258.426 41.5745,262.5 46.6006,262.5L253.399,262.5C258.426,262.5 262.5,258.426 262.5,253.399L262.5,107.538ZM244.43,75L256.95,75C270.266,75 281.061,86.3011 281.061,100.242L281.061,255.712C281.061,269.652 270.266,280.953 256.95,280.953L42.8618,280.953C29.5452,280.953 18.75,269.652 18.75,255.712L18.75,100.242C18.75,86.3011 29.5452,75 42.8618,75L55.6403,75C55.7655,75.1299 55.893,75.2588 56.0221,75.3861C56.6732,76.028 57.3587,76.6357 58.0817,77.1956C59.9881,78.672 62.1199,79.8594 64.3916,80.6725C65.2125,80.9663 66.0475,81.2145 66.8956,81.4168C67.6423,81.595 68.3989,81.7305 69.1596,81.8329C70.1401,81.965 71.1284,82.025 72.1174,82.0313C78.7662,82.0313 85.4152,82.0726 92.0639,82.0305C93.0135,82.0185 93.9616,81.9597 94.9031,81.8329C95.6637,81.7304 96.4203,81.595 97.1669,81.4168C98.0149,81.2145 98.8498,80.9663 99.6706,80.6726C101.942,79.8595 104.074,78.672 105.981,77.1954C106.704,76.6355 107.389,76.028 108.04,75.3861C108.169,75.259 108.297,75.1303 108.422,75L191.507,75C191.605,75.1026 191.703,75.2036 191.802,75.3038C192.701,76.2159 193.682,77.0462 194.72,77.7957C195.679,78.4877 196.696,79.1053 197.752,79.6367C198.588,80.0574 199.448,80.4327 200.329,80.7482C201.15,81.042 201.985,81.2902 202.833,81.4925C203.58,81.6707 204.336,81.8061 205.097,81.9086C206.077,82.0406 207.066,82.1007 208.055,82.1069C214.704,82.1069 221.353,82.1483 228.001,82.1062C228.951,82.0941 229.899,82.0354 230.841,81.9086C231.601,81.8061 232.358,81.6707 233.104,81.4925C233.952,81.2902 234.787,81.0421 235.608,80.7484C236.489,80.4329 237.349,80.0575 238.185,79.6367C239.242,79.1053 240.258,78.4877 241.217,77.7957C242.255,77.0462 243.236,76.2159 244.136,75.3038C244.235,75.2036 244.333,75.1025 244.43,75Z" style="fill:white;"/>
        </g>
    </g>
</svg>
