<?xml version="1.0" encoding="UTF-8"?>
<svg width="28px" height="28px" viewBox="0 0 28 28" version="1.1" xmlns="http://www.w3.org/2000/svg" xmlns:xlink="http://www.w3.org/1999/xlink">
    <!-- Generator: Sketch 41 (35326) - http://www.bohemiancoding.com/sketch -->
    <title>Shape</title>
    <desc>Created with Sketch.</desc>
    <defs></defs>
    <g id="Page-1" stroke="none" stroke-width="1" fill="none" fill-rule="evenodd" opacity="0.7">
        <g id="UX-82-Automatic-Reconnect" transform="translate(-3961.000000, -1176.000000)" fill="#FFFFFF">
            <g id="Chat-panel" transform="translate(3929.000000, 867.000000)">
                <g id="error" transform="translate(32.000000, 309.000000)">
                    <path d="M14,0 C6.3,0 0,6.3 0,14 C0,21.7 6.3,28 14,28 C21.7,28 28,21.7 28,14 C28,6.3 21.7,0 14,0 L14,0 Z M15.4,21 L12.6,21 L12.6,18.2 L15.4,18.2 L15.4,21 L15.4,21 Z M15.4,15.4 L12.6,15.4 L12.6,7 L15.4,7 L15.4,15.4 L15.4,15.4 Z" id="Shape"></path>
                </g>
            </g>
        </g>
    </g>
</svg>