<?xml version="1.0" encoding="utf-8"?>
<!-- Generator: Adobe Illustrator 21.1.0, SVG Export Plug-In . SVG Version: 6.00 Build 0)  -->
<svg version="1.1" id="Layer_1" xmlns="http://www.w3.org/2000/svg" xmlns:xlink="http://www.w3.org/1999/xlink" x="0px" y="0px"
	 viewBox="0 0 24 24" style="enable-background:new 0 0 24 24;" xml:space="preserve">
<style type="text/css">
	.st0{fill:#B4C3D0;}
</style>
<path id="mic_grey" class="st0" d="M17.7,11.5c0,3.2-2.7,5.4-5.7,5.4c-3,0-5.7-2.2-5.7-5.4H4.5c0,3.6,2.9,6.6,6.4,7.1V22h2.1v-3.5
	c3.5-0.5,6.4-3.5,6.4-7.1H17.7z M12,14.6c1.8,0,3.2-1.4,3.2-3.2l0-6.3C15.2,3.4,13.8,2,12,2c-1.8,0-3.2,1.4-3.2,3.2v6.3
	C8.8,13.2,10.2,14.6,12,14.6L12,14.6z"/>
</svg>
