<?xml version="1.0" encoding="utf-8"?>
<!-- Generator: Adobe Illustrator 19.1.0, SVG Export Plug-In . SVG Version: 6.00 Build 0)  -->
<svg version="1.1" id="Layer_1" xmlns="http://www.w3.org/2000/svg" xmlns:xlink="http://www.w3.org/1999/xlink" x="0px" y="0px"
	 viewBox="0 0 1000 1000" style="enable-background:new 0 0 1000 1000;" xml:space="preserve">
<style type="text/css">
	.st0{fill:#464646;}
</style>
<path class="st0" d="M868.4,473.7h-89.5c0,39.2-8.2,75.5-22.9,107.9l64.7,64.7C850.8,595,868.4,536.3,868.4,473.7z M657.1,482.4
	c0-2.9,0.8-5.8,0.8-8.7V157.9C657.9,70.5,587.1,0,500,0S342.1,70.5,342.1,157.9v9.7L657.1,482.4z M93.4,52.6l-67.1,67.1l316.3,316.3
	v37.9c0,87.1,70.3,157.9,157.4,157.9c11.8,0,23.2-1.6,34.2-3.9l87.4,87.4c-37.6,17.4-78.9,27.1-121.6,27.1
	c-145.3,0-278.9-110.5-278.9-268.4h-89.5c0,179.7,143.2,328.2,315.8,353.7V1000h105.3V827.4c47.6-7.1,92.9-23.7,133.7-47.6
	L906.6,1000l67.1-66.8L93.4,52.6z"/>
</svg>