<?xml version="1.0" encoding="UTF-8"?>
<svg width="48px" height="48px" viewBox="0 0 48 48" version="1.1" xmlns="http://www.w3.org/2000/svg" xmlns:xlink="http://www.w3.org/1999/xlink">
    <!-- Generator: sketchtool 53.2 (72643) - https://sketchapp.com -->
    <title>792E0DE3-33C6-439A-99E3-CF46FFEE1664</title>
    <desc>Created with sketchtool.</desc>
    <defs>
        <path d="M24,47 C36.7025492,47 47,36.7025492 47,24 C47,11.2974508 36.7025492,1 24,1 C11.2974508,1 1,11.2974508 1,24 C1,36.7025492 11.2974508,47 24,47 Z M24,48 C10.745166,48 0,37.254834 0,24 C0,10.745166 10.745166,0 24,0 C37.254834,0 48,10.745166 48,24 C48,37.254834 37.254834,48 24,48 Z" id="path-1"></path>
        <circle id="path-3" cx="23" cy="23" r="23"></circle>
        <path d="M12,14.631584 C13.8914286,14.631584 15.4171429,13.215794 15.4171429,11.473688 L15.4285714,5.157896 C15.4285714,3.41052688 13.8971429,2 12,2 C10.1085714,2 8.57142857,3.41052688 8.57142857,5.157896 L8.57142857,11.473688 C8.57142857,13.215794 10.1085714,14.631584 12,14.631584 L12,14.631584 Z M18.0571429,11.473688 C18.0571429,14.631584 15.16,16.8421112 12,16.8421112 C8.84571429,16.8421112 5.94285714,14.631584 5.94285714,11.473688 L4,11.473688 C4,15.0684263 7.10857143,18.0368485 10.8571429,18.547375 L10.8571429,22.000008 L13.1428571,22.000008 L13.1428571,18.547375 C16.8914286,18.0368485 20,15.0684263 20,11.473688 L18.0571429,11.473688 L18.0571429,11.473688 Z" id="path-5"></path>
    </defs>
    <g id="Asset-Artboard-Page" stroke="none" stroke-width="1" fill="none" fill-rule="evenodd">
        <g id="Microphone-button-Components/Forms/Buttons/In-call/Microphone">
            <g id="Border">
                <mask id="mask-2" fill="white">
                    <use xlink:href="#path-1"></use>
                </mask>
                <g fill-rule="nonzero"></g>
            </g>
            <g id="BG-button" transform="translate(1.000000, 1.000000)">
                <mask id="mask-4" fill="white">
                    <use xlink:href="#path-3"></use>
                </mask>
                <g id="BG-buttom"></g>
            </g>
            <g id="Icon-Style/Icons/In-call-toolbar/ic_mic/ic_mic" transform="translate(12.000000, 12.000000)">
                <mask id="mask-6" fill="white">
                    <use xlink:href="#path-5"></use>
                </mask>
                <use id="ic_mic" fill="#FFFFFF" xlink:href="#path-5"></use>
                <g id="Icon-color-Style/Сolors/Gray/neutral-10" mask="url(#mask-6)" fill="#FFFFFF">
                    <rect id="color" x="0" y="0" width="24" height="24"></rect>
                </g>
            </g>
        </g>
    </g>
</svg>