<?xml version="1.0" encoding="utf-8"?>
<!-- Generator: Adobe Illustrator 19.1.0, SVG Export Plug-In . SVG Version: 6.00 Build 0)  -->
<svg version="1.1" id="Layer_1" xmlns="http://www.w3.org/2000/svg" xmlns:xlink="http://www.w3.org/1999/xlink" x="0px" y="0px"
	 viewBox="-349 351 300 300" style="enable-background:new -349 351 300 300;" xml:space="preserve">
<style type="text/css">
	.st0{fill:#FFFFFF;}
	.st1{fill:none;}
</style>
<path class="st0" d="M-223.9,376.2v99.9h-100.2v-24h55.5l-55.4-55.4l19.7-20.1l56.4,56.4v-56.8H-223.9z M-219.1,501.6l0.6-0.6h-1.2
	L-219.1,501.6z M-199.4,481.5l0.1,0.1v-0.2L-199.4,481.5z M-199.3,521.6l0.1-0.1l-0.1-0.1V521.6z M-179.9,501l0.4,0.4l0.4-0.4
	H-179.9z M-73.9,526h-99.6v99.9h24v-55.2l55.2,55.2h1.2l19.1-19.5l-56.4-56.4h56.5V526z"/>
<line class="st1" x1="-78.8" y1="400.5" x2="-79.6" y2="400.5"/>
<line class="st1" x1="-99" y1="381.1" x2="-99" y2="380.9"/>
<line class="st1" x1="-99" y1="421.1" x2="-99" y2="420.9"/>
</svg>
