<?xml version="1.0" encoding="UTF-8" standalone="no"?>
<!DOCTYPE svg PUBLIC "-//W3C//DTD SVG 1.1//EN" "http://www.w3.org/Graphics/SVG/1.1/DTD/svg11.dtd">
<svg width="100%" height="100%" viewBox="0 0 306 306" version="1.1" xmlns="http://www.w3.org/2000/svg" xmlns:xlink="http://www.w3.org/1999/xlink" xml:space="preserve" style="fill-rule:evenodd;clip-rule:evenodd;">
    <g id="Stand" transform="matrix(1,0,0,1,-47,-6)">
        <path d="M238.5,271L161.5,271C163.7,271 165.5,269.2 165.5,266.9L165.5,244L234.5,244L234.5,266.9C234.5,269.2 236.3,271 238.5,271Z" style="fill:url(#_Radial1);"/>
    </g>
    <g id="Base" transform="matrix(1,0,0,1,-47,-6)">
        <path d="M244,281L156,281C153.3,281 151,278.8 151,276C151,273.3 153.2,271 156,271L244,271C246.7,271 249,273.2 249,276C249,278.8 246.8,281 244,281Z" style="fill:url(#_Radial2);"/>
    </g>
    <g id="Frame" transform="matrix(1,0,0,1,-47,-6)">
        <rect x="47" y="38" width="306" height="206" style="fill:url(#_Radial3);stroke:rgb(229,229,229);stroke-width:0.25px;"/>
    </g>
    <g id="Screen_2_" transform="matrix(1,0,0,1,-47,-6)">
        <rect x="57.5" y="52" width="285" height="178.4" style="fill:url(#_Radial4);stroke:rgb(229,229,229);stroke-width:1px;"/>
    </g>
    <defs>
        <radialGradient id="_Radial1" cx="0" cy="0" r="1" gradientUnits="userSpaceOnUse" gradientTransform="matrix(33.8924,0,0,33.8924,208.667,254.167)"><stop offset="0%" style="stop-color:rgb(237,237,237);stop-opacity:1"/><stop offset="100%" style="stop-color:rgb(172,172,172);stop-opacity:1"/></radialGradient>
        <radialGradient id="_Radial2" cx="0" cy="0" r="1" gradientUnits="userSpaceOnUse" gradientTransform="matrix(34.8258,0,0,34.8258,200,276.033)"><stop offset="0%" style="stop-color:rgb(237,237,237);stop-opacity:1"/><stop offset="100%" style="stop-color:rgb(172,172,172);stop-opacity:1"/></radialGradient>
        <radialGradient id="_Radial3" cx="0" cy="0" r="1" gradientUnits="userSpaceOnUse" gradientTransform="matrix(296.03,0,0,296.03,374,23)"><stop offset="0%" style="stop-color:rgb(237,237,237);stop-opacity:1"/><stop offset="100%" style="stop-color:rgb(172,172,172);stop-opacity:1"/></radialGradient>
        <radialGradient id="_Radial4" cx="0" cy="0" r="1" gradientUnits="userSpaceOnUse" gradientTransform="matrix(264.199,0,0,218.164,201.577,70.8036)"><stop offset="0%" style="stop-color:rgb(10,82,134);stop-opacity:1"/><stop offset="100%" style="stop-color:rgb(0,3,5);stop-opacity:1"/></radialGradient>
    </defs>
</svg>
