<?xml version="1.0" standalone="no"?>
<!DOCTYPE svg PUBLIC "-//W3C//DTD SVG 1.1//EN" "http://www.w3.org/Graphics/SVG/1.1/DTD/svg11.dtd">
<svg width="100%" height="100%" viewBox="0 0 48 48" version="1.1" xmlns="http://www.w3.org/2000/svg" xmlns:xlink="http://www.w3.org/1999/xlink" xml:space="preserve" style="fill-rule:evenodd;clip-rule:evenodd;stroke-linejoin:round;stroke-miterlimit:1.41421;">
    <path d="M23.6934,28.8237C23.8761,28.6904 24.1239,28.6904 24.3066,28.8237C25.2803,29.5343 28.3419,31.7684 30.1084,33.0575C30.2904,33.1903 30.5371,33.1908 30.7197,33.0589C30.9023,32.9269 30.9792,32.6924 30.9101,32.4779C30.2417,30.401 29.0848,26.8062 28.7163,25.6612C28.647,25.446 28.7247,25.2107 28.9085,25.079C29.8797,24.3834 32.9142,22.2101 34.6833,20.943C34.867,20.8114 34.9448,20.5763 34.8757,20.3611C34.8066,20.1459 34.6064,20 34.3804,20C32.2046,20 28.4725,20 27.2789,20C27.0531,20 26.8531,19.8543 26.7838,19.6394C26.4046,18.4626 25.188,14.6868 24.4951,12.5365C24.4258,12.3216 24.2258,12.1758 24,12.1758C23.7742,12.1758 23.5742,12.3216 23.5049,12.5365C22.812,14.6868 21.5954,18.4626 21.2162,19.6394C21.1469,19.8543 20.9469,20 20.7211,20C19.5275,20 15.7954,20 13.6196,20C13.3936,20 13.1934,20.1459 13.1243,20.3611C13.0552,20.5763 13.133,20.8114 13.3167,20.943C15.0858,22.2101 18.1203,24.3834 19.0915,25.079C19.2753,25.2107 19.353,25.446 19.2837,25.6612C18.9152,26.8062 17.7583,30.401 17.0899,32.4779C17.0208,32.6924 17.0977,32.9269 17.2803,33.0589C17.4629,33.1908 17.7096,33.1903 17.8916,33.0575C19.6581,31.7684 22.7197,29.5343 23.6934,28.8237Z" style="fill:none;stroke-width:1.5px;stroke:rgb(255,165,0);"/>
</svg>
