<?xml version="1.0" encoding="utf-8"?>
<!-- Generator: Adobe Illustrator 21.0.2, SVG Export Plug-In . SVG Version: 6.00 Build 0)  -->
<svg version="1.1" id="Layer_1" xmlns="http://www.w3.org/2000/svg" xmlns:xlink="http://www.w3.org/1999/xlink" x="0px" y="0px"
	 viewBox="0 0 27.9 20" style="enable-background:new 0 0 27.9 20;" xml:space="preserve">
<style type="text/css">
	.st0{fill:#E6E6E6;}
</style>
<path class="st0" d="M8.6,12.6c-0.2-0.1-0.5-0.1-0.6-0.3c-0.1-0.2-0.1-0.4-0.1-0.6c0-0.2,0-0.3,0-0.5c0-0.1,0.3-0.3,0.4-0.4
	c0.2-0.4,0.3-0.9,0.3-1.3C8.9,9.5,8.9,8.8,9,8.6c0-0.1,0.4-1.1-0.1-1C9,7.4,9,7.2,9.1,7c0.1-0.5,0.1-1.1,0-1.7
	C8.7,4.2,7.5,3.6,6.4,3.6C5.2,3.5,4,4.1,3.5,5.2C3.3,5.7,3.3,6.3,3.4,6.8c0,0.3,0.1,0.5,0.2,0.8C3.2,7.5,3.4,8.3,3.4,8.5
	c0.1,0.2,0.1,1,0.5,0.9c0,0.3,0.1,0.7,0.2,1c0.1,0.2,0.2,0.4,0.4,0.6c0.1,0.1,0.1,0.1,0.1,0.2c0,0.3,0,0.7-0.1,1s-0.8,0.5-1.1,0.5
	c-0.8,0.2-1.6,0.2-2.2,0.7C0.4,14,0,14.8,0,15.7h8.2c0.1,0,0.4-0.3,0.9-0.6c0.5-0.2,1.1-0.4,1.1-0.4s1.8-0.5,2-0.5
	c-0.7-1.1-1.1-1.1-1.7-1.2C9.8,12.8,9.2,12.8,8.6,12.6z M24.6,15.5c-1-0.3-2-0.3-3-0.7c-0.3-0.1-0.9-0.2-1-0.5
	c-0.1-0.3-0.1-0.7-0.1-1c0-0.3,0-0.5,0-0.8c0-0.2,0.5-0.5,0.6-0.7c0.4-0.6,0.4-1.5,0.5-2.2c0.6,0.2,0.7-1,0.8-1.3
	c0.1-0.2,0.6-1.9-0.2-1.6c0.2-0.3,0.3-0.7,0.3-1c0.1-0.9,0.2-1.9-0.1-2.7c-0.6-1.8-2.4-2.8-4.3-2.9c-1.9-0.1-3.8,0.8-4.6,2.6
	c-0.3,0.9-0.3,1.8-0.2,2.7c0.1,0.4,0.1,0.9,0.3,1.3c-0.7-0.2-0.3,1.2-0.2,1.5c0.1,0.4,0.2,1.6,0.9,1.5c0.1,0.6,0.1,1.1,0.3,1.7
	c0.1,0.4,0.3,0.7,0.6,1c0.1,0.1,0.2,0.2,0.2,0.3c0,0.5,0,1.1-0.1,1.7S13.8,15,13.3,15c-1.3,0.3-2.5,0.4-3.6,1.2
	c-1.3,0.9-1.9,2.3-1.9,3.8h18h2C27.9,18,26.6,16.1,24.6,15.5L24.6,15.5z"/>
</svg>
