<?xml version="1.0" encoding="utf-8"?>
<!-- Generator: Adobe Illustrator 21.0.2, SVG Export Plug-In . SVG Version: 6.00 Build 0)  -->
<svg version="1.1" id="Layer_1" xmlns="http://www.w3.org/2000/svg" xmlns:xlink="http://www.w3.org/1999/xlink" x="0px" y="0px"
	 viewBox="0 0 23 23" style="enable-background:new 0 0 23 23;" xml:space="preserve">
<style type="text/css">
	.st0{fill:#B4C3D0;}
</style>
<path class="st0" d="M11.5,9.5c1.1,0,2,0.9,2,2s-0.9,2-2,2s-2-0.9-2-2S10.4,9.5,11.5,9.5z M18,9.5c1.1,0,2,0.9,2,2s-0.9,2-2,2
	s-2-0.9-2-2S16.9,9.5,18,9.5z M5,9.5c1.1,0,2,0.9,2,2s-0.9,2-2,2s-2-0.9-2-2S3.9,9.5,5,9.5z"/>
</svg>
