<?xml version="1.0" standalone="no"?>
<!DOCTYPE svg PUBLIC "-//W3C//DTD SVG 1.1//EN" "http://www.w3.org/Graphics/SVG/1.1/DTD/svg11.dtd">
<svg width="100%" height="100%" viewBox="0 0 20 20" version="1.1" xmlns="http://www.w3.org/2000/svg" xmlns:xlink="http://www.w3.org/1999/xlink" xml:space="preserve" style="fill-rule:evenodd;clip-rule:evenodd;stroke-linejoin:round;stroke-miterlimit:1.41421;">
    <g id="Layer1">
        <g>
            <path d="M10.0014,1.24345e-14C11.1052,1.22125e-14 12,0.891915 12,1.99214C12,3.09237 11.1052,3.98428 10.0014,3.98428C8.89764,3.98428 8.00284,3.09237 8.00284,1.99214C8.00284,0.891915 8.89764,1.27676e-14 10.0014,1.24345e-14Z" style="fill:rgb(78,78,78);"/>
            <path d="M14,6.48672C14,5.47323 13.1792,4.6516 12.1667,4.6516L7.83332,4.6516C6.82084,4.6516 6,5.47323 6,6.48672L6,10.157C6,11.1705 6.82084,11.9921 7.83332,11.9921L12.1667,11.9921C13.1792,11.9921 14,11.1705 14,10.157L14,6.48672Z" style="fill:rgb(78,78,78);"/>
            <rect x="7.33333" y="6.41524" width="5.33333" height="13.5848" style="fill:rgb(78,78,78);"/>
            <path d="M15.2414,5.24719L18.3484,5.24719C19.2605,5.24719 20,5.98738 20,6.90042L20,10.2069C20,10.9637 19.4921,11.6017 18.7988,11.798L18.7988,19.0744L13.9941,19.0744L13.9941,13.0782C14.7897,12.6659 15.3333,11.8344 15.3333,10.8758L15.3333,5.91856C15.3333,5.68588 15.3013,5.4607 15.2414,5.24719ZM6.0059,13.0782L6.0059,19.0744L1.20118,19.0744L1.20118,11.798C0.507968,11.6017 2.15383e-14,10.9637 2.34257e-14,10.2069L3.21965e-14,6.90042C3.45279e-14,5.98738 0.739456,5.24719 1.65162,5.24719L4.75861,5.24719C4.6987,5.4607 4.66667,5.68588 4.66667,5.91856L4.66667,10.8758C4.66667,11.8344 5.21031,12.6659 6.0059,13.0782ZM16.3977,1C17.3921,1 18.1983,1.80351 18.1983,2.79469C18.1983,3.78587 17.3921,4.58938 16.3977,4.58938C15.4034,4.58938 14.5973,3.78587 14.5973,2.79469C14.5973,1.80351 15.4034,1 16.3977,1ZM3.60353,1C4.59792,1 5.40404,1.80351 5.40404,2.79469C5.40404,3.78587 4.59792,4.58938 3.60353,4.58938C2.60914,4.58938 1.80304,3.78587 1.80304,2.79469C1.80304,1.80351 2.60914,1 3.60353,1Z" style="fill:rgb(78,78,78);"/>
        </g>
    </g>
</svg>
