<?xml version="1.0" encoding="UTF-8" standalone="no"?>
<svg width="36px" height="36px" viewBox="0 0 36 36" version="1.1" xmlns="http://www.w3.org/2000/svg" xmlns:xlink="http://www.w3.org/1999/xlink">
    <!-- Generator: Sketch 42 (36781) - http://www.bohemiancoding.com/sketch -->
    <title>pause</title>
    <desc>Created with Sketch.</desc>
    <defs>
        <filter x="-50%" y="-50%" width="200%" height="200%" filterUnits="objectBoundingBox" id="filter-1">
            <feOffset dx="0" dy="4" in="SourceAlpha" result="shadowOffsetOuter1"></feOffset>
            <feGaussianBlur stdDeviation="5" in="shadowOffsetOuter1" result="shadowBlurOuter1"></feGaussianBlur>
            <feColorMatrix values="0 0 0 0 0   0 0 0 0 0   0 0 0 0 0  0 0 0 0.5 0" type="matrix" in="shadowBlurOuter1" result="shadowMatrixOuter1"></feColorMatrix>
            <feMerge>
                <feMergeNode in="shadowMatrixOuter1"></feMergeNode>
                <feMergeNode in="SourceGraphic"></feMergeNode>
            </feMerge>
        </filter>
    </defs>
    <g id="Page-1" stroke="none" stroke-width="1" fill="none" fill-rule="evenodd">
        <g id="A4" transform="translate(-1391.000000, -1452.000000)" fill-rule="nonzero" fill="#FFFFFF">
            <g id="A-02.-Recording-started" transform="translate(1140.000000, 740.000000)">
                <g id="screen-copy" transform="translate(30.000000, 174.000000)">
                    <g id="In-call---no-left-panel">
                        <g filter="url(#filter-1)" id="recording-copy-6">
                            <g transform="translate(0.000000, 531.000000)">
                                <g id="pause" transform="translate(231.000000, 13.000000)">
                                    <g id="Group">
                                        <path d="M15.3645833,0 L11.6354167,0 C11.2864583,0 11,0.225 11,0.504166667 L11,15.4916667 C11,15.7708333 11.28125,16 11.6354167,16 L15.3645833,16 C15.7135417,16 16,15.775 16,15.4916667 L16,0.504166667 C16,0.225 15.71875,0 15.3645833,0 Z" id="Shape"></path>
                                        <path d="M5,15.4916667 L5,0.504166667 C5,0.225 4.71875,0 4.36458333,0 L0.635416667,0 C0.28125,0 0,0.225 0,0.504166667 L0,15.4916667 C0,15.7708333 0.28125,16 0.635416667,16 L4.36458333,16 C4.71875,16 5,15.775 5,15.4916667 Z" id="Shape"></path>
                                    </g>
                                </g>
                            </g>
                        </g>
                    </g>
                </g>
            </g>
        </g>
    </g>
</svg>