<?xml version="1.0" standalone="no"?>
<!DOCTYPE svg PUBLIC "-//W3C//DTD SVG 1.1//EN" "http://www.w3.org/Graphics/SVG/1.1/DTD/svg11.dtd">
<svg width="100%" height="100%" viewBox="0 0 48 48" version="1.1" xmlns="http://www.w3.org/2000/svg" xmlns:xlink="http://www.w3.org/1999/xlink" xml:space="preserve" style="fill-rule:evenodd;clip-rule:evenodd;stroke-linejoin:round;stroke-miterlimit:1.41421;">
    <path d="M18.7472,32.4331L17.8916,33.0575C17.7096,33.1903 17.4629,33.1908 17.2803,33.0589C17.0977,32.9269 17.0208,32.6924 17.0899,32.4779L17.2158,32.0867L18.7472,32.0867L18.7472,32.4331ZM29.3687,32.0867L30.7842,32.0867L30.9101,32.4779C30.9792,32.6924 30.9023,32.9269 30.7197,33.0589C30.5371,33.1908 30.2904,33.1903 30.1084,33.0575L29.3687,32.5177L29.3687,32.0867ZM29.3687,31.3367L29.3687,29.1173L29.8286,29.1173L30.5428,31.3367L29.3687,31.3367ZM19.4972,31.3367L19.4972,29.1173L22.0377,29.1173L22.0377,30.0319C21.4856,30.4348 20.8667,30.8864 20.2497,31.3367L19.4972,31.3367ZM27.7503,31.3367L26.0782,30.1166L26.0782,29.1173L28.6187,29.1173L28.6187,31.3367L27.7503,31.3367ZM18.7472,31.3367L17.4572,31.3367L18.1714,29.1173L18.7472,29.1173L18.7472,31.3367ZM25.3282,29.1173L25.3282,29.5693L24.7089,29.1173L25.3282,29.1173ZM22.7877,29.4846L22.7877,29.1173L23.2911,29.1173L22.7877,29.4846ZM25.3282,26.6318L25.3282,28.3673L22.7877,28.3673L22.7877,26.5471L23.3348,26.1479L24.6652,26.1479L25.3282,26.6318ZM29.3687,28.3673L29.3687,27.6885L29.5872,28.3673L29.3687,28.3673ZM18.4128,28.3673L18.7472,27.3281L18.7472,28.3673L18.4128,28.3673ZM27.0151,26.1479L28.6187,26.1479L28.6187,28.3673L26.0782,28.3673L26.0782,27.1791L27.0843,27.9132C27.1761,27.9802 27.3007,27.9805 27.3929,27.9139C27.4851,27.8472 27.5239,27.7288 27.489,27.6205L27.0151,26.1479ZM22.0377,27.0944L22.0377,28.3673L19.4972,28.3673L19.4972,26.1479L20.9849,26.1479L20.511,27.6205C20.4761,27.7288 20.5149,27.8472 20.6071,27.9139C20.6993,27.9805 20.8239,27.9802 20.9157,27.9132L22.0377,27.0944ZM21.2263,25.3979L19.4972,25.3979L19.4972,23.1785L20.5356,23.1785L21.5216,23.8847C21.6144,23.9512 21.6536,24.07 21.6186,24.1786L21.2263,25.3979ZM26.7737,25.3979L26.3814,24.1786C26.3464,24.07 26.3856,23.9512 26.4784,23.8847L27.4644,23.1785L28.6187,23.1785L28.6187,25.3979L26.7737,25.3979ZM18.7472,23.1785L18.7472,24.8324L16.4379,23.1785L18.7472,23.1785ZM29.3687,24.7494L29.3687,23.1785L31.5621,23.1785L29.3687,24.7494ZM29.3687,21.3532L29.3687,20.2091L31.9092,20.2091L31.9092,22.4285L29.3687,22.4285L29.3687,21.8146L29.3942,21.7963C29.487,21.7299 29.5262,21.6112 29.4914,21.5025C29.4705,21.4374 29.4258,21.3849 29.3687,21.3532ZM15.4567,22.4285L15.3907,22.4285C14.6409,21.8914 13.9081,21.3666 13.3167,20.943C13.133,20.8114 13.0552,20.5763 13.1243,20.3611C13.1422,20.3053 13.1689,20.2542 13.2026,20.2091L15.4567,20.2091L15.4567,22.4285ZM18.7472,21.8977L18.7472,22.4285L16.2067,22.4285L16.2067,20.2091L18.7472,20.2091L18.7472,21.3205C18.6379,21.3252 18.5424,21.3975 18.5086,21.5025C18.4738,21.6112 18.513,21.7299 18.6058,21.7963L18.7472,21.8977ZM28.5116,22.4285L28.6187,22.3517L28.6187,22.4285L28.5116,22.4285ZM32.6592,22.3927L32.6592,20.2091L34.7974,20.2091C34.8311,20.2542 34.8578,20.3053 34.8757,20.3611C34.9448,20.5763 34.867,20.8114 34.6833,20.943C34.1051,21.3572 33.3916,21.8681 32.6592,22.3927ZM28.6187,21.3202L26.0782,21.3202L26.0782,20.2091L28.6187,20.2091L28.6187,21.3202ZM22.0377,21.3202L19.4972,21.3202L19.4972,20.2091L22.0377,20.2091L22.0377,21.3202ZM25.3282,20.8981L25.1062,20.2091L25.3282,20.2091L25.3282,20.8981ZM22.8938,20.2091L22.7877,20.5381L22.7877,20.2091L22.8938,20.2091ZM23.1354,19.4591L22.7877,19.4591L22.7877,17.2397L25.3282,17.2397L25.3282,19.4591L24.8646,19.4591L24.25,17.5517C24.215,17.4432 24.114,17.3696 24,17.3696C23.886,17.3696 23.785,17.4432 23.75,17.5517L23.1354,19.4591ZM22.0377,19.4591L21.2743,19.4591L21.9894,17.2397L22.0377,17.2397L22.0377,19.4591ZM26.0782,19.4591L26.0782,17.4497L26.7257,19.4591L26.0782,19.4591ZM25.3282,15.1221L25.3282,16.4897L22.7877,16.4897L22.7877,14.7621L22.9462,14.2702L25.0538,14.2702L25.3282,15.1221ZM24.8121,13.5202L23.1879,13.5202L23.5049,12.5365C23.5742,12.3216 23.7742,12.1758 24,12.1758C24.2258,12.1758 24.4258,12.3216 24.4951,12.5365L24.8121,13.5202Z" style="fill:rgb(255,165,0);"/>
</svg>
