<?xml version="1.0" standalone="no"?>
<!DOCTYPE svg PUBLIC "-//W3C//DTD SVG 1.1//EN" "http://www.w3.org/Graphics/SVG/1.1/DTD/svg11.dtd">
<svg width="300px" height="300px" version="1.1" xmlns="http://www.w3.org/2000/svg" xmlns:xlink="http://www.w3.org/1999/xlink" xml:space="preserve" style="fill-rule:evenodd;clip-rule:evenodd;stroke-linejoin:round;stroke-miterlimit:1.41421;">
    <g>
        <g id="Layer42">
            <g id="Layer36">
                <g id="Layer37">
                    <g>
                        <path d="M58.9351,66.5778C58.9351,64.3766 57.1507,62.5922 54.9495,62.5922L26.4471,62.5922C24.246,62.5922 22.4616,64.3766 22.4616,66.5778L22.4616,83.4222C22.4616,85.6234 24.246,87.4078 26.4471,87.4078L54.9495,87.4078C57.1507,87.4078 58.9351,85.6234 58.9351,83.4222L58.9351,66.5778Z" style="fill:white;"/>
                    </g>
                    <g>
                        <path d="M58.9351,141.578C58.9351,139.377 57.1507,137.592 54.9495,137.592L26.4471,137.592C24.246,137.592 22.4616,139.377 22.4616,141.578L22.4616,158.422C22.4616,160.623 24.246,162.408 26.4471,162.408L54.9495,162.408C57.1507,162.408 58.9351,160.623 58.9351,158.422L58.9351,141.578Z" style="fill:white;"/>
                    </g>
                    <g>
                        <path d="M58.9351,216.578C58.9351,214.377 57.1507,212.592 54.9495,212.592L26.4471,212.592C24.246,212.592 22.4616,214.377 22.4616,216.578L22.4616,233.422C22.4616,235.623 24.246,237.408 26.4471,237.408L54.9495,237.408C57.1507,237.408 58.9351,235.623 58.9351,233.422L58.9351,216.578Z" style="fill:white;"/>
                    </g>
                </g>
                <path d="M46.875,47.5L46.875,35.2843C46.875,26.2655 54.1862,18.9544 63.205,18.9544L264.92,18.9544C273.939,18.9544 281.25,26.2655 281.25,35.2843L281.25,264.92C281.25,273.939 273.939,281.25 264.92,281.25L63.205,281.25C54.1862,281.25 46.875,273.939 46.875,264.92L46.875,252.5L60.9375,252.5C68.704,252.5 75,246.204 75,238.438L75,210.312C75,202.546 68.704,196.25 60.9375,196.25L46.875,196.25L46.875,178.125L60.9375,178.125C68.704,178.125 75,171.829 75,164.062L75,135.938C75,128.171 68.704,121.875 60.9375,121.875L46.875,121.875L46.875,103.75L60.9375,103.75C68.704,103.75 75,97.454 75,89.6875L75,61.5625C75,53.796 68.704,47.5 60.9375,47.5L46.875,47.5ZM262.5,48.0386C262.5,42.2183 257.782,37.5 251.961,37.5L103.394,37.5C97.5735,37.5 92.8553,42.2183 92.8553,48.0386L92.8553,251.961C92.8553,257.782 97.5735,262.5 103.394,262.5L251.961,262.5C257.782,262.5 262.5,257.782 262.5,251.961L262.5,48.0386Z" style="fill:white;"/>
                <g>
                    <path d="M258.05,40.594C258.05,34.6906 253.264,29.905 247.36,29.905L96.6726,29.905C90.7692,29.905 85.9836,34.6906 85.9836,40.594L85.9836,243.662C85.9836,249.566 90.7692,254.351 96.6726,254.351L247.36,254.351C253.264,254.351 258.05,249.566 258.05,243.662L258.05,40.594ZM235.91,213.265C235.901,218.136 235.891,223.011 235.88,227.885C235.875,228.604 235.77,229.314 235.553,229.972C235.164,231.148 234.444,232.121 233.573,232.651C233.223,232.864 232.85,233.001 232.469,233.065C232.359,233.082 232.248,233.094 232.137,233.1C232.073,233.103 232.008,233.104 231.944,233.104C191.893,233.104 151.842,233.104 111.791,233.104C111.675,233.104 111.559,233.099 111.442,233.088C111.039,233.045 110.642,232.922 110.268,232.713C109.357,232.203 108.598,231.209 108.192,230C107.987,229.39 107.879,228.734 107.858,228.067C107.856,227.98 107.855,227.894 107.855,227.808C107.855,222.096 107.854,216.385 107.852,210.671L107.852,184.37C113.197,166.194 141.386,162.942 152.41,162.942L190.634,162.942C201.658,162.942 230.681,170.098 235.657,185.05L235.91,213.265ZM171.881,60.6348C192.572,60.6348 209.345,79.472 209.345,102.709C209.345,125.946 192.572,144.783 171.881,144.783C151.19,144.783 134.416,125.946 134.416,102.709C134.416,79.472 151.19,60.6348 171.881,60.6348Z" style="fill:white;"/>
                </g>
            </g>
            <g id="Layer43">
                <rect x="247.649" y="29.905" width="19.8917" height="239.235" style="fill:white;"/>
                <rect x="85.9836" y="249.248" width="171.611" height="19.8917" style="fill:white;"/>
            </g>
        </g>
    </g>
</svg>
