<?xml version="1.0" encoding="UTF-8"?>
<svg width="24px" height="24px" viewBox="0 0 24 24" version="1.1" xmlns="http://www.w3.org/2000/svg" xmlns:xlink="http://www.w3.org/1999/xlink">
    <!-- Generator: Sketch 40.3 (33839) - http://www.bohemiancoding.com/sketch -->
    <title>Shape</title>
    <desc>Created with Sketch.</desc>
    <defs></defs>
    <g id="Page-1" stroke="none" stroke-width="1" fill="none" fill-rule="evenodd">
        <g id="02.-Contact-Details---Online" transform="translate(-788.000000, -458.000000)" fill="#4E83BF">
            <g id="contact-details" transform="translate(320.000000, -5.000000)">
                <g id="contact-options" transform="translate(90.000000, 257.000000)">
                    <g id="Group-2" transform="translate(1.000000, 188.000000)">
                        <path d="M399.904216,35.4136364 C398.908892,34.3909091 396.079719,32.475 394.225418,32.475 C393.795929,32.475 393.420979,32.5704545 393.114201,32.7681818 C392.207502,33.3477273 391.48487,33.7977273 391.137189,33.7977273 C390.946305,33.7977273 390.741786,33.6272727 390.291845,33.2386364 L390.216855,33.1704545 C388.969292,32.0863636 388.703418,31.8068182 388.219391,31.3022727 L388.09668,31.1727273 C388.008055,31.0840909 387.933065,31.0022727 387.858075,30.9272727 C387.435404,30.4909091 387.128626,30.1772727 386.044678,28.95 L385.996957,28.8954545 C385.478843,28.3090909 385.137979,27.9272727 385.117527,27.6477273 C385.097075,27.375 385.33568,26.9318182 385.942418,26.1068182 C386.678685,25.1113636 386.705954,23.8840909 386.031043,22.4590909 C385.492478,21.3340909 384.613048,20.2568182 383.835878,19.3090909 L383.767705,19.2272727 C383.099611,18.4090909 382.322441,18 381.456646,18 C380.495409,18 379.697786,18.5181818 379.275115,18.7909091 C379.241028,18.8113636 379.206942,18.8386364 379.172856,18.8590909 C378.225253,19.4590909 377.536708,20.2840909 377.277651,21.1227273 C376.889066,22.3840909 376.630009,24.0204545 378.491127,27.4227273 C380.100006,30.3681818 381.558905,32.3454545 383.876781,34.725 C386.058312,36.9613636 387.026367,37.6840909 389.194263,39.2522727 C391.607581,40.9977273 393.925458,42 395.547971,42 C397.054591,42 398.240798,42 399.931485,39.9613636 C401.703978,37.8204545 400.967712,36.5113636 399.904216,35.4136364 L399.904216,35.4136364 Z M399.120228,39.225 C397.756771,40.875 396.972784,40.875 395.554789,40.875 C394.17088,40.875 392.023436,39.9204545 389.814636,38.3318182 C387.701278,36.8045455 386.760492,36.1022727 384.640317,33.9272727 C382.397431,31.6295455 380.986253,29.7136364 379.431912,26.8704545 C377.788947,23.8636364 377.973014,22.5477273 378.307061,21.4636364 C378.48431,20.8840909 379.016058,20.2636364 379.73869,19.8136364 C379.772777,19.7931818 379.806863,19.7659091 379.847767,19.7454545 C380.209083,19.5136364 380.809004,19.125 381.463463,19.125 C382.008846,19.125 382.492873,19.3977273 382.956448,19.9636364 L383.024621,20.0454545 C384.763028,22.1727273 386.119668,24.0545455 385.097075,25.4454545 C384.374443,26.4204545 383.992675,27.0818182 384.054031,27.7636364 C384.108569,28.425 384.551693,28.9227273 385.219786,29.6727273 L385.267507,29.7272727 C386.36509,30.9681818 386.678685,31.2954545 387.114991,31.7386364 C387.189981,31.8136364 387.264971,31.8954545 387.353596,31.9840909 L387.476307,32.1136364 C387.980786,32.6386364 388.260295,32.925 389.541944,34.05 L389.616934,34.1181818 C390.162317,34.5954545 390.564537,34.9431818 391.150823,34.9431818 C391.757561,34.9431818 392.425655,34.5613636 393.69367,33.75 C393.823198,33.6681818 394.007265,33.6204545 394.239053,33.6204545 C395.718403,33.6204545 398.268067,35.3113636 399.161132,36.2318182 C399.979206,37.0636364 400.388243,37.6909091 399.120228,39.225 L399.120228,39.225 Z" id="Shape"></path>
                    </g>
                </g>
            </g>
        </g>
    </g>
</svg>