<?xml version="1.0" encoding="UTF-8" standalone="no"?>
<!DOCTYPE svg PUBLIC "-//W3C//DTD SVG 1.1//EN" "http://www.w3.org/Graphics/SVG/1.1/DTD/svg11.dtd">
<svg width="100%" height="100%" viewBox="0 0 48 48" version="1.1" xmlns="http://www.w3.org/2000/svg" xmlns:xlink="http://www.w3.org/1999/xlink" xml:space="preserve" style="fill-rule:evenodd;clip-rule:evenodd;stroke-linejoin:round;stroke-miterlimit:1.41421;">
    <g id="Layer2">
        <g transform="matrix(1.12884,0,0,0.935089,-2.91637,8.53485)">
            <path d="M10.328,26.459C10.435,25.133 11.048,23.942 11.986,23.24C13.185,22.317 14.679,20.177 14.82,15.378C15.05,7.544 18.933,1.178 24,1.178C29.067,1.178 33.013,7.543 33.18,15.378C33.284,20.224 34.772,22.354 35.967,23.286C36.917,23.979 37.541,25.173 37.648,26.507C37.8,28.055 37.937,29.754 37.937,29.754L10.063,29.754C10.063,29.754 10.202,28.022 10.328,26.459Z" style="fill:rgb(136,136,136);"/>
        </g>
        <g transform="matrix(1,0,0,0.924096,0.175875,5.75689)">
            <path d="M29.39,35.759C29.371,38.718 26.963,41.114 24,41.114C21.025,41.114 18.61,38.699 18.61,35.724L29.39,35.724L29.39,35.759Z" style="fill:rgb(136,136,136);"/>
        </g>
        <g transform="matrix(1.27273,0,0,1.17612,-6.68776,0.233467)">
            <circle cx="24.25" cy="6.75" r="2.75" style="fill:rgb(136,136,136);"/>
        </g>
        <g transform="matrix(0.917915,0.366659,-0.396776,0.848242,12.959,-0.185485)">
            <path d="M7.707,5.977L4,3.5C-0.822,11.167 -0.83,19.407 4,28L8.08,26.23C3.889,18.076 4.059,12.424 7.707,5.977Z" style="fill:rgb(136,136,136);"/>
        </g>
        <g transform="matrix(-0.917915,0.366659,0.396776,0.848242,35.2031,-0.185485)">
            <path d="M7.707,5.977L4,3.5C-0.822,11.167 -0.83,19.407 4,28L8.08,26.23C3.889,18.076 4.059,12.424 7.707,5.977Z" style="fill:rgb(136,136,136);"/>
        </g>
    </g>
</svg>
