<?xml version="1.0" standalone="no"?>
<!DOCTYPE svg PUBLIC "-//W3C//DTD SVG 1.1//EN" "http://www.w3.org/Graphics/SVG/1.1/DTD/svg11.dtd">
<svg width="300px" height="300px" version="1.1" xmlns="http://www.w3.org/2000/svg" xmlns:xlink="http://www.w3.org/1999/xlink" xml:space="preserve" style="fill-rule:evenodd;clip-rule:evenodd;stroke-linejoin:round;stroke-miterlimit:1.41421;">
    <g>
        <g id="Layer1">
            <g>
                <path d="M204.899,196.273L220.169,196.985L281.25,250.443L281.25,265.713L265.98,280.984L250.709,280.984L197.447,219.902L197.158,204.632L176.377,203.194C141.463,225.88 94.2795,221.912 63.6572,191.289C28.4758,156.108 28.4758,99.0675 63.6572,63.8861C98.8387,28.7046 155.879,28.7046 191.06,63.8861C221.674,94.4995 225.649,141.664 202.985,176.576L204.899,196.273ZM127.733,61.408C164.216,61.408 193.791,90.9834 193.791,127.466C193.791,163.949 164.216,193.525 127.733,193.525C91.2498,193.525 61.6744,163.949 61.6744,127.466C61.6744,90.9834 91.2498,61.408 127.733,61.408Z" style="fill:#999999;"/>
            </g>
        </g>
    </g>
</svg>
