<?xml version="1.0" encoding="UTF-8"?>
<svg width="16px" height="16px" viewBox="0 0 16 16" version="1.1" xmlns="http://www.w3.org/2000/svg" xmlns:xlink="http://www.w3.org/1999/xlink">
    <!-- Generator: Sketch 41.1 (35376) - http://www.bohemiancoding.com/sketch -->
    <title>settingspsw</title>
    <desc>Created with Sketch.</desc>
    <defs></defs>
    <style type="text/css">
	.st0{fill:#FFFFFF;}</style>
    <g id="Symbols" stroke="none" stroke-width="1" fill="none" fill-rule="evenodd">
        <path class ="st0" d="M14.107194,8.78000762 C14.1400832,8.52400762 14.1647032,8.26398476 14.1647032,8 C14.1647032,7.73601524 14.1400832,7.47599238 14.107194,7.21999238 L15.8461277,5.89604571 C16.0023673,5.77603048 16.0475979,5.56001524 15.9447954,5.38398476 L14.3003323,2.61199848 C14.1975925,2.44000305 13.9838436,2.368 13.7987867,2.44000305 L11.7514457,3.24400152 C11.3280199,2.928 10.8634355,2.65999848 10.3618273,2.45600305 L10.0535453,0.335993905 C10.016584,0.147998476 9.84794037,0 9.64239814,0 L6.35347177,0 C6.14786689,0 5.97934857,0.147998476 5.9464593,0.335993905 L5.63817727,2.45600305 C5.13656902,2.65999848 4.67198468,2.92400152 4.24856517,3.24400152 L2.20121164,2.44000305 C2.01621109,2.37199848 1.80243088,2.44000305 1.6996535,2.61199848 L0.0551903163,5.38398476 C-0.0475870664,5.55599238 -0.00236902735,5.77194667 0.153858107,5.89604571 L1.8887699,7.21999238 C1.85588063,7.47599238 1.83121055,7.73601524 1.83121055,8 C1.83121055,8.26398476 1.85588063,8.52400762 1.8887699,8.78000762 L0.153858107,10.1039543 C-0.00236902735,10.2239695 -0.0475870664,10.4399848 0.0551903163,10.6160152 L1.6996535,13.3880076 C1.80243088,13.5600152 2.01621109,13.632 2.20121164,13.5600152 L4.24856517,12.7559924 C4.67198468,13.0719695 5.13656902,13.3400381 5.63817727,13.5439848 L5.9464593,15.6639695 C5.97934857,15.8520076 6.14786689,16 6.35347177,16 L9.64239814,16 C9.84794037,16 10.016584,15.8520076 10.0494733,15.6639695 L10.3577553,13.5439848 C10.8593635,13.3400381 11.3238852,13.0760533 11.747311,12.7559924 L13.7947147,13.5600152 C13.9796463,13.6279771 14.1934578,13.5600152 14.2961976,13.3880076 L15.9407234,10.6160152 C16.0434632,10.4440076 15.9982953,10.2280533 15.8420557,10.1039543 L14.107194,8.78000762 Z M7.9979976,10.8000305 C6.40697164,10.8000305 5.12015571,9.54800762 5.12015571,8 C5.12015571,6.45199238 6.40697164,5.19996952 7.9979976,5.19996952 C9.58896091,5.19996952 10.8757768,6.45199238 10.8757768,8 C10.8757768,9.54800762 9.58896091,10.8000305 7.9979976,10.8000305 L7.9979976,10.8000305 Z" id="settings" fill="#7F7F7F"></path>
    </g>
</svg>