<?xml version="1.0" standalone="no"?>
<!DOCTYPE svg PUBLIC "-//W3C//DTD SVG 1.1//EN" "http://www.w3.org/Graphics/SVG/1.1/DTD/svg11.dtd">
<svg width="300px" height="300px" version="1.1" xmlns="http://www.w3.org/2000/svg" xmlns:xlink="http://www.w3.org/1999/xlink" xml:space="preserve" style="fill-rule:evenodd;clip-rule:evenodd;stroke-linejoin:round;stroke-miterlimit:1.41421;">
    <g>
        <g id="Layer32">
            <path d="M247.487,162.797C248.012,158.597 248.405,154.331 248.405,150C248.405,145.669 248.012,141.403 247.487,137.203L275.245,115.482C277.739,113.513 278.461,109.969 276.82,107.081L250.57,61.6031C248.93,58.7813 245.518,57.6 242.564,58.7813L209.883,71.9719C203.124,66.7875 195.708,62.3906 187.701,59.0438L182.78,24.2624C182.19,21.1781 179.498,18.75 176.217,18.75L123.717,18.75C120.435,18.75 117.745,21.1781 117.22,24.2624L112.299,59.0438C104.292,62.3906 96.876,66.7219 90.1171,71.9719L57.4359,58.7813C54.4828,57.6656 51.0703,58.7813 49.4297,61.6031L23.1797,107.081C21.5391,109.903 22.2609,113.446 24.7547,115.482L52.4485,137.203C51.9235,141.403 51.5297,145.669 51.5297,150C51.5297,154.331 51.9235,158.597 52.4485,162.797L24.7547,184.518C22.2609,186.487 21.5391,190.031 23.1797,192.919L49.4297,238.397C51.0703,241.219 54.4828,242.4 57.4359,241.219L90.1171,228.028C96.876,233.212 104.292,237.61 112.299,240.956L117.22,275.737C117.745,278.822 120.435,281.25 123.717,281.25L176.217,281.25C179.498,281.25 182.19,278.822 182.715,275.737L187.636,240.956C195.643,237.61 203.058,233.279 209.817,228.028L242.499,241.219C245.451,242.334 248.864,241.219 250.504,238.397L276.755,192.919C278.395,190.097 277.674,186.554 275.18,184.518ZM149.968,195.938C124.571,195.938 104.03,175.397 104.03,150C104.03,124.603 124.571,104.062 149.968,104.062C175.364,104.062 195.905,124.603 195.905,150C195.905,175.397 175.364,195.938 149.968,195.938Z" style="fill:white;fill-rule:nonzero;"/>
        </g>
    </g>
</svg>
