<?xml version="1.0" encoding="UTF-8"?>
<svg width="28px" height="22px" viewBox="0 0 28 22" version="1.1" xmlns="http://www.w3.org/2000/svg" xmlns:xlink="http://www.w3.org/1999/xlink">
    <!-- Generator: Sketch 51.2 (57519) - http://www.bohemiancoding.com/sketch -->
    <title>Whiteboard</title>
    <desc>Created with Sketch.</desc>
    <defs></defs>
    <g id="UX-258-Improved-Share-Experience-Desktop" stroke="none" stroke-width="1" fill="none" fill-rule="evenodd">
        <g transform="translate(-170.000000, -490.000000)" id="A-01">
            <g transform="translate(100.000000, 315.000000)">
                <g id="Share" transform="translate(40.000000, 102.000000)">
                    <g id="left" transform="translate(0.000000, 54.000000)">
                        <g id="Whiteboard" transform="translate(30.000000, 19.000000)">
                            <path d="M16.90625,22 C18.65625,21.96875 19.5,21.75625 18.71875,21.21875 C17.9375,20.675 16.9375,20.2625 16.90625,19.8125 C16.8875,19.58125 16.8,17 16.8,17 L14,17 L11.2,17 C11.2,17 11.10625,19.58125 11.09375,19.8125 C11.0625,20.25625 10.0625,20.675 9.28125,21.21875 C8.5,21.7625 9.34375,21.96875 11.09375,22 L16.90625,22 Z" id="Shape" fill="#FFFFFF"></path>
                            <path d="M27.29375,0 L0.70625,0 C0.33125,0 0,0.3125 0,0.69375 L0,17.3 C0,17.6875 0.325,17.99375 0.70625,17.99375 L27.29375,17.99375 C27.66875,17.99375 28,17.68125 28,17.3 L28,0.69375 C28,0.3125 27.675,0 27.29375,0 Z" id="Shape" fill="#FFFFFF"></path>
                            <polygon id="Path" stroke="#1A1A1A" fill="#FFFFFF" points="26 16 2 16 2 2 26 2"></polygon>
                            <rect id="Rectangle-path" fill="#1A1A1A" fill-rule="nonzero" x="5" y="13" width="18" height="1.35" rx="0.675"></rect>
                            <path d="M11.1295328,4.92207981 L12.5400615,6.33220958 L12.541802,6.33047007 L13.0130687,6.8020034 L9.00503533,10.8077701 L8.762917,10.5655147 L8.76174557,10.5666865 L7.12027075,8.92567589 L6.64860807,8.45406667 L10.6583414,4.45 L11.1296436,4.9219692 Z M6.37166667,11.9462241 L5,12.4605574 L5.51433333,11.0888907 L6.37166667,11.9462241 Z M8.771,11.0465574 L6.71433333,11.8172241 L5.64333333,10.7462241 L6.414,8.6895574 L8.771,11.0465574 Z" id="Combined-Shape" fill="#1A1A1A" fill-rule="nonzero"></path>
                        </g>
                    </g>
                </g>
            </g>
        </g>
    </g>
</svg>