<?xml version="1.0" encoding="utf-8"?>
<!-- Generator: Adobe Illustrator 20.0.0, SVG Export Plug-In . SVG Version: 6.00 Build 0)  -->
<svg version="1.1" id="Layer_1" xmlns="http://www.w3.org/2000/svg" xmlns:xlink="http://www.w3.org/1999/xlink" x="0px" y="0px"
	 viewBox="0 0 1000 1000" style="enable-background:new 0 0 1000 1000;" xml:space="preserve">
<style type="text/css">
	.st0{fill:#E84B40;}
</style>
<path class="st0" d="M298.6,258L500,459.4v-0.1L298.6,258L298.6,258z M365.7,191L500,325.4V56.6L365.7,191z M797.6,757.1l74.6,74.6
	c0,0,0,0,0,0L797.6,757.1z M610.8,14v114.4C771,176.1,888,324.3,888,500c0,62.1-14.6,120.8-40.6,172.8l81.6,81.6
	C973.3,680,998.8,593,998.8,500C998.8,262.6,832.8,64.4,610.8,14z M610.8,570.2L610.8,570.2l84.5,84.6c0,0,0,0,0,0v0L610.8,570.2z
	 M610.8,276.9v159.3L740.5,566c5.8-21,8.9-43.1,8.9-66C749.4,402.2,692.9,317.7,610.8,276.9z M973.7,933.2l-67.1,66.8L802.7,896.1
	c-55.9,42.7-121,73.8-191.9,89.9V871.6c40.8-12.1,78.7-30.8,112.6-54.7L623.3,716.7l-12.4-12.4L500,593.4v350L222.9,666.3H1.2V333.7
	h221.7l8.7-8.7L26.3,119.7l67.1-67.1l0.3,0.4l-0.1,0.1l704,704l74.6,74.6L973.7,933.2z"/>
</svg>
