<?xml version="1.0" standalone="no"?>
<!DOCTYPE svg PUBLIC "-//W3C//DTD SVG 1.1//EN" "http://www.w3.org/Graphics/SVG/1.1/DTD/svg11.dtd">
<svg width="300px" height="300px" version="1.1" xmlns="http://www.w3.org/2000/svg" xmlns:xlink="http://www.w3.org/1999/xlink" xml:space="preserve" style="fill-rule:evenodd;clip-rule:evenodd;stroke-linejoin:round;stroke-miterlimit:1.41421;">
    <g>
        <g id="Layer17">
            <g>
                <path d="M163.355,129.832L234.375,103.125L234.375,196.875L163.292,169.083L163.355,129.832Z" style="fill:white;"/>
            </g>
            <g>
                <path d="M271.875,95.3076C271.875,91.4243 268.727,88.2763 264.844,88.2763L250.781,88.2763C246.898,88.2763 243.75,91.4243 243.75,95.3076L243.75,204.692C243.75,208.576 246.898,211.724 250.781,211.724L264.844,211.724C268.727,211.724 271.875,208.576 271.875,204.692L271.875,95.3076Z" style="fill:white;"/>
            </g>
            <g>
                <path d="M196.875,92.7271C196.875,82.9367 188.654,75 178.512,75L46.4879,75C36.3463,75 28.125,82.9367 28.125,92.7271L28.125,207.273C28.125,217.063 36.3463,225 46.4879,225L178.512,225C188.654,225 196.875,217.063 196.875,207.273L196.875,92.7271ZM112.5,100.284C139.509,100.284 161.404,123.109 161.404,151.266C161.404,179.422 139.509,202.248 112.5,202.248C85.4909,202.248 63.5958,179.422 63.5958,151.266C63.5958,123.109 85.4909,100.284 112.5,100.284Z" style="fill:white;"/>
            </g>
            <g>
                <rect x="43.2173" y="87.9562" width="138.878" height="123.447" style="fill:white;"/>
            </g>
            <g>
                <path d="M150.172,134.931C150.172,126.609 143.425,119.863 135.103,119.863L89.897,119.863C81.5748,119.863 74.8284,126.609 74.8284,134.931L74.8284,165.069C74.8284,173.391 81.5748,180.137 89.897,180.137L135.103,180.137C143.425,180.137 150.172,173.391 150.172,165.069L150.172,134.931Z" style="fill:white;"/>
            </g>
        </g>
    </g>
</svg>
