<?xml version="1.0" encoding="utf-8"?>
<!-- Generator: Adobe Illustrator 19.1.0, SVG Export Plug-In . SVG Version: 6.00 Build 0)  -->
<svg version="1.1" id="Layer_1" xmlns="http://www.w3.org/2000/svg" xmlns:xlink="http://www.w3.org/1999/xlink" x="0px" y="0px"
	 viewBox="0 0 1000 1000" style="enable-background:new 0 0 1000 1000;" xml:space="preserve">
<style type="text/css">
	.st0{fill:#FFFFFF;}
</style>
<path class="st0" d="M888.4,941.1l-40.3-107.8c-1.7-4.5-6.1-7.6-11-7.5H176.2c-4.9,0-9.4,3.1-11,7.8l-37.6,107.8
	c-2.7,7.6,3,15.5,11,15.5h738.9C885.6,956.9,891.3,948.7,888.4,941.1z M702.7,465.7V608l-1,1v29.5H296.2V279.8l1-1v-29.5h190.3
	L385.9,147.7H250.5c-31,0-55.9,24.9-55.9,55.9v480.6c0,31,24.9,55.9,55.9,55.9h498c31,0,55.9-24.9,55.9-55.9V567.4L702.7,465.7z
	 M919.2,350.1L807.5,238.4l111.7-111.7l-93.9-93.8L713.7,144.6L602,32.9l-93.9,93.8l111.7,111.7L508.1,350.1l93.9,93.8l111.7-111.7
	l111.6,111.7L919.2,350.1z"/>
</svg>
