<?xml version="1.0" encoding="utf-8"?>
<!-- Generator: Adobe Illustrator 19.2.0, SVG Export Plug-In . SVG Version: 6.00 Build 0)  -->
<svg version="1.1" id="Layer_1" xmlns="http://www.w3.org/2000/svg" xmlns:xlink="http://www.w3.org/1999/xlink" x="0px" y="0px"
	 viewBox="0 0 48 48" style="enable-background:new 0 0 48 48;" xml:space="preserve">
<style type="text/css">
	.st0{fill:#FFFFFF;}
</style>
<path class="st0" d="M39.9,22.6C37.7,12.4,31.8,5,24.9,5c-6.3,0-11.8,6-14.3,14.8l0,0l0,0c-0.3,0.9-0.5,1.8-0.7,2.7
	c-3.7,0.3-6.7,3.4-6.7,7.2c0,3.6,2.6,6.5,6.1,7.1h4.6V23.5l0,0v-0.4c1-7.4,4.3-12.7,11-12.7c6.8,0,9.9,5,11,12v0.9l0,0v11h-0.1
	c-0.1,0.2-1.2,3.7-7,5.1c-0.5-0.6-1.3-1-2.2-1h-4.9c-1.5,0-2.8,1.3-2.8,2.8s1.3,2.8,2.8,2.8h4.9c1.3,0,2.3-0.8,2.7-2
	c4.7-1.1,7-3.4,8.2-5.1h3l0,0c3.4-0.6,5.9-3.5,5.9-7.1C46.3,26.1,43.5,23,39.9,22.6z"/>
</svg>
