<?xml version="1.0" standalone="no"?>
<!DOCTYPE svg PUBLIC "-//W3C//DTD SVG 1.1//EN" "http://www.w3.org/Graphics/SVG/1.1/DTD/svg11.dtd">
<svg width="300px" height="300px" version="1.1" xmlns="http://www.w3.org/2000/svg" xmlns:xlink="http://www.w3.org/1999/xlink" xml:space="preserve" style="fill-rule:evenodd;clip-rule:evenodd;stroke-linejoin:round;stroke-miterlimit:1.41421;">
    <g>
        <g id="Layer36">
            <g>
                <path d="M161.513,207.786L103.692,207.786L82.2003,281.25L40.7529,281.25L62.2442,207.786L18.75,207.786L27.4488,175.533L71.9664,175.533L88.3406,119.987L46.8933,119.987L55.5921,87.7346L98.0629,87.7346L118.531,18.75L159.978,18.75L139.51,87.7346L197.332,87.7346L217.8,18.75L259.247,18.75L238.779,87.7346L281.25,87.7346L271.528,119.987L229.057,119.987L212.683,175.533L253.107,175.533L243.385,207.786L202.961,207.786L180.958,281.25L140.022,281.25L161.513,207.786ZM113.414,175.533L171.235,175.533L187.61,119.987L129.788,119.987L113.414,175.533Z" style="fill:white;fill-rule:nonzero;"/>
            </g>
        </g>
    </g>
</svg>
