<?xml version="1.0" encoding="utf-8"?>
<!-- Generator: Adobe Illustrator 20.1.0, SVG Export Plug-In . SVG Version: 6.00 Build 0)  -->
<svg version="1.1" id="Layer_3" xmlns="http://www.w3.org/2000/svg" xmlns:xlink="http://www.w3.org/1999/xlink" x="0px" y="0px"
	 viewBox="0 0 1000 1000" style="enable-background:new 0 0 1000 1000;" xml:space="preserve">
<style type="text/css">
	.st0{fill:#FFFFFF;}
</style>
<path class="st0" d="M820,686.2V820H180V180h133.8v-80H180c-44,0-80,36-80,80v640c0,44,36,80,80,80h640c44,0,80-36,80-80V686.2H820z
	 M937.2,25H560.4c-34.6,0-62.8,28.2-62.8,62.8v376.8c0,34.6,28.2,62.8,62.8,62.8h376.8c34.6,0,62.8-28.2,62.8-62.8V87.8
	C1000,53.2,971.8,25,937.2,25z M560.4,464.6L654.6,339l63.8,85.1l93.3-116.5l125.6,157H560.4z"/>
</svg>
