<?xml version="1.0" encoding="UTF-8"?>
<svg width="8px" height="6px" viewBox="0 0 8 6" version="1.1" xmlns="http://www.w3.org/2000/svg" xmlns:xlink="http://www.w3.org/1999/xlink">
    <title>Path</title>
    <g id="UX-507-Friendly-Device-Selection-WebRTC" stroke="none" stroke-width="1" fill="none" fill-rule="evenodd">
        <g id="A08" transform="translate(-656.000000, -865.000000)" fill="#FFFFFF" fill-rule="nonzero">
            <g id="Group-2" transform="translate(600.000000, 844.000000)">
                <g id="down-arrow-copy-3" transform="translate(56.000000, 20.000000)">
                    <path d="M7.87212904,2.03230921 L7.61007813,1.76843714 C7.52760592,1.68602997 7.41788145,1.64063122 7.3006122,1.64063122 C7.183408,1.64063122 7.07355344,1.68602997 6.99108123,1.76843714 L4.00178863,4.75785982 L1.00904885,1.76512004 C0.926706721,1.68271287 0.81685217,1.63737917 0.699647965,1.63737917 C0.58244376,1.63737917 0.472524167,1.68271287 0.390116993,1.76512004 L0.128001041,2.02736608 C-0.0426670136,2.19790405 -0.0426670136,2.47569492 0.128001041,2.6462329 L3.691217,6.22226197 C3.77355913,6.3046041 3.8832836,6.36262083 4.00152847,6.36262083 L4.00289433,6.36262083 C4.12016358,6.36262083 4.22988805,6.30453906 4.31223018,6.22226197 L7.87212904,2.65592403 C7.95460126,2.5735819 7.99986992,2.46054033 8,2.34333612 C8,2.22606688 7.95460126,2.1145863 7.87212904,2.03230921 Z" id="Path"></path>
                </g>
            </g>
        </g>
    </g>
</svg>