<?xml version="1.0" encoding="UTF-8" standalone="no"?>
<!DOCTYPE svg PUBLIC "-//W3C//DTD SVG 1.1//EN" "http://www.w3.org/Graphics/SVG/1.1/DTD/svg11.dtd">
<svg width="100%" height="100%" viewBox="0 0 50 50" version="1.1" xmlns="http://www.w3.org/2000/svg" xmlns:xlink="http://www.w3.org/1999/xlink" xml:space="preserve" style="fill-rule:evenodd;clip-rule:evenodd;stroke-linejoin:round;stroke-miterlimit:1.41421;">
    <g transform="matrix(1,0,0,1,-329.279,-1162.22)">
        <path d="M364.251,1201.01C360.851,1203.68 356.563,1205.28 351.906,1205.28C340.868,1205.28 331.906,1196.31 331.906,1185.28C331.906,1174.24 340.868,1165.28 351.906,1165.28C362.945,1165.28 371.906,1174.24 371.906,1185.28C371.906,1189.49 370.598,1193.41 368.365,1196.64L376.651,1204.92L372.409,1209.16L364.251,1201.01ZM351.906,1168.2C361.333,1168.2 368.986,1175.85 368.986,1185.28C368.986,1194.7 361.333,1202.36 351.906,1202.36C342.48,1202.36 334.827,1194.7 334.827,1185.28C334.827,1175.85 342.48,1168.2 351.906,1168.2ZM343.906,1183.28L349.906,1183.28L349.906,1177.28L353.906,1177.28L353.906,1183.28L359.906,1183.28L359.906,1187.28L353.906,1187.28L353.906,1193.28L349.906,1193.28L349.906,1187.28L343.906,1187.28L343.906,1183.28Z" style="fill:white;"/>
    </g>
</svg>
