<?xml version="1.0" encoding="UTF-8"?>
<svg width="26px" height="32px" viewBox="0 0 26 32" version="1.1" xmlns="http://www.w3.org/2000/svg" xmlns:xlink="http://www.w3.org/1999/xlink">
    <!-- Generator: Sketch 53.2 (72643) - https://sketchapp.com -->
    <title>unlock</title>
    <desc>Created with Sketch.</desc>
    <g id="Version-4.3" stroke="none" stroke-width="1" fill="none" fill-rule="evenodd">
        <g id="A08b" transform="translate(-1099.000000, -79.000000)" fill="#717171">
            <g id="notification">
                <g transform="translate(1079.000000, 55.000000)">
                    <g id="ic_notif_unlocked" transform="translate(20.000000, 24.000000)">
                        <path d="M22.4,10.6666733 L20.8000105,10.6666733 L20.8000105,7.61905524 C20.8000105,3.41333787 17.2160046,0 12.8,0 C8.38399958,0 4.8,3.41333787 4.8,7.61905524 L4.8,10.6666733 L3.2,10.6666733 C1.44000105,10.6666733 0,12.0381005 0,13.7142914 L0,28.9523819 C0,30.6285719 1.44000105,32 3.2,32 L22.4,32 C24.1600094,32 25.6,30.6285719 25.6,28.9523819 L25.6,13.7142914 C25.6,12.0381005 24.1600094,10.6666733 22.4,10.6666733 L22.4,10.6666733 Z M12.8,25.6 C10.4533347,25.6 8.53333333,23.6799986 8.53333333,21.3333333 C8.53333333,18.9866653 10.4533347,17.0666667 12.8,17.0666667 C15.1466653,17.0666667 17.0666667,18.9866653 17.0666667,21.3333333 C17.0666667,23.6799986 15.1466653,25.6 12.8,25.6 L12.8,25.6 Z M17.0666667,10.6666667 L8.53333333,10.6666667 L8.53333333,8.15686565 C8.53333333,6.01098175 10.4464483,4.26666667 12.7999955,4.26666667 C15.1535427,4.26666667 17.0666667,6.01098175 17.0666667,8.15686565 L17.0666667,10.6666667 L17.0666667,10.6666667 Z" id="unlock"></path>
                    </g>
                </g>
            </g>
        </g>
    </g>
</svg>