<?xml version="1.0" encoding="utf-8"?>
<!-- Generator: Adobe Illustrator 21.1.0, SVG Export Plug-In . SVG Version: 6.00 Build 0)  -->
<svg width="42px" height="42px" viewBox="0 0 42 42" version="1.1" xmlns="http://www.w3.org/2000/svg" xmlns:xlink="http://www.w3.org/1999/xlink">     <!-- Generator: Sketch 50.2 (55047) - http://www.bohemiancoding.com/sketch -->     <desc>Created with Sketch.</desc>     <defs>         <circle id="path-1" cx="21" cy="21" r="21"></circle>     </defs>     <g id="Symbols" stroke="none" stroke-width="1" fill="none" fill-rule="evenodd">         <g id="Endpoint-Device">             <g>                 <mask id="mask-2" fill="white">                     <use xlink:href="#path-1"></use>                 </mask>                 <use id="Mask" fill="#AAAAAA" xlink:href="#path-1"></use>                 <path d="M28.474221,24.7709367 L26.5846718,24.7709367 C25.7833636,24.7709367 25.1336837,25.4206166 25.1336837,26.2219247 L25.1336837,28.111474 C25.1336837,28.9127821 25.7833636,29.5624621 26.5846718,29.5624621 L28.474221,29.5624621 C29.2755292,29.5624621 29.9252091,28.9127821 29.9252091,28.111474 L29.9252091,26.2219247 C29.9252091,25.4206166 29.2755292,24.7709367 28.474221,24.7709367 M28.474221,18.6042373 L26.5846718,18.6042373 C25.7833636,18.6042373 25.1336837,19.2539172 25.1336837,20.0552254 L25.1336837,21.9447746 C25.1336837,22.7460828 25.7833636,23.3957627 26.5846718,23.3957627 L28.474221,23.3957627 C29.2755292,23.3957627 29.9252091,22.7460828 29.9252091,21.9447746 L29.9252091,20.0552254 C29.9252091,19.2539172 29.2755292,18.6042373 28.474221,18.6042373 M28.474221,12.4375379 L26.5846718,12.4375379 C25.7833636,12.4375379 25.1336837,13.0872179 25.1336837,13.888526 L25.1336837,15.7780753 C25.1336837,16.5793834 25.7833636,17.2290633 26.5846718,17.2290633 L28.474221,17.2290633 C29.2755292,17.2290633 29.9252091,16.5793834 29.9252091,15.7780753 L29.9252091,13.888526 C29.9252091,13.0872179 29.2755292,12.4375379 28.474221,12.4375379 M15.4153282,24.7709367 L13.525779,24.7709367 C12.7244708,24.7709367 12.0747909,25.4206166 12.0747909,26.2219247 L12.0747909,28.111474 C12.0747909,28.9127821 12.7244708,29.5624621 13.525779,29.5624621 L15.4153282,29.5624621 C16.2166364,29.5624621 16.8663163,28.9127821 16.8663163,28.111474 L16.8663163,26.2219247 C16.8663163,25.4206166 16.2166364,24.7709367 15.4153282,24.7709367 M15.4153282,18.6042373 L13.525779,18.6042373 C12.7244708,18.6042373 12.0747909,19.2539172 12.0747909,20.0552254 L12.0747909,21.9447746 C12.0747909,22.7460828 12.7244708,23.3957627 13.525779,23.3957627 L15.4153282,23.3957627 C16.2166364,23.3957627 16.8663163,22.7460828 16.8663163,21.9447746 L16.8663163,20.0552254 C16.8663163,19.2539172 16.2166364,18.6042373 15.4153282,18.6042373 M15.4153282,12.4375379 L13.525779,12.4375379 C12.7244708,12.4375379 12.0747909,13.0872179 12.0747909,13.888526 L12.0747909,15.7780753 C12.0747909,16.5793834 12.7244708,17.2290633 13.525779,17.2290633 L15.4153282,17.2290633 C16.2166364,17.2290633 16.8663163,16.5793834 16.8663163,15.7780753 L16.8663163,13.888526 C16.8663163,13.0872179 16.2166364,12.4375379 15.4153282,12.4375379 M21.9447746,24.7709367 L20.0552254,24.7709367 C19.2539172,24.7709367 18.6042373,25.4206166 18.6042373,26.2219247 L18.6042373,28.111474 C18.6042373,28.9127821 19.2539172,29.5624621 20.0552254,29.5624621 L21.9447746,29.5624621 C22.7460828,29.5624621 23.3957627,28.9127821 23.3957627,28.111474 L23.3957627,26.2219247 C23.3957627,25.4206166 22.7460828,24.7709367 21.9447746,24.7709367 M21.9447746,18.6042373 L20.0552254,18.6042373 C19.2539172,18.6042373 18.6042373,19.2539172 18.6042373,20.0552254 L18.6042373,21.9447746 C18.6042373,22.7460828 19.2539172,23.3957627 20.0552254,23.3957627 L21.9447746,23.3957627 C22.7460828,23.3957627 23.3957627,22.7460828 23.3957627,21.9447746 L23.3957627,20.0552254 C23.3957627,19.2539172 22.7460828,18.6042373 21.9447746,18.6042373 M21.9447746,12.4375379 L20.0552254,12.4375379 C19.2539172,12.4375379 18.6042373,13.0872179 18.6042373,13.888526 L18.6042373,15.7780753 C18.6042373,16.5793834 19.2539172,17.2290633 20.0552254,17.2290633 L21.9447746,17.2290633 C22.7460828,17.2290633 23.3957627,16.5793834 23.3957627,15.7780753 L23.3957627,13.888526 C23.3957627,13.0872179 22.7460828,12.4375379 21.9447746,12.4375379" id="Dial-out" fill="#FFFFFF" fill-rule="nonzero"></path>             </g>         </g>     </g> </svg>