<?xml version="1.0" encoding="utf-8"?>
<!-- Generator: Adobe Illustrator 20.1.0, SVG Export Plug-In . SVG Version: 6.00 Build 0)  -->
<svg version="1.1" id="Logos" xmlns="http://www.w3.org/2000/svg" xmlns:xlink="http://www.w3.org/1999/xlink" x="0px" y="0px"
	 viewBox="0 0 517.4 74.9" style="enable-background:new 0 0 517.4 74.9;" xml:space="preserve">
<style type="text/css">
	.st0{fill:#FFFFFF;}
</style>
<title>VidyoConnect-Colored-Horizontal-White-Font</title>
<g id="Small_Colored_White_Font">
	<polygon class="st0" points="36.3,55 36.3,68.1 68.2,68.1 68.2,36.3 55.8,36.3 55.8,55 	"/>
	<polygon class="st0" points="12.5,36.3 0.1,36.3 0.1,68.1 31.9,68.1 31.9,55 12.5,55 	"/>
	<polygon class="st0" points="55.8,31.8 68.2,31.8 68.2,0 36.3,0 36.3,11.7 55.8,11.7 	"/>
	<polygon class="st0" points="31.9,11.7 31.9,0 0.1,0 0.1,31.8 12.5,31.8 12.5,11.7 	"/>
	<path class="st0" d="M50,31.8V18.1H36.3v-6.4h-4.4v6.5H18.2v13.7h-5.7v4.4h5.7V50h13.7v5h4.4v-5H50V36.3h5.7v-4.4H50z M41,28.1V41
		H27.3V27.3H41V28.1z"/>
	<polygon class="st0" points="102.7,48.7 89.7,10.1 83.3,10.1 99.7,58.7 105.6,58.7 122.6,10.1 116.1,10.1 	"/>
	<path class="st0" d="M129.6,12c-1.9,0-3.5,1.5-3.6,3.4c0,0.1,0,0.1,0,0.2c-0.1,1.9,1.5,3.5,3.4,3.6c0,0,0.1,0,0.1,0
		c2,0,3.6-1.6,3.6-3.5C133.1,13.7,131.5,12,129.6,12L129.6,12L129.6,12z"/>
	<rect x="126.7" y="25.1" class="st0" width="5.5" height="33.6"/>
	<path class="st0" d="M165.6,30.2c-2.8-3.8-7.3-6-12-5.9c-9.1,0-15.8,7.6-15.8,17.8s6.6,17.4,15.8,17.4c5.1,0,8.7-2,12-6.6v5.8h5.5
		V10.1h-5.5V30.2z M154.4,54.7c-6.3,0-10.8-5.2-10.8-12.5c0-7.7,4.5-12.9,11.1-12.9c6.4,0,10.9,5.2,10.9,12.8
		C165.6,49.3,160.9,54.7,154.4,54.7z"/>
	<polygon class="st0" points="189,50 180,25.1 174.1,25.1 186.1,57.7 179.1,74.9 185.1,74.9 205.1,25.1 199.1,25.1 	"/>
	<path class="st0" d="M224.5,24.3c-10.2,0-17.2,7.1-17.2,17.6s7,17.6,17,17.6c9.5,0,17.2-7.6,17.2-17.1c0-0.1,0-0.2,0-0.4
		C241.5,31.6,234.4,24.3,224.5,24.3z M224.5,54.4c-6.9,0-11.4-5-11.4-12.5s4.6-12.5,11.5-12.5s11.3,5,11.3,12.5
		C235.8,49.2,231.1,54.4,224.5,54.4L224.5,54.4z"/>
	<path class="st0" d="M272.5,14.8c5.2,0,8.8,1.7,13.5,6.6l4.2-3.9c-1.6-1.9-3.6-3.6-5.7-5c-3.7-2.2-7.9-3.3-12.2-3.3
		c-13.4,0-23.2,10.6-23.2,25.2c-0.1,6.6,2.2,13,6.5,18c4.2,4.7,10.3,7.3,16.7,7.1c7.5,0,12.9-2.5,17.8-8.2l-4.1-4.1
		c-3.8,4.6-7.9,6.7-13.2,6.7c-10.1,0-17.4-8.2-17.4-19.5S262.6,14.8,272.5,14.8z"/>
	<path class="st0" d="M311.7,24.3c-10.2,0-17.2,7.1-17.2,17.6s7,17.6,17,17.6c9.5,0,17.2-7.7,17.2-17.1c0-0.1,0-0.2,0-0.3
		C328.7,31.6,321.6,24.3,311.7,24.3z M311.6,54.4c-6.9,0-11.4-5-11.4-12.5s4.6-12.5,11.5-12.5s11.3,5,11.3,12.5
		C323,49.2,318.3,54.4,311.6,54.4L311.6,54.4z"/>
	<path class="st0" d="M349.8,24.3c-4.1,0-7.1,1.6-10,5.5v-4.7h-5.5v33.6h5.5V38.2c-0.2-2.3,0.6-4.5,2.2-6.1c1.6-1.8,4-2.9,6.4-2.8
		c2-0.1,3.9,0.7,5.2,2.3c0.9,1.2,1.2,2.8,1.2,5.8v21.4h5.5V36c0-4.6-0.7-6.9-2.8-9C355.4,25.2,352.6,24.2,349.8,24.3z"/>
	<path class="st0" d="M384,24.3c-4.1,0-7.1,1.6-10,5.5v-4.7h-5.5v33.6h5.5V38.2c-0.2-2.3,0.6-4.5,2.2-6.1c1.6-1.8,4-2.9,6.4-2.8
		c2-0.1,3.9,0.7,5.2,2.3c0.9,1.2,1.2,2.8,1.2,5.8v21.4h5.5V36c0-4.6-0.7-6.9-2.8-9C389.6,25.2,386.8,24.2,384,24.3z"/>
	<path class="st0" d="M416.8,24.3c-9.8,0-16.9,7.4-16.9,17.7s7.1,17.5,17.1,17.5c6.3,0.1,12.1-3.4,14.9-9l-4.9-1.8
		c-2.1,3.6-5.9,5.8-10.1,5.8c-3.6,0-6.9-1.7-9-4.6c-1.4-1.8-2.1-3.9-2.2-6.1h28c0.1-0.8,0.1-1.8,0.1-2.2
		C433.9,31.6,426.6,24.3,416.8,24.3z M405.9,39.6c0.2-2,0.8-4,1.9-5.7c2-3,5.4-4.7,9-4.7c3.6,0,7.1,1.7,9.3,4.6
		c1.2,1.7,1.9,3.7,1.9,5.8L405.9,39.6z"/>
	<path class="st0" d="M453.2,29.4c3.2,0,6.2,1.3,8.5,3.5l3.6-3.6c-3.2-3.3-7.7-5.1-12.2-5c-9.8,0-16.8,7.3-16.8,17.7
		c0,10.2,6.9,17.5,16.5,17.5c4.6,0.1,9.1-1.7,12.4-5l-3.4-3.8c-2.2,2.3-5.4,3.7-8.6,3.6c-6.6,0-11.1-5.2-11.1-12.6
		S446.6,29.4,453.2,29.4z"/>
	<polygon class="st0" points="479.5,25.1 479.5,14.5 473.9,14.5 473.9,25.1 469.2,25.1 469.2,30 473.9,30 473.9,59.5 479.5,59.5 
		479.5,30 484.5,30 484.5,25.1 	"/>
	<path class="st0" d="M494.4,25.6h-1.2v-8.4h-2.4v-1h6v1h-2.4L494.4,25.6z"/>
	<path class="st0" d="M499.2,25.6H498v-9.4h1.2l3.5,7l3.5-7h1.1v9.4h-1.2v-6.9l-3.5,7l-3.5-7L499.2,25.6z"/>
</g>
</svg>
